{"glyphs":{"0":{"ha":897,"x_min":85,"x_max":814,"o":"m 438 -14 q 173 108 261 -14 q 85 426 85 231 q 135 667 85 565 q 273 822 186 768 q 464 875 360 875 q 729 758 644 875 q 814 439 814 642 q 763 201 813 304 q 627 42 713 99 q 438 -14 542 -14 m 449 61 q 647 428 647 61 q 603 706 647 611 q 451 801 558 801 q 299 710 349 801 q 249 447 249 618 q 297 165 249 268 q 449 61 344 61 z "},"1":{"ha":615,"x_min":53,"x_max":588,"o":"m 258 710 q 169 684 232 699 q 68 664 107 669 l 53 746 q 202 798 126 761 q 328 878 278 835 l 329 878 l 417 863 l 417 83 l 588 71 l 588 0 l 82 0 l 82 71 l 258 83 l 258 710 z "},"2":{"ha":832,"x_min":63,"x_max":785,"o":"m 63 61 q 296 226 190 133 q 464 417 401 318 q 526 604 526 515 q 481 724 526 679 q 351 768 435 768 q 220 738 274 768 q 115 663 167 708 l 69 726 q 208 831 117 783 q 403 878 300 878 q 568 842 501 878 q 667 750 635 807 q 699 625 699 693 q 567 344 699 488 q 238 88 436 201 l 663 118 l 711 235 l 785 219 l 750 0 l 85 0 l 63 61 z "},"3":{"ha":779,"x_min":76,"x_max":714,"o":"m 222 -224 q 147 -219 188 -224 q 79 -206 107 -214 l 79 -122 q 192 -136 126 -136 q 377 -102 299 -136 q 497 -10 456 -68 q 539 118 539 49 q 308 317 539 311 l 272 307 q 222 293 226 294 l 197 369 q 307 403 260 381 q 444 500 393 439 q 496 629 496 561 q 450 739 496 704 q 332 774 404 774 q 213 752 269 774 q 115 697 157 731 l 76 765 q 201 841 115 804 q 378 878 288 878 q 585 823 506 878 q 664 654 664 768 q 585 476 664 557 q 400 358 507 396 q 439 360 414 360 q 583 331 521 360 q 680 249 646 301 q 714 132 714 197 q 653 -51 714 31 q 481 -178 593 -132 q 222 -224 369 -224 z "},"4":{"ha":899,"x_min":50,"x_max":871,"o":"m 547 0 l 88 0 l 50 64 q 247 469 129 214 q 461 944 365 724 l 499 944 l 618 881 l 247 168 l 190 82 l 547 101 l 556 371 l 681 381 l 681 110 l 871 119 l 871 0 l 681 0 l 681 -224 l 547 -224 l 547 0 z "},"5":{"ha":831,"x_min":125,"x_max":739,"o":"m 129 -143 q 213 -147 168 -147 q 392 -108 311 -147 q 521 3 474 -68 q 568 163 568 74 q 514 328 568 276 q 363 381 460 381 q 260 367 317 381 q 164 336 204 354 l 125 364 l 193 865 l 594 865 l 608 892 l 697 892 l 671 743 l 300 743 l 238 426 q 334 463 276 447 q 451 478 392 478 q 663 403 586 478 q 739 186 739 328 q 674 -19 739 75 q 493 -168 610 -112 q 226 -224 376 -224 q 129 -214 167 -224 l 129 -143 z "},"6":{"ha":924,"x_min":104,"x_max":826,"o":"m 467 -17 q 271 40 353 -17 q 147 194 189 97 q 104 410 104 290 q 190 734 104 586 q 408 976 275 882 q 681 1092 542 1069 l 714 1029 q 444 861 553 979 q 294 592 335 743 q 390 659 329 632 q 529 686 450 686 q 749 601 671 686 q 826 367 826 517 q 784 178 826 265 q 660 37 742 90 q 467 -17 578 -17 m 481 596 q 353 563 410 596 q 276 494 297 531 q 272 436 272 468 q 316 163 269 267 q 474 58 363 58 q 615 140 565 58 q 664 333 664 221 q 615 533 664 471 q 481 596 567 596 z "},"7":{"ha":818,"x_min":64,"x_max":764,"o":"m 219 -197 q 359 115 293 -43 q 543 564 425 272 q 622 761 535 542 l 219 756 l 158 567 l 64 585 l 94 865 l 733 865 l 764 828 l 385 -242 l 219 -197 z "},"8":{"ha":881,"x_min":88,"x_max":799,"o":"m 88 254 q 141 407 88 336 q 301 525 194 478 q 176 638 221 575 q 131 792 131 701 q 174 933 131 874 q 292 1024 218 993 q 450 1054 365 1054 q 669 991 586 1054 q 751 824 751 928 q 703 675 751 744 q 565 557 654 606 q 737 430 675 496 q 799 268 799 364 q 749 119 799 183 q 617 21 700 56 q 436 -14 535 -14 q 267 14 346 -14 q 138 102 188 42 q 88 254 88 163 m 268 826 q 299 735 268 775 q 376 664 329 694 q 497 594 422 633 q 592 681 557 628 q 628 793 628 733 q 579 935 628 883 q 446 986 531 986 q 319 942 371 986 q 268 826 268 899 m 643 238 q 615 325 643 288 q 544 390 586 363 q 425 457 501 417 q 364 489 415 461 q 263 401 301 456 q 225 282 225 346 q 284 120 225 181 q 446 60 343 60 q 541 82 496 60 q 615 145 586 104 q 643 238 643 186 z "},"9":{"ha":917,"x_min":99,"x_max":824,"o":"m 464 878 q 663 824 582 878 q 784 676 744 769 q 824 465 824 583 q 745 131 824 282 q 540 -116 667 -21 q 274 -233 414 -211 l 240 -169 q 499 -2 399 -118 q 635 271 599 114 q 542 204 600 232 q 415 176 485 176 q 248 217 319 176 q 138 334 176 258 q 99 510 99 410 q 142 692 99 608 q 269 827 186 776 q 464 878 353 878 m 450 265 q 576 299 521 265 q 651 369 632 332 q 656 439 656 406 q 614 704 660 604 q 454 804 568 804 q 349 767 393 804 q 284 669 306 729 q 263 540 263 608 q 313 332 263 399 q 450 265 364 265 z "},"\u0000":{"ha":0,"x_min":0,"x_max":0,"o":""},"\r":{"ha":385,"x_min":0,"x_max":0,"o":""}," ":{"ha":385,"x_min":0,"x_max":0,"o":""},"A":{"ha":964,"x_min":-19,"x_max":982,"o":"m 67 85 l 399 1040 l 563 1040 l 897 85 l 982 71 l 982 0 l 607 0 l 607 71 l 721 85 l 657 286 l 260 286 l 196 85 l 314 71 l 314 0 l -19 0 l -19 71 l 67 85 m 631 371 l 488 815 l 456 935 l 424 813 l 286 371 l 631 371 z "},"Á":{"ha":964,"x_min":-19,"x_max":982,"o":"m 67 85 l 399 1040 l 563 1040 l 897 85 l 982 71 l 982 0 l 607 0 l 607 71 l 721 85 l 657 286 l 260 286 l 196 85 l 314 71 l 314 0 l -19 0 l -19 71 l 67 85 m 631 371 l 488 815 l 456 935 l 424 813 l 286 371 l 631 371 m 401 1151 l 622 1363 l 724 1282 q 599 1181 686 1235 q 456 1107 511 1128 l 401 1151 z "},"Ă":{"ha":964,"x_min":-19,"x_max":982,"o":"m 482 1115 q 307 1175 369 1115 q 244 1326 244 1235 q 246 1356 244 1346 l 326 1356 q 328 1338 326 1344 q 369 1259 333 1293 q 483 1225 406 1225 q 595 1260 560 1225 q 635 1339 631 1294 q 636 1356 636 1346 l 715 1356 q 717 1328 717 1346 q 653 1176 717 1236 q 482 1115 590 1115 m 67 85 l 399 1040 l 563 1040 l 897 85 l 982 71 l 982 0 l 607 0 l 607 71 l 721 85 l 657 286 l 260 286 l 196 85 l 314 71 l 314 0 l -19 0 l -19 71 l 67 85 m 631 371 l 488 815 l 456 935 l 424 813 l 286 371 l 631 371 z "},"Ắ":{"ha":964,"x_min":-19,"x_max":982,"o":"m 67 85 l 399 1040 l 563 1040 l 897 85 l 982 71 l 982 0 l 607 0 l 607 71 l 721 85 l 657 286 l 260 286 l 196 85 l 314 71 l 314 0 l -19 0 l -19 71 l 67 85 m 631 371 l 488 815 l 456 935 l 424 813 l 286 371 l 631 371 m 483 1115 q 308 1175 371 1115 q 246 1326 246 1235 q 247 1356 246 1346 l 328 1356 q 329 1338 328 1344 q 371 1259 335 1293 q 485 1225 407 1225 q 597 1260 561 1225 q 636 1339 632 1294 q 638 1356 638 1346 l 717 1356 q 718 1328 718 1346 q 655 1176 718 1236 q 483 1115 592 1115 m 425 1404 l 646 1615 l 747 1535 q 622 1434 710 1488 q 479 1360 535 1381 l 425 1404 z "},"Ặ":{"ha":964,"x_min":-19,"x_max":982,"o":"m 67 85 l 399 1040 l 563 1040 l 897 85 l 982 71 l 982 0 l 607 0 l 607 71 l 721 85 l 657 286 l 260 286 l 196 85 l 314 71 l 314 0 l -19 0 l -19 71 l 67 85 m 631 371 l 488 815 l 456 935 l 424 813 l 286 371 l 631 371 m 474 -257 q 419 -234 440 -257 q 397 -178 397 -211 q 421 -112 397 -139 q 485 -85 444 -85 q 543 -108 522 -85 q 564 -164 564 -132 q 541 -231 564 -206 q 475 -257 518 -257 l 474 -257 m 483 1111 q 308 1171 371 1111 q 246 1322 246 1231 q 247 1351 246 1342 l 328 1351 q 329 1333 328 1340 q 371 1255 335 1289 q 485 1221 407 1221 q 597 1256 561 1221 q 636 1335 632 1290 q 638 1351 638 1342 l 717 1351 q 718 1324 718 1342 q 655 1172 718 1232 q 483 1111 592 1111 z "},"Ằ":{"ha":964,"x_min":-19,"x_max":982,"o":"m 67 85 l 399 1040 l 563 1040 l 897 85 l 982 71 l 982 0 l 607 0 l 607 71 l 721 85 l 657 286 l 260 286 l 196 85 l 314 71 l 314 0 l -19 0 l -19 71 l 67 85 m 631 371 l 488 815 l 456 935 l 424 813 l 286 371 l 631 371 m 483 1115 q 308 1175 371 1115 q 246 1326 246 1235 q 247 1356 246 1346 l 328 1356 q 329 1338 328 1344 q 371 1259 335 1293 q 485 1225 407 1225 q 597 1260 561 1225 q 636 1339 632 1294 q 638 1356 638 1346 l 717 1356 q 718 1328 718 1346 q 655 1176 718 1236 q 483 1115 592 1115 m 486 1363 q 341 1439 429 1385 q 218 1538 253 1493 l 319 1618 l 542 1407 l 486 1363 z "},"Ẳ":{"ha":964,"x_min":-19,"x_max":982,"o":"m 67 85 l 399 1040 l 563 1040 l 897 85 l 982 71 l 982 0 l 607 0 l 607 71 l 721 85 l 657 286 l 260 286 l 196 85 l 314 71 l 314 0 l -19 0 l -19 71 l 67 85 m 631 371 l 488 815 l 456 935 l 424 813 l 286 371 l 631 371 m 483 1115 q 308 1175 371 1115 q 246 1326 246 1235 q 247 1356 246 1346 l 328 1356 q 329 1338 328 1344 q 371 1259 335 1293 q 485 1225 407 1225 q 597 1260 561 1225 q 636 1339 632 1294 q 638 1356 638 1346 l 717 1356 q 718 1328 718 1346 q 655 1176 718 1236 q 483 1115 592 1115 m 460 1356 q 432 1414 432 1396 q 442 1443 432 1432 q 474 1468 453 1454 q 502 1490 492 1481 q 517 1514 513 1500 l 517 1519 q 499 1562 517 1544 q 444 1583 482 1579 q 399 1579 404 1583 l 393 1672 q 417 1679 396 1676 q 453 1682 438 1682 q 578 1644 528 1682 q 629 1538 629 1606 q 610 1483 629 1504 q 557 1439 592 1461 q 541 1427 549 1432 q 528 1417 533 1422 q 513 1385 513 1401 q 515 1364 513 1372 l 460 1356 z "},"Ẵ":{"ha":964,"x_min":-19,"x_max":982,"o":"m 67 85 l 399 1040 l 563 1040 l 897 85 l 982 71 l 982 0 l 607 0 l 607 71 l 721 85 l 657 286 l 260 286 l 196 85 l 314 71 l 314 0 l -19 0 l -19 71 l 67 85 m 631 371 l 488 815 l 456 935 l 424 813 l 286 371 l 631 371 m 483 1115 q 308 1175 371 1115 q 246 1326 246 1235 q 247 1356 246 1346 l 328 1356 q 329 1338 328 1344 q 371 1259 335 1293 q 485 1225 407 1225 q 597 1260 561 1225 q 636 1339 632 1294 q 638 1356 638 1346 l 717 1356 q 718 1328 718 1346 q 655 1176 718 1236 q 483 1115 592 1115 m 607 1408 q 538 1424 567 1408 q 475 1471 510 1440 q 423 1510 444 1497 q 375 1522 401 1522 q 311 1499 335 1522 q 268 1439 288 1475 l 207 1482 q 276 1580 224 1535 q 399 1625 328 1625 q 468 1609 440 1625 q 531 1561 496 1593 q 576 1524 557 1536 q 621 1511 596 1511 q 670 1524 650 1511 q 699 1551 690 1538 q 724 1593 707 1564 l 786 1550 q 718 1449 763 1489 q 607 1408 674 1408 z "},"Â":{"ha":964,"x_min":-19,"x_max":982,"o":"m 422 1364 l 538 1364 l 726 1163 l 668 1121 l 481 1263 l 290 1121 l 233 1161 l 422 1364 m 67 85 l 399 1040 l 563 1040 l 897 85 l 982 71 l 982 0 l 607 0 l 607 71 l 721 85 l 657 286 l 260 286 l 196 85 l 314 71 l 314 0 l -19 0 l -19 71 l 67 85 m 631 371 l 488 815 l 456 935 l 424 813 l 286 371 l 631 371 z "},"Ấ":{"ha":964,"x_min":-19,"x_max":988,"o":"m 67 85 l 399 1040 l 563 1040 l 897 85 l 982 71 l 982 0 l 607 0 l 607 71 l 721 85 l 657 286 l 260 286 l 196 85 l 314 71 l 314 0 l -19 0 l -19 71 l 67 85 m 631 371 l 488 815 l 456 935 l 424 813 l 286 371 l 631 371 m 424 1364 l 538 1364 l 728 1163 l 668 1121 l 481 1263 l 290 1121 l 235 1161 l 424 1364 m 665 1325 l 886 1536 l 988 1456 q 863 1355 950 1408 q 719 1281 775 1301 l 665 1325 z "},"Ậ":{"ha":964,"x_min":-19,"x_max":982,"o":"m 67 85 l 399 1040 l 563 1040 l 897 85 l 982 71 l 982 0 l 607 0 l 607 71 l 721 85 l 657 286 l 260 286 l 196 85 l 314 71 l 314 0 l -19 0 l -19 71 l 67 85 m 631 371 l 488 815 l 456 935 l 424 813 l 286 371 l 631 371 m 474 -257 q 419 -234 440 -257 q 397 -178 397 -211 q 421 -112 397 -139 q 485 -85 444 -85 q 543 -108 522 -85 q 564 -164 564 -132 q 541 -231 564 -206 q 475 -257 518 -257 l 474 -257 m 425 1356 l 539 1356 l 729 1154 l 669 1113 l 482 1254 l 292 1113 l 236 1153 l 425 1356 z "},"Ầ":{"ha":964,"x_min":-19,"x_max":982,"o":"m 67 85 l 399 1040 l 563 1040 l 897 85 l 982 71 l 982 0 l 607 0 l 607 71 l 721 85 l 657 286 l 260 286 l 196 85 l 314 71 l 314 0 l -19 0 l -19 71 l 67 85 m 631 371 l 488 815 l 456 935 l 424 813 l 286 371 l 631 371 m 425 1364 l 539 1364 l 729 1163 l 669 1121 l 482 1263 l 292 1121 l 236 1161 l 425 1364 m 714 1332 q 569 1408 657 1354 q 446 1507 481 1463 l 547 1588 l 769 1376 l 714 1332 z "},"Ẩ":{"ha":964,"x_min":-19,"x_max":982,"o":"m 67 85 l 399 1040 l 563 1040 l 897 85 l 982 71 l 982 0 l 607 0 l 607 71 l 721 85 l 657 286 l 260 286 l 196 85 l 314 71 l 314 0 l -19 0 l -19 71 l 67 85 m 631 371 l 488 815 l 456 935 l 424 813 l 286 371 l 631 371 m 424 1364 l 538 1364 l 728 1163 l 668 1121 l 481 1263 l 290 1121 l 235 1161 l 424 1364 m 704 1269 q 676 1328 676 1310 q 687 1357 676 1346 q 718 1382 697 1368 q 747 1404 736 1394 q 761 1428 757 1414 l 761 1433 q 744 1476 761 1458 q 689 1497 726 1493 q 643 1493 649 1497 l 638 1586 q 661 1593 640 1590 q 697 1596 682 1596 q 823 1558 772 1596 q 874 1451 874 1519 q 855 1397 874 1418 q 801 1353 836 1375 q 785 1341 793 1346 q 772 1331 778 1336 q 757 1299 757 1315 q 760 1278 757 1286 l 704 1269 z "},"Ẫ":{"ha":964,"x_min":-19,"x_max":982,"o":"m 67 85 l 399 1040 l 563 1040 l 897 85 l 982 71 l 982 0 l 607 0 l 607 71 l 721 85 l 657 286 l 260 286 l 196 85 l 314 71 l 314 0 l -19 0 l -19 71 l 67 85 m 631 371 l 488 815 l 456 935 l 424 813 l 286 371 l 631 371 m 425 1364 l 539 1364 l 729 1163 l 669 1121 l 482 1263 l 292 1121 l 236 1161 l 425 1364 m 643 1400 q 574 1416 603 1400 q 511 1463 546 1432 q 459 1501 481 1489 q 411 1514 438 1514 q 347 1490 371 1514 q 304 1431 324 1467 l 243 1474 q 312 1572 260 1526 q 435 1617 364 1617 q 504 1601 476 1617 q 567 1553 532 1585 q 613 1515 593 1528 q 657 1503 632 1503 q 706 1516 686 1503 q 735 1542 726 1529 q 760 1585 743 1556 l 822 1542 q 754 1440 799 1481 q 643 1400 710 1400 z "},"Ä":{"ha":964,"x_min":-19,"x_max":982,"o":"m 299 1143 q 242 1169 264 1143 q 219 1232 219 1196 q 244 1307 219 1276 q 314 1338 268 1338 l 315 1338 q 379 1310 356 1338 q 403 1247 403 1283 q 376 1172 403 1201 q 300 1143 350 1143 l 299 1143 m 642 1143 q 584 1169 607 1143 q 561 1232 561 1196 q 585 1307 561 1276 q 656 1338 610 1338 l 657 1338 q 721 1311 699 1338 q 743 1247 743 1285 q 717 1172 743 1201 q 642 1143 692 1143 m 67 85 l 399 1040 l 563 1040 l 897 85 l 982 71 l 982 0 l 607 0 l 607 71 l 721 85 l 657 286 l 260 286 l 196 85 l 314 71 l 314 0 l -19 0 l -19 71 l 67 85 m 631 371 l 488 815 l 456 935 l 424 813 l 286 371 l 631 371 z "},"Ạ":{"ha":964,"x_min":-19,"x_max":982,"o":"m 67 85 l 399 1040 l 563 1040 l 897 85 l 982 71 l 982 0 l 607 0 l 607 71 l 721 85 l 657 286 l 260 286 l 196 85 l 314 71 l 314 0 l -19 0 l -19 71 l 67 85 m 631 371 l 488 815 l 456 935 l 424 813 l 286 371 l 631 371 m 474 -257 q 419 -234 440 -257 q 397 -178 397 -211 q 421 -112 397 -139 q 485 -85 444 -85 q 543 -108 522 -85 q 564 -164 564 -132 q 541 -231 564 -206 q 475 -257 518 -257 l 474 -257 z "},"À":{"ha":964,"x_min":-19,"x_max":982,"o":"m 67 85 l 399 1040 l 563 1040 l 897 85 l 982 71 l 982 0 l 607 0 l 607 71 l 721 85 l 657 286 l 260 286 l 196 85 l 314 71 l 314 0 l -19 0 l -19 71 l 67 85 m 631 371 l 488 815 l 456 935 l 424 813 l 286 371 l 631 371 m 501 1107 q 356 1183 444 1129 q 233 1282 268 1238 l 335 1363 l 557 1151 l 501 1107 z "},"Ả":{"ha":964,"x_min":-19,"x_max":982,"o":"m 67 85 l 399 1040 l 563 1040 l 897 85 l 982 71 l 982 0 l 607 0 l 607 71 l 721 85 l 657 286 l 260 286 l 196 85 l 314 71 l 314 0 l -19 0 l -19 71 l 67 85 m 631 371 l 488 815 l 456 935 l 424 813 l 286 371 l 631 371 m 438 1119 q 410 1178 410 1160 q 420 1207 410 1196 q 451 1232 431 1218 q 480 1254 469 1244 q 494 1278 490 1264 l 494 1283 q 477 1326 494 1308 q 422 1347 460 1343 q 376 1343 382 1347 l 371 1436 q 394 1443 374 1440 q 431 1446 415 1446 q 556 1408 506 1446 q 607 1301 607 1369 q 588 1247 607 1268 q 535 1203 569 1225 q 519 1191 526 1196 q 506 1181 511 1186 q 490 1149 490 1165 q 493 1128 490 1136 l 438 1119 z "},"Ā":{"ha":964,"x_min":-19,"x_max":982,"o":"m 681 1285 l 681 1182 l 286 1182 l 286 1285 l 681 1285 m 67 85 l 399 1040 l 563 1040 l 897 85 l 982 71 l 982 0 l 607 0 l 607 71 l 721 85 l 657 286 l 260 286 l 196 85 l 314 71 l 314 0 l -19 0 l -19 71 l 67 85 m 631 371 l 488 815 l 456 935 l 424 813 l 286 371 l 631 371 z "},"Ą":{"ha":956,"x_min":-19,"x_max":982,"o":"m 399 1040 l 563 1040 l 897 85 l 982 71 l 982 0 l 881 0 q 771 -76 814 -26 q 728 -169 728 -125 q 757 -231 728 -211 q 833 -251 786 -251 q 933 -228 883 -251 l 933 -300 q 859 -334 904 -321 q 771 -347 814 -347 q 643 -313 693 -347 q 593 -212 593 -279 q 647 -92 593 -154 q 778 0 700 -31 l 607 0 l 607 71 l 721 85 l 657 286 l 260 286 l 196 85 l 314 71 l 314 0 l -19 0 l -19 71 l 67 85 l 399 1040 m 631 371 l 488 815 l 456 935 l 424 813 l 286 371 l 631 371 z "},"Å":{"ha":964,"x_min":-19,"x_max":982,"o":"m 982 71 l 982 0 l 607 0 l 607 71 l 721 85 l 657 286 l 260 286 l 196 85 l 314 71 l 314 0 l -19 0 l -19 71 l 67 85 l 394 1028 q 289 1088 324 1044 q 254 1190 254 1131 q 323 1319 254 1272 q 489 1365 392 1365 q 653 1319 597 1365 q 710 1194 710 1272 q 671 1089 710 1132 q 567 1029 632 1046 l 897 85 l 982 71 m 357 1194 q 389 1115 357 1147 q 482 1082 421 1082 q 607 1186 607 1082 q 577 1269 607 1238 q 485 1301 547 1301 q 390 1274 422 1301 q 357 1194 357 1246 m 286 371 l 631 371 l 488 815 l 456 935 l 424 813 l 286 371 z "},"Ã":{"ha":964,"x_min":-19,"x_max":982,"o":"m 592 1143 q 523 1159 551 1143 q 460 1206 494 1175 q 408 1244 429 1232 q 360 1257 386 1257 q 296 1233 319 1257 q 253 1174 272 1210 l 192 1217 q 260 1315 208 1269 q 383 1360 313 1360 q 453 1344 425 1360 q 515 1296 481 1328 q 561 1258 542 1271 q 606 1246 581 1246 q 655 1259 635 1246 q 683 1285 675 1272 q 708 1328 692 1299 l 771 1285 q 703 1183 747 1224 q 592 1143 658 1143 m 67 85 l 399 1040 l 563 1040 l 897 85 l 982 71 l 982 0 l 607 0 l 607 71 l 721 85 l 657 286 l 260 286 l 196 85 l 314 71 l 314 0 l -19 0 l -19 71 l 67 85 m 631 371 l 488 815 l 456 935 l 424 813 l 286 371 l 631 371 z "},"Æ":{"ha":1283,"x_min":-121,"x_max":1269,"o":"m 556 85 l 556 299 l 203 299 l 117 85 l 224 69 l 224 0 l -121 0 l -121 69 l -21 85 l 357 944 l 172 961 l 172 1032 l 1154 1032 l 1176 810 l 1093 810 l 1050 950 l 715 960 l 715 569 l 936 574 l 956 689 l 1036 689 l 1036 367 l 956 367 l 938 486 l 715 489 l 715 78 l 1097 94 l 1179 269 l 1269 244 l 1219 0 l 439 0 l 439 69 l 556 85 m 556 383 l 556 953 l 467 953 l 392 769 l 236 383 l 556 383 z "},"Ǽ":{"ha":1283,"x_min":-121,"x_max":1269,"o":"m 556 85 l 556 299 l 203 299 l 117 85 l 224 69 l 224 0 l -121 0 l -121 69 l -21 85 l 357 944 l 172 961 l 172 1032 l 1154 1032 l 1176 810 l 1093 810 l 1050 950 l 715 960 l 715 569 l 936 574 l 956 689 l 1036 689 l 1036 367 l 956 367 l 938 486 l 715 489 l 715 78 l 1097 94 l 1179 269 l 1269 244 l 1219 0 l 439 0 l 439 69 l 556 85 m 556 383 l 556 953 l 467 953 l 392 769 l 236 383 l 556 383 m 561 1151 l 782 1363 l 883 1282 q 758 1181 846 1235 q 615 1107 671 1128 l 561 1151 z "},"B":{"ha":956,"x_min":61,"x_max":907,"o":"m 176 942 l 64 958 l 64 1032 l 254 1032 q 375 1038 300 1032 q 416 1040 392 1039 q 474 1042 440 1042 q 752 983 669 1042 q 835 808 835 924 q 777 638 835 708 q 621 550 719 568 q 830 488 753 553 q 907 310 907 422 q 808 80 907 168 q 478 -8 708 -8 q 378 -4 426 -8 q 251 0 274 0 l 61 0 l 61 71 l 176 85 l 176 942 m 335 578 q 410 576 353 576 l 483 576 q 626 631 578 576 q 675 783 675 685 q 626 924 675 879 q 461 968 578 968 q 375 964 450 968 l 335 961 l 335 578 m 335 81 q 474 69 365 69 q 671 126 610 69 q 732 292 732 183 q 678 445 732 397 q 507 493 625 493 q 335 490 369 493 l 335 81 z "},"Ḃ":{"ha":956,"x_min":61,"x_max":907,"o":"m 176 942 l 64 958 l 64 1032 l 254 1032 q 375 1038 300 1032 q 416 1040 392 1039 q 474 1042 440 1042 q 752 983 669 1042 q 835 808 835 924 q 777 638 835 708 q 621 550 719 568 q 830 488 753 553 q 907 310 907 422 q 808 80 907 168 q 478 -8 708 -8 q 378 -4 426 -8 q 251 0 274 0 l 61 0 l 61 71 l 176 85 l 176 942 m 335 578 q 410 576 353 576 l 483 576 q 626 631 578 576 q 675 783 675 685 q 626 924 675 879 q 461 968 578 968 q 375 964 450 968 l 335 961 l 335 578 m 335 81 q 474 69 365 69 q 671 126 610 69 q 732 292 732 183 q 678 445 732 397 q 507 493 625 493 q 335 490 369 493 l 335 81 m 469 1147 q 407 1172 431 1147 q 383 1236 383 1197 q 409 1310 383 1281 q 482 1339 435 1339 q 549 1313 524 1339 q 574 1250 574 1288 q 547 1176 574 1204 q 469 1147 521 1147 z "},"C":{"ha":908,"x_min":44,"x_max":858,"o":"m 525 -15 q 263 50 371 -15 q 100 235 156 115 q 44 515 44 354 q 110 792 44 672 q 290 977 175 911 q 547 1043 404 1043 q 808 1011 649 1043 q 851 1003 836 1004 l 838 746 l 738 746 l 701 925 q 638 953 685 942 q 524 965 592 965 q 369 915 438 965 q 263 767 301 865 q 225 531 225 668 q 259 294 225 400 q 362 126 293 189 q 532 64 431 64 q 642 76 603 64 q 708 111 681 88 l 765 249 l 858 239 l 828 38 q 739 18 796 36 q 641 -6 688 3 q 525 -15 594 -15 z "},"Ć":{"ha":908,"x_min":44,"x_max":858,"o":"m 525 -15 q 263 50 371 -15 q 100 235 156 115 q 44 515 44 354 q 110 792 44 672 q 290 977 175 911 q 547 1043 404 1043 q 808 1011 649 1043 q 851 1003 836 1004 l 838 746 l 738 746 l 701 925 q 638 953 685 942 q 524 965 592 965 q 369 915 438 965 q 263 767 301 865 q 225 531 225 668 q 259 294 225 400 q 362 126 293 189 q 532 64 431 64 q 642 76 603 64 q 708 111 681 88 l 765 249 l 858 239 l 828 38 q 739 18 796 36 q 641 -6 688 3 q 525 -15 594 -15 m 433 1151 l 654 1363 l 756 1282 q 631 1181 718 1235 q 488 1107 543 1128 l 433 1151 z "},"Č":{"ha":908,"x_min":44,"x_max":858,"o":"m 358 1364 l 535 1231 l 717 1364 l 774 1324 l 592 1133 l 476 1133 l 299 1322 l 358 1364 m 525 -15 q 263 50 371 -15 q 100 235 156 115 q 44 515 44 354 q 110 792 44 672 q 290 977 175 911 q 547 1043 404 1043 q 808 1011 649 1043 q 851 1003 836 1004 l 838 746 l 738 746 l 701 925 q 638 953 685 942 q 524 965 592 965 q 369 915 438 965 q 263 767 301 865 q 225 531 225 668 q 259 294 225 400 q 362 126 293 189 q 532 64 431 64 q 642 76 603 64 q 708 111 681 88 l 765 249 l 858 239 l 828 38 q 739 18 796 36 q 641 -6 688 3 q 525 -15 594 -15 z "},"Ç":{"ha":908,"x_min":44,"x_max":858,"o":"m 828 38 q 739 18 796 36 q 658 -3 694 4 q 568 -14 621 -11 q 620 -94 597 -47 q 643 -190 643 -142 q 597 -303 643 -269 q 460 -337 551 -337 q 408 -332 436 -337 q 361 -318 381 -326 l 363 -219 q 394 -227 376 -224 q 424 -231 411 -231 q 503 -212 479 -231 q 526 -132 526 -193 q 515 -71 526 -103 q 489 -14 504 -39 q 160 139 275 -3 q 44 515 44 281 q 110 792 44 672 q 290 977 175 911 q 547 1043 404 1043 q 808 1011 649 1043 q 851 1003 836 1004 l 838 746 l 738 746 l 701 925 q 638 953 685 942 q 524 965 592 965 q 369 915 438 965 q 263 767 301 865 q 225 531 225 668 q 259 294 225 400 q 362 126 293 189 q 532 64 431 64 q 642 76 603 64 q 708 111 681 88 l 765 249 l 858 239 l 828 38 z "},"Ĉ":{"ha":908,"x_min":44,"x_max":858,"o":"m 476 1364 l 590 1364 l 781 1163 l 721 1121 l 533 1263 l 343 1121 l 286 1161 l 476 1364 m 525 -15 q 263 50 371 -15 q 100 235 156 115 q 44 515 44 354 q 110 792 44 672 q 290 977 175 911 q 547 1043 404 1043 q 808 1011 649 1043 q 851 1003 836 1004 l 838 746 l 738 746 l 701 925 q 638 953 685 942 q 524 965 592 965 q 369 915 438 965 q 263 767 301 865 q 225 531 225 668 q 259 294 225 400 q 362 126 293 189 q 532 64 431 64 q 642 76 603 64 q 708 111 681 88 l 765 249 l 858 239 l 828 38 q 739 18 796 36 q 641 -6 688 3 q 525 -15 594 -15 z "},"Ċ":{"ha":908,"x_min":44,"x_max":858,"o":"m 525 -15 q 263 50 371 -15 q 100 235 156 115 q 44 515 44 354 q 110 792 44 672 q 290 977 175 911 q 547 1043 404 1043 q 808 1011 649 1043 q 851 1003 836 1004 l 838 746 l 738 746 l 701 925 q 638 953 685 942 q 524 965 592 965 q 369 915 438 965 q 263 767 301 865 q 225 531 225 668 q 259 294 225 400 q 362 126 293 189 q 532 64 431 64 q 642 76 603 64 q 708 111 681 88 l 765 249 l 858 239 l 828 38 q 739 18 796 36 q 641 -6 688 3 q 525 -15 594 -15 m 506 1147 q 443 1172 467 1147 q 419 1236 419 1197 q 445 1310 419 1281 q 518 1339 471 1339 q 585 1313 560 1339 q 610 1250 610 1288 q 583 1176 610 1204 q 506 1147 557 1147 z "},"D":{"ha":1054,"x_min":61,"x_max":1008,"o":"m 176 942 l 68 958 l 68 1032 l 254 1032 q 379 1038 299 1032 q 435 1040 397 1039 q 500 1042 472 1042 q 883 913 758 1042 q 1008 549 1008 783 q 944 258 1008 385 q 763 60 881 131 q 494 -11 646 -11 q 378 -6 458 -11 q 256 0 294 0 l 61 0 l 61 71 l 176 85 l 176 942 m 335 81 q 494 69 399 67 q 673 122 596 71 q 793 273 750 172 q 836 521 836 374 q 744 851 836 738 q 465 965 651 965 q 372 960 425 965 q 335 956 351 956 l 335 81 z "},"Ð":{"ha":1054,"x_min":61,"x_max":1008,"o":"m 176 942 l 68 958 l 68 1032 l 254 1032 q 379 1038 299 1032 q 435 1040 397 1039 q 500 1042 472 1042 q 883 913 758 1042 q 1008 549 1008 783 q 944 258 1008 385 q 763 60 881 131 q 494 -11 646 -11 q 378 -6 458 -11 q 256 0 294 0 l 61 0 l 61 71 l 176 85 l 176 500 l 74 500 l 74 575 l 176 575 l 176 942 m 571 500 l 335 500 l 335 81 q 494 69 399 67 q 673 122 596 71 q 793 273 750 172 q 836 521 836 374 q 744 851 836 738 q 465 965 651 965 q 372 960 425 965 q 335 956 351 956 l 335 575 l 571 575 l 571 500 z "},"Ď":{"ha":1054,"x_min":61,"x_max":1008,"o":"m 363 1364 l 539 1231 l 722 1364 l 778 1324 l 597 1133 l 482 1133 l 303 1322 l 363 1364 m 176 942 l 68 958 l 68 1032 l 254 1032 q 379 1038 299 1032 q 435 1040 397 1039 q 500 1042 472 1042 q 883 913 758 1042 q 1008 549 1008 783 q 944 258 1008 385 q 763 60 881 131 q 494 -11 646 -11 q 378 -6 458 -11 q 256 0 294 0 l 61 0 l 61 71 l 176 85 l 176 942 m 335 81 q 494 69 399 67 q 673 122 596 71 q 793 273 750 172 q 836 521 836 374 q 744 851 836 738 q 465 965 651 965 q 372 960 425 965 q 335 956 351 956 l 335 81 z "},"Đ":{"ha":1054,"x_min":61,"x_max":1008,"o":"m 176 942 l 68 958 l 68 1032 l 254 1032 q 379 1038 299 1032 q 435 1040 397 1039 q 500 1042 472 1042 q 883 913 758 1042 q 1008 549 1008 783 q 944 258 1008 385 q 763 60 881 131 q 494 -11 646 -11 q 378 -6 458 -11 q 256 0 294 0 l 61 0 l 61 71 l 176 85 l 176 489 l 69 489 l 69 572 l 176 572 l 176 942 m 567 489 l 335 489 l 335 81 q 494 69 399 67 q 673 122 596 71 q 793 273 750 172 q 836 521 836 374 q 744 851 836 738 q 465 965 651 965 q 372 960 425 965 q 335 956 351 956 l 335 572 l 567 572 l 567 489 z "},"Ḋ":{"ha":1054,"x_min":61,"x_max":1008,"o":"m 176 942 l 68 958 l 68 1032 l 254 1032 q 379 1038 299 1032 q 435 1040 397 1039 q 500 1042 472 1042 q 883 913 758 1042 q 1008 549 1008 783 q 944 258 1008 385 q 763 60 881 131 q 494 -11 646 -11 q 378 -6 458 -11 q 256 0 294 0 l 61 0 l 61 71 l 176 85 l 176 942 m 335 81 q 494 69 399 67 q 673 122 596 71 q 793 273 750 172 q 836 521 836 374 q 744 851 836 738 q 465 965 651 965 q 372 960 425 965 q 335 956 351 956 l 335 81 m 518 1147 q 456 1172 479 1147 q 432 1236 432 1197 q 458 1310 432 1281 q 531 1339 483 1339 q 597 1313 572 1339 q 622 1250 622 1288 q 596 1176 622 1204 q 518 1147 569 1147 z "},"E":{"ha":906,"x_min":61,"x_max":878,"o":"m 176 85 l 176 942 l 63 958 l 63 1032 l 776 1032 l 796 813 l 713 813 l 672 949 l 335 958 l 335 569 l 560 574 l 579 689 l 658 689 l 658 367 l 579 367 l 560 486 l 335 489 l 335 81 l 717 94 l 792 269 l 878 244 l 838 0 l 61 0 l 61 71 l 176 85 z "},"É":{"ha":906,"x_min":61,"x_max":878,"o":"m 176 85 l 176 942 l 63 958 l 63 1032 l 776 1032 l 796 813 l 713 813 l 672 949 l 335 958 l 335 569 l 560 574 l 579 689 l 658 689 l 658 367 l 579 367 l 560 486 l 335 489 l 335 81 l 717 94 l 792 269 l 878 244 l 838 0 l 61 0 l 61 71 l 176 85 m 400 1151 l 621 1363 l 722 1282 q 597 1181 685 1235 q 454 1107 510 1128 l 400 1151 z "},"Ĕ":{"ha":907,"x_min":61,"x_max":878,"o":"m 475 1115 q 299 1175 361 1115 q 236 1326 236 1235 q 238 1356 236 1346 l 318 1356 q 319 1338 318 1344 q 362 1259 325 1293 q 475 1225 399 1225 q 587 1260 551 1225 q 626 1339 622 1294 q 628 1356 628 1346 l 707 1356 q 708 1328 708 1346 q 681 1220 708 1268 q 600 1144 653 1172 q 475 1115 547 1115 m 176 85 l 176 942 l 63 958 l 63 1032 l 776 1032 l 796 813 l 713 813 l 672 949 l 335 958 l 335 569 l 560 574 l 579 689 l 658 689 l 658 367 l 579 367 l 560 486 l 335 489 l 335 81 l 717 94 l 792 269 l 878 244 l 838 0 l 61 0 l 61 71 l 176 85 z "},"Ě":{"ha":907,"x_min":61,"x_max":878,"o":"m 297 1364 l 474 1231 l 656 1364 l 713 1324 l 532 1133 l 415 1133 l 238 1322 l 297 1364 m 176 85 l 176 942 l 63 958 l 63 1032 l 776 1032 l 796 813 l 713 813 l 672 949 l 335 958 l 335 569 l 560 574 l 579 689 l 658 689 l 658 367 l 579 367 l 560 486 l 335 489 l 335 81 l 717 94 l 792 269 l 878 244 l 838 0 l 61 0 l 61 71 l 176 85 z "},"Ê":{"ha":906,"x_min":61,"x_max":878,"o":"m 415 1364 l 529 1364 l 719 1163 l 660 1121 l 472 1263 l 282 1121 l 226 1161 l 415 1364 m 176 85 l 176 942 l 63 958 l 63 1032 l 776 1032 l 796 813 l 713 813 l 672 949 l 335 958 l 335 569 l 560 574 l 579 689 l 658 689 l 658 367 l 579 367 l 560 486 l 335 489 l 335 81 l 717 94 l 792 269 l 878 244 l 838 0 l 61 0 l 61 71 l 176 85 z "},"Ế":{"ha":906,"x_min":61,"x_max":986,"o":"m 176 85 l 176 942 l 63 958 l 63 1032 l 776 1032 l 796 813 l 713 813 l 672 949 l 335 958 l 335 569 l 560 574 l 579 689 l 658 689 l 658 367 l 579 367 l 560 486 l 335 489 l 335 81 l 717 94 l 792 269 l 878 244 l 838 0 l 61 0 l 61 71 l 176 85 m 422 1364 l 536 1364 l 726 1163 l 667 1121 l 479 1263 l 289 1121 l 233 1161 l 422 1364 m 664 1325 l 885 1536 l 986 1456 q 861 1355 949 1408 q 718 1281 774 1301 l 664 1325 z "},"Ệ":{"ha":906,"x_min":61,"x_max":878,"o":"m 176 85 l 176 942 l 63 958 l 63 1032 l 776 1032 l 796 813 l 713 813 l 672 949 l 335 958 l 335 569 l 560 574 l 579 689 l 658 689 l 658 367 l 579 367 l 560 486 l 335 489 l 335 81 l 717 94 l 792 269 l 878 244 l 838 0 l 61 0 l 61 71 l 176 85 m 444 -257 q 390 -234 411 -257 q 368 -178 368 -211 q 392 -112 368 -139 q 456 -85 415 -85 q 514 -108 493 -85 q 535 -164 535 -132 q 512 -231 535 -206 q 446 -257 489 -257 l 444 -257 m 396 1357 l 510 1357 l 700 1156 l 640 1114 l 453 1256 l 263 1114 l 207 1154 l 396 1357 z "},"Ề":{"ha":906,"x_min":61,"x_max":878,"o":"m 176 85 l 176 942 l 63 958 l 63 1032 l 776 1032 l 796 813 l 713 813 l 672 949 l 335 958 l 335 569 l 560 574 l 579 689 l 658 689 l 658 367 l 579 367 l 560 486 l 335 489 l 335 81 l 717 94 l 792 269 l 878 244 l 838 0 l 61 0 l 61 71 l 176 85 m 424 1364 l 538 1364 l 728 1163 l 668 1121 l 481 1263 l 290 1121 l 235 1161 l 424 1364 m 713 1332 q 567 1408 656 1354 q 444 1507 479 1463 l 546 1588 l 768 1376 l 713 1332 z "},"Ể":{"ha":906,"x_min":61,"x_max":878,"o":"m 176 85 l 176 942 l 63 958 l 63 1032 l 776 1032 l 796 813 l 713 813 l 672 949 l 335 958 l 335 569 l 560 574 l 579 689 l 658 689 l 658 367 l 579 367 l 560 486 l 335 489 l 335 81 l 717 94 l 792 269 l 878 244 l 838 0 l 61 0 l 61 71 l 176 85 m 422 1364 l 536 1364 l 726 1163 l 667 1121 l 479 1263 l 289 1121 l 233 1161 l 422 1364 m 703 1269 q 675 1328 675 1310 q 685 1357 675 1346 q 717 1382 696 1368 q 745 1404 735 1394 q 760 1428 756 1414 l 760 1433 q 742 1476 760 1458 q 688 1497 725 1493 q 642 1493 647 1497 l 636 1586 q 660 1593 639 1590 q 696 1596 681 1596 q 822 1558 771 1596 q 872 1451 872 1519 q 853 1397 872 1418 q 800 1353 835 1375 q 784 1341 792 1346 q 771 1331 776 1336 q 756 1299 756 1315 q 758 1278 756 1286 l 703 1269 z "},"Ễ":{"ha":906,"x_min":61,"x_max":878,"o":"m 176 85 l 176 942 l 63 958 l 63 1032 l 776 1032 l 796 813 l 713 813 l 672 949 l 335 958 l 335 569 l 560 574 l 579 689 l 658 689 l 658 367 l 579 367 l 560 486 l 335 489 l 335 81 l 717 94 l 792 269 l 878 244 l 838 0 l 61 0 l 61 71 l 176 85 m 424 1364 l 538 1364 l 728 1163 l 668 1121 l 481 1263 l 290 1121 l 235 1161 l 424 1364 m 642 1400 q 573 1416 601 1400 q 510 1463 544 1432 q 458 1501 479 1489 q 410 1514 436 1514 q 346 1490 369 1514 q 303 1431 322 1467 l 242 1474 q 310 1572 258 1526 q 433 1617 363 1617 q 503 1601 475 1617 q 565 1553 531 1585 q 611 1515 592 1528 q 656 1503 631 1503 q 705 1516 685 1503 q 733 1542 725 1529 q 758 1585 742 1556 l 821 1542 q 753 1440 797 1481 q 642 1400 708 1400 z "},"Ë":{"ha":907,"x_min":61,"x_max":878,"o":"m 292 1143 q 233 1169 256 1143 q 211 1232 211 1196 q 235 1307 211 1276 q 306 1338 260 1338 l 307 1338 q 371 1310 347 1338 q 394 1247 394 1283 q 369 1172 394 1201 q 293 1143 343 1143 l 292 1143 m 633 1143 q 576 1169 599 1143 q 554 1232 554 1196 q 578 1307 554 1276 q 649 1338 603 1338 l 650 1338 q 713 1311 690 1338 q 736 1247 736 1285 q 710 1172 736 1201 q 633 1143 683 1143 m 176 85 l 176 942 l 63 958 l 63 1032 l 776 1032 l 796 813 l 713 813 l 672 949 l 335 958 l 335 569 l 560 574 l 579 689 l 658 689 l 658 367 l 579 367 l 560 486 l 335 489 l 335 81 l 717 94 l 792 269 l 878 244 l 838 0 l 61 0 l 61 71 l 176 85 z "},"Ė":{"ha":906,"x_min":61,"x_max":878,"o":"m 176 85 l 176 942 l 63 958 l 63 1032 l 776 1032 l 796 813 l 713 813 l 672 949 l 335 958 l 335 569 l 560 574 l 579 689 l 658 689 l 658 367 l 579 367 l 560 486 l 335 489 l 335 81 l 717 94 l 792 269 l 878 244 l 838 0 l 61 0 l 61 71 l 176 85 m 472 1147 q 410 1172 433 1147 q 386 1236 386 1197 q 412 1310 386 1281 q 485 1339 438 1339 q 551 1313 526 1339 q 576 1250 576 1288 q 550 1176 576 1204 q 472 1147 524 1147 z "},"Ẹ":{"ha":906,"x_min":61,"x_max":878,"o":"m 176 85 l 176 942 l 63 958 l 63 1032 l 776 1032 l 796 813 l 713 813 l 672 949 l 335 958 l 335 569 l 560 574 l 579 689 l 658 689 l 658 367 l 579 367 l 560 486 l 335 489 l 335 81 l 717 94 l 792 269 l 878 244 l 838 0 l 61 0 l 61 71 l 176 85 m 444 -257 q 390 -234 411 -257 q 368 -178 368 -211 q 392 -112 368 -139 q 456 -85 415 -85 q 514 -108 493 -85 q 535 -164 535 -132 q 512 -231 535 -206 q 446 -257 489 -257 l 444 -257 z "},"È":{"ha":906,"x_min":61,"x_max":878,"o":"m 176 85 l 176 942 l 63 958 l 63 1032 l 776 1032 l 796 813 l 713 813 l 672 949 l 335 958 l 335 569 l 560 574 l 579 689 l 658 689 l 658 367 l 579 367 l 560 486 l 335 489 l 335 81 l 717 94 l 792 269 l 878 244 l 838 0 l 61 0 l 61 71 l 176 85 m 500 1107 q 355 1183 443 1129 q 232 1282 267 1238 l 333 1363 l 556 1151 l 500 1107 z "},"Ẻ":{"ha":906,"x_min":61,"x_max":878,"o":"m 176 85 l 176 942 l 63 958 l 63 1032 l 776 1032 l 796 813 l 713 813 l 672 949 l 335 958 l 335 569 l 560 574 l 579 689 l 658 689 l 658 367 l 579 367 l 560 486 l 335 489 l 335 81 l 717 94 l 792 269 l 878 244 l 838 0 l 61 0 l 61 71 l 176 85 m 436 1119 q 408 1178 408 1160 q 419 1207 408 1196 q 450 1232 429 1218 q 478 1254 468 1244 q 493 1278 489 1264 l 493 1283 q 476 1326 493 1308 q 421 1347 458 1343 q 375 1343 381 1347 l 369 1436 q 393 1443 372 1440 q 429 1446 414 1446 q 555 1408 504 1446 q 606 1301 606 1369 q 587 1247 606 1268 q 533 1203 568 1225 q 517 1191 525 1196 q 504 1181 510 1186 q 489 1149 489 1165 q 492 1128 489 1136 l 436 1119 z "},"Ē":{"ha":907,"x_min":61,"x_max":878,"o":"m 672 1285 l 672 1182 l 278 1182 l 278 1285 l 672 1285 m 176 85 l 176 942 l 63 958 l 63 1032 l 776 1032 l 796 813 l 713 813 l 672 949 l 335 958 l 335 569 l 560 574 l 579 689 l 658 689 l 658 367 l 579 367 l 560 486 l 335 489 l 335 81 l 717 94 l 792 269 l 878 244 l 838 0 l 61 0 l 61 71 l 176 85 z "},"Ę":{"ha":907,"x_min":61,"x_max":878,"o":"m 176 942 l 63 958 l 63 1032 l 776 1032 l 796 813 l 713 813 l 672 949 l 335 958 l 335 569 l 560 574 l 579 689 l 658 689 l 658 367 l 579 367 l 560 486 l 335 489 l 335 81 l 717 94 l 792 269 l 878 244 l 838 0 l 822 0 q 734 -38 778 -10 q 663 -103 690 -67 q 635 -168 635 -139 q 663 -231 635 -210 q 735 -251 690 -251 q 835 -228 785 -251 l 835 -300 q 760 -334 806 -321 q 672 -347 715 -347 q 547 -313 596 -347 q 497 -212 497 -279 q 554 -93 497 -154 q 696 0 611 -32 l 61 0 l 61 71 l 176 85 l 176 942 z "},"Ẽ":{"ha":906,"x_min":61,"x_max":878,"o":"m 176 85 l 176 942 l 63 958 l 63 1032 l 776 1032 l 796 813 l 713 813 l 672 949 l 335 958 l 335 569 l 560 574 l 579 689 l 658 689 l 658 367 l 579 367 l 560 486 l 335 489 l 335 81 l 717 94 l 792 269 l 878 244 l 838 0 l 61 0 l 61 71 l 176 85 m 590 1143 q 522 1159 550 1143 q 458 1206 493 1175 q 406 1244 428 1232 q 358 1257 385 1257 q 294 1233 318 1257 q 251 1174 271 1210 l 190 1217 q 259 1315 207 1269 q 382 1360 311 1360 q 451 1344 424 1360 q 514 1296 479 1328 q 560 1258 540 1271 q 604 1246 579 1246 q 653 1259 633 1246 q 682 1285 674 1272 q 707 1328 690 1299 l 769 1285 q 701 1183 746 1224 q 590 1143 657 1143 z "},"F":{"ha":860,"x_min":58,"x_max":819,"o":"m 176 85 l 176 942 l 58 958 l 58 1032 l 806 1032 l 819 793 l 725 793 l 682 947 l 335 958 l 335 557 l 578 561 l 603 678 l 679 678 l 679 347 l 603 347 l 578 469 l 335 475 l 335 85 l 551 71 l 551 0 l 65 0 l 65 71 l 176 85 z "},"Ḟ":{"ha":860,"x_min":58,"x_max":819,"o":"m 176 85 l 176 942 l 58 958 l 58 1032 l 806 1032 l 819 793 l 725 793 l 682 947 l 335 958 l 335 557 l 578 561 l 603 678 l 679 678 l 679 347 l 603 347 l 578 469 l 335 475 l 335 85 l 551 71 l 551 0 l 65 0 l 65 71 l 176 85 m 460 1147 q 397 1172 421 1147 q 374 1236 374 1197 q 399 1310 374 1281 q 472 1339 425 1339 q 539 1313 514 1339 q 564 1250 564 1288 q 538 1176 564 1204 q 460 1147 511 1147 z "},"G":{"ha":1029,"x_min":57,"x_max":1003,"o":"m 540 -15 q 281 52 390 -15 q 114 237 171 119 q 57 501 57 354 q 124 794 57 672 q 311 981 192 917 q 585 1044 431 1044 q 913 1001 729 1044 l 900 757 l 793 757 l 760 925 q 695 955 740 942 q 575 968 650 968 q 401 918 476 968 q 283 770 325 868 q 242 532 242 672 q 276 295 242 401 q 380 126 310 189 q 554 63 450 63 q 676 78 619 63 q 764 119 733 93 l 764 426 l 594 440 l 594 525 l 1003 525 l 1003 440 l 924 428 l 924 56 q 821 32 894 54 q 679 -3 740 10 q 540 -15 618 -15 z "},"Ğ":{"ha":1031,"x_min":58,"x_max":1003,"o":"m 558 1115 q 383 1175 446 1115 q 321 1326 321 1235 q 322 1356 321 1346 l 403 1356 q 404 1338 403 1344 q 446 1259 410 1293 q 560 1225 482 1225 q 672 1260 636 1225 q 711 1339 707 1294 q 713 1356 713 1346 l 792 1356 q 793 1328 793 1346 q 730 1176 793 1236 q 558 1115 667 1115 m 540 -15 q 281 52 390 -15 q 115 237 172 119 q 58 501 58 354 q 126 794 58 672 q 313 981 193 917 q 586 1044 432 1044 q 914 1001 725 1044 l 900 757 l 793 757 l 760 925 q 696 955 740 942 q 576 968 651 968 q 401 918 476 968 q 283 770 325 868 q 242 532 242 672 q 276 296 242 403 q 381 126 310 189 q 554 63 451 63 q 676 78 619 63 q 764 119 732 93 l 764 426 l 594 440 l 594 525 l 1003 525 l 1003 440 l 924 428 l 924 56 q 821 32 894 54 q 679 -3 740 10 q 540 -15 618 -15 z "},"Ĝ":{"ha":1029,"x_min":57,"x_max":1003,"o":"m 507 1364 l 621 1364 l 811 1163 l 751 1121 l 564 1263 l 374 1121 l 318 1161 l 507 1364 m 540 -15 q 281 52 390 -15 q 114 237 171 119 q 57 501 57 354 q 124 794 57 672 q 311 981 192 917 q 585 1044 431 1044 q 913 1001 729 1044 l 900 757 l 793 757 l 760 925 q 695 955 740 942 q 575 968 650 968 q 401 918 476 968 q 283 770 325 868 q 242 532 242 672 q 276 295 242 401 q 380 126 310 189 q 554 63 450 63 q 676 78 619 63 q 764 119 733 93 l 764 426 l 594 440 l 594 525 l 1003 525 l 1003 440 l 924 428 l 924 56 q 821 32 894 54 q 679 -3 740 10 q 540 -15 618 -15 z "},"Ģ":{"ha":1033,"x_min":60,"x_max":1004,"o":"m 543 -15 q 283 52 393 -15 q 117 237 174 119 q 60 501 60 354 q 127 794 60 672 q 314 981 194 917 q 588 1044 433 1044 q 915 1001 726 1044 l 903 757 l 796 757 l 761 925 q 699 954 744 940 q 578 968 653 968 q 403 918 479 968 q 285 770 328 868 q 243 532 243 672 q 277 296 243 403 q 382 126 311 189 q 556 63 453 63 q 678 78 621 63 q 767 119 735 93 l 767 426 l 596 440 l 596 525 l 1004 525 l 1004 440 l 925 428 l 925 56 q 822 32 896 54 q 685 -2 750 11 q 543 -15 621 -15 m 640 -186 q 619 -278 640 -236 q 571 -347 597 -319 q 531 -378 544 -374 l 529 -378 l 479 -354 l 478 -344 q 508 -308 496 -336 q 521 -250 521 -281 q 513 -221 521 -232 q 493 -200 506 -210 q 464 -143 464 -182 q 489 -91 464 -107 q 542 -75 514 -75 l 547 -75 q 615 -104 590 -75 q 640 -186 640 -133 z "},"Ġ":{"ha":1029,"x_min":57,"x_max":1003,"o":"m 540 -15 q 281 52 390 -15 q 114 237 171 119 q 57 501 57 354 q 124 794 57 672 q 311 981 192 917 q 585 1044 431 1044 q 913 1001 729 1044 l 900 757 l 793 757 l 760 925 q 695 955 740 942 q 575 968 650 968 q 401 918 476 968 q 283 770 325 868 q 242 532 242 672 q 276 295 242 401 q 380 126 310 189 q 554 63 450 63 q 676 78 619 63 q 764 119 733 93 l 764 426 l 594 440 l 594 525 l 1003 525 l 1003 440 l 924 428 l 924 56 q 821 32 894 54 q 679 -3 740 10 q 540 -15 618 -15 m 549 1147 q 486 1172 510 1147 q 463 1236 463 1197 q 488 1310 463 1281 q 561 1339 514 1339 q 628 1313 603 1339 q 653 1250 653 1288 q 626 1176 653 1204 q 549 1147 600 1147 z "},"H":{"ha":1151,"x_min":67,"x_max":1083,"o":"m 179 85 l 179 942 l 71 958 l 71 1032 l 456 1032 l 456 958 l 338 942 l 338 574 l 814 574 l 814 942 l 703 958 l 703 1032 l 1083 1032 l 1083 958 l 974 942 l 974 85 l 1083 71 l 1083 0 l 701 0 l 701 71 l 814 85 l 814 483 l 338 483 l 338 85 l 457 71 l 457 0 l 67 0 l 67 71 l 179 85 z "},"Ħ":{"ha":1151,"x_min":35,"x_max":1124,"o":"m 179 771 l 179 942 l 68 958 l 68 1033 l 456 1033 l 456 958 l 338 942 l 338 771 l 814 771 l 814 942 l 703 958 l 703 1033 l 1085 1033 l 1085 958 l 974 942 l 974 771 l 1124 771 l 1124 697 l 974 697 l 974 86 l 1085 71 l 1085 0 l 703 0 l 703 71 l 814 88 l 814 418 l 338 418 l 338 85 l 456 71 l 456 0 l 65 0 l 65 71 l 179 85 l 179 697 l 35 697 l 35 771 l 179 771 m 814 697 l 338 697 l 338 506 l 814 506 l 814 697 z "},"Ĥ":{"ha":1151,"x_min":67,"x_max":1083,"o":"m 519 1364 l 633 1364 l 824 1163 l 764 1121 l 576 1263 l 386 1121 l 329 1161 l 519 1364 m 179 85 l 179 942 l 71 958 l 71 1032 l 456 1032 l 456 958 l 338 942 l 338 574 l 814 574 l 814 942 l 703 958 l 703 1032 l 1083 1032 l 1083 958 l 974 942 l 974 85 l 1083 71 l 1083 0 l 701 0 l 701 71 l 814 85 l 814 483 l 338 483 l 338 85 l 457 71 l 457 0 l 67 0 l 67 71 l 179 85 z "},"I":{"ha":563,"x_min":74,"x_max":489,"o":"m 201 85 l 201 942 l 74 958 l 74 1032 l 489 1032 l 489 958 l 361 942 l 361 85 l 489 69 l 489 0 l 75 0 l 75 71 l 201 85 z "},"Ĳ":{"ha":1094,"x_min":74,"x_max":1044,"o":"m 201 85 l 201 942 l 74 958 l 74 1032 l 489 1032 l 489 958 l 361 942 l 361 85 l 489 69 l 489 0 l 75 0 l 75 71 l 201 85 m 551 -189 q 660 -126 613 -171 q 732 -11 708 -81 q 754 110 749 42 q 760 319 760 179 l 760 940 l 628 958 l 628 1032 l 1044 1032 l 1044 958 l 919 942 l 919 382 q 917 156 919 232 q 903 26 914 79 q 792 -158 878 -86 q 590 -251 706 -231 l 551 -189 z "},"Í":{"ha":563,"x_min":74,"x_max":524,"o":"m 201 85 l 201 942 l 74 958 l 74 1032 l 489 1032 l 489 958 l 361 942 l 361 85 l 489 69 l 489 0 l 75 0 l 75 71 l 201 85 m 201 1151 l 422 1363 l 524 1282 q 399 1181 486 1235 q 256 1107 311 1128 l 201 1151 z "},"Ĭ":{"ha":563,"x_min":44,"x_max":517,"o":"m 283 1115 q 108 1175 171 1115 q 44 1326 44 1235 q 46 1356 44 1346 l 126 1356 q 128 1338 126 1344 q 170 1259 133 1293 q 283 1225 207 1225 q 395 1260 360 1225 q 435 1339 431 1294 q 436 1356 436 1346 l 515 1356 q 517 1328 517 1346 q 454 1176 517 1236 q 283 1115 392 1115 m 201 85 l 201 942 l 74 958 l 74 1032 l 489 1032 l 489 958 l 361 942 l 361 85 l 489 69 l 489 0 l 75 0 l 75 71 l 201 85 z "},"Î":{"ha":563,"x_min":35,"x_max":528,"o":"m 224 1364 l 338 1364 l 528 1163 l 468 1121 l 281 1263 l 90 1121 l 35 1161 l 224 1364 m 201 85 l 201 942 l 74 958 l 74 1032 l 489 1032 l 489 958 l 361 942 l 361 85 l 489 69 l 489 0 l 75 0 l 75 71 l 201 85 z "},"Ï":{"ha":563,"x_min":19,"x_max":544,"o":"m 100 1143 q 42 1169 64 1143 q 19 1232 19 1196 q 44 1307 19 1276 q 115 1338 69 1338 l 117 1338 q 180 1310 157 1338 q 203 1247 203 1283 q 177 1172 203 1201 q 101 1143 151 1143 l 100 1143 m 443 1143 q 385 1169 407 1143 q 363 1232 363 1196 q 387 1307 363 1276 q 457 1338 411 1338 l 458 1338 q 522 1311 500 1338 q 544 1247 544 1285 q 519 1172 544 1201 q 443 1143 493 1143 m 201 85 l 201 942 l 74 958 l 74 1032 l 489 1032 l 489 958 l 361 942 l 361 85 l 489 69 l 489 0 l 75 0 l 75 71 l 201 85 z "},"İ":{"ha":563,"x_min":74,"x_max":489,"o":"m 201 85 l 201 942 l 74 958 l 74 1032 l 489 1032 l 489 958 l 361 942 l 361 85 l 489 69 l 489 0 l 75 0 l 75 71 l 201 85 m 274 1147 q 211 1172 235 1147 q 188 1236 188 1197 q 213 1310 188 1281 q 286 1339 239 1339 q 353 1313 328 1339 q 378 1250 378 1288 q 351 1176 378 1204 q 274 1147 325 1147 z "},"Ị":{"ha":563,"x_min":74,"x_max":489,"o":"m 201 85 l 201 942 l 74 958 l 74 1032 l 489 1032 l 489 958 l 361 942 l 361 85 l 489 69 l 489 0 l 75 0 l 75 71 l 201 85 m 274 -257 q 219 -234 240 -257 q 197 -178 197 -211 q 221 -112 197 -139 q 285 -85 244 -85 q 343 -108 322 -85 q 364 -164 364 -132 q 341 -231 364 -206 q 275 -257 318 -257 l 274 -257 z "},"Ì":{"ha":563,"x_min":33,"x_max":489,"o":"m 201 85 l 201 942 l 74 958 l 74 1032 l 489 1032 l 489 958 l 361 942 l 361 85 l 489 69 l 489 0 l 75 0 l 75 71 l 201 85 m 301 1107 q 156 1183 244 1129 q 33 1282 68 1238 l 135 1363 l 357 1151 l 301 1107 z "},"Ỉ":{"ha":563,"x_min":74,"x_max":489,"o":"m 201 85 l 201 942 l 74 958 l 74 1032 l 489 1032 l 489 958 l 361 942 l 361 85 l 489 69 l 489 0 l 75 0 l 75 71 l 201 85 m 238 1119 q 210 1178 210 1160 q 220 1207 210 1196 q 251 1232 231 1218 q 280 1254 269 1244 q 294 1278 290 1264 l 294 1283 q 277 1326 294 1308 q 222 1347 260 1343 q 176 1343 182 1347 l 171 1436 q 194 1443 174 1440 q 231 1446 215 1446 q 356 1408 306 1446 q 407 1301 407 1369 q 388 1247 407 1268 q 335 1203 369 1225 q 319 1191 326 1196 q 306 1181 311 1186 q 290 1149 290 1165 q 293 1128 290 1136 l 238 1119 z "},"Ī":{"ha":563,"x_min":74,"x_max":489,"o":"m 481 1285 l 481 1182 l 88 1182 l 88 1285 l 481 1285 m 201 85 l 201 942 l 74 958 l 74 1032 l 489 1032 l 489 958 l 361 942 l 361 85 l 489 69 l 489 0 l 75 0 l 75 71 l 201 85 z "},"Į":{"ha":563,"x_min":74,"x_max":489,"o":"m 201 942 l 74 958 l 74 1032 l 489 1032 l 489 958 l 361 942 l 361 85 l 489 69 l 489 0 l 371 0 q 262 -76 307 -26 q 217 -168 217 -126 q 245 -231 217 -210 q 322 -251 274 -251 q 421 -228 374 -251 l 421 -300 q 347 -334 392 -321 q 258 -347 301 -347 q 131 -313 182 -347 q 81 -212 81 -279 q 136 -95 81 -157 q 268 0 192 -33 l 75 0 l 75 71 l 201 85 l 201 942 z "},"Ĩ":{"ha":563,"x_min":-8,"x_max":572,"o":"m 393 1143 q 324 1159 353 1143 q 261 1206 296 1175 q 209 1244 231 1232 q 161 1257 188 1257 q 97 1233 121 1257 q 54 1174 74 1210 l -8 1217 q 62 1315 10 1271 q 185 1360 114 1360 q 254 1344 226 1360 q 317 1296 282 1328 q 363 1258 343 1271 q 407 1246 382 1246 q 465 1265 444 1246 q 497 1303 486 1285 q 510 1328 507 1322 l 572 1285 q 504 1183 549 1224 q 393 1143 460 1143 m 201 85 l 201 942 l 74 958 l 74 1032 l 489 1032 l 489 958 l 361 942 l 361 85 l 489 69 l 489 0 l 75 0 l 75 71 l 201 85 z "},"J":{"ha":532,"x_min":-10,"x_max":482,"o":"m -10 -189 q 99 -125 50 -171 q 169 -11 147 -79 q 192 110 186 42 q 197 319 197 179 l 197 940 l 67 958 l 67 1032 l 482 1032 l 482 958 l 357 942 l 357 382 q 354 156 357 232 q 340 26 351 79 q 230 -158 315 -86 q 29 -251 144 -231 l -10 -189 z "},"Ĵ":{"ha":532,"x_min":-10,"x_max":519,"o":"m 217 1364 l 331 1364 l 519 1163 l 461 1121 l 274 1263 l 83 1121 l 26 1161 l 217 1364 m -10 -189 q 99 -125 50 -171 q 169 -11 147 -79 q 192 110 186 42 q 197 319 197 179 l 197 940 l 67 958 l 67 1032 l 482 1032 l 482 958 l 357 942 l 357 382 q 354 156 357 232 q 340 26 351 79 q 230 -158 315 -86 q 29 -251 144 -231 l -10 -189 z "},"K":{"ha":1014,"x_min":64,"x_max":1015,"o":"m 807 0 q 747 56 783 0 q 644 232 710 113 q 548 403 585 342 q 475 504 511 465 l 338 349 l 338 85 l 463 71 l 463 0 l 64 0 l 64 71 l 179 85 l 179 942 l 67 958 l 67 1032 l 451 1032 l 451 958 l 338 942 l 338 463 l 738 942 l 621 958 l 621 1032 l 971 1032 l 971 960 l 861 942 l 568 613 q 669 493 617 571 q 804 285 722 415 q 900 136 868 182 q 950 86 932 90 l 1015 71 l 1015 0 l 807 0 z "},"Ķ":{"ha":1014,"x_min":64,"x_max":1015,"o":"m 807 0 q 747 56 783 0 q 644 232 710 113 q 548 403 585 342 q 475 504 511 465 l 338 349 l 338 85 l 463 71 l 463 0 l 64 0 l 64 71 l 179 85 l 179 942 l 67 958 l 67 1032 l 451 1032 l 451 958 l 338 942 l 338 463 l 738 942 l 621 958 l 621 1032 l 971 1032 l 971 960 l 861 942 l 568 613 q 669 493 617 571 q 804 285 722 415 q 900 136 868 182 q 950 86 932 90 l 1015 71 l 1015 0 l 807 0 m 639 -186 q 618 -278 639 -236 q 571 -347 597 -319 q 531 -378 544 -374 l 528 -378 l 478 -354 l 478 -344 q 508 -308 496 -336 q 519 -250 519 -281 q 512 -221 519 -232 q 492 -200 504 -210 q 463 -143 463 -179 q 488 -91 463 -107 q 540 -75 514 -75 l 546 -75 q 614 -104 589 -75 q 639 -186 639 -133 z "},"L":{"ha":882,"x_min":65,"x_max":857,"o":"m 179 85 l 179 942 l 67 958 l 67 1032 l 475 1032 l 475 958 l 339 942 l 339 85 l 685 97 l 768 336 l 857 322 l 810 0 l 65 0 l 65 71 l 179 85 z "},"Ĺ":{"ha":882,"x_min":65,"x_max":857,"o":"m 179 85 l 179 942 l 67 958 l 67 1032 l 475 1032 l 475 958 l 339 942 l 339 85 l 685 97 l 768 336 l 857 322 l 810 0 l 65 0 l 65 71 l 179 85 m 175 1151 l 396 1363 l 497 1282 q 372 1181 460 1235 q 229 1107 285 1128 l 175 1151 z "},"Ľ":{"ha":882,"x_min":65,"x_max":857,"o":"m 632 729 q 657 914 657 808 q 645 1024 657 974 q 621 1092 633 1074 l 628 1117 l 740 1142 q 769 1075 758 1122 q 781 972 781 1028 q 756 803 781 883 q 700 692 731 722 l 635 713 l 632 729 m 179 85 l 179 942 l 67 958 l 67 1032 l 475 1032 l 475 958 l 339 942 l 339 85 l 685 97 l 768 336 l 857 322 l 810 0 l 65 0 l 65 71 l 179 85 z "},"Ļ":{"ha":879,"x_min":65,"x_max":857,"o":"m 179 85 l 179 942 l 67 958 l 67 1032 l 475 1032 l 475 958 l 339 942 l 339 85 l 685 97 l 768 336 l 857 322 l 810 0 l 65 0 l 65 71 l 179 85 m 572 -186 q 551 -278 572 -236 q 503 -347 529 -319 q 463 -378 476 -374 l 461 -378 l 411 -354 l 410 -344 q 440 -308 428 -336 q 453 -250 453 -281 q 445 -221 453 -232 q 424 -200 438 -210 q 396 -143 396 -181 q 421 -91 396 -107 q 474 -75 446 -75 l 478 -75 q 547 -104 521 -75 q 572 -186 572 -133 z "},"Ŀ":{"ha":897,"x_min":65,"x_max":857,"o":"m 179 85 l 179 942 l 67 958 l 67 1032 l 475 1032 l 475 958 l 339 942 l 339 85 l 685 97 l 768 336 l 857 322 l 810 0 l 65 0 l 65 71 l 179 85 m 679 485 q 615 510 642 485 q 588 576 588 536 q 619 651 588 621 q 696 681 651 681 q 765 653 740 681 q 789 589 789 626 q 757 513 789 542 q 679 485 725 485 z "},"Ł":{"ha":882,"x_min":33,"x_max":857,"o":"m 179 501 l 179 942 l 67 958 l 67 1032 l 475 1032 l 475 958 l 339 942 l 339 567 l 608 685 l 608 597 l 339 482 l 339 85 l 685 97 l 768 336 l 857 322 l 810 0 l 65 0 l 65 71 l 179 85 l 179 418 l 33 357 l 33 439 l 179 501 z "},"M":{"ha":1397,"x_min":1,"x_max":1399,"o":"m 121 85 l 225 942 l 75 958 l 75 1032 l 449 1032 l 660 413 l 704 239 l 740 413 l 918 1032 l 1293 1032 l 1293 958 l 1138 942 l 1278 86 l 1399 71 l 1399 0 l 989 0 l 989 71 l 1114 85 l 1025 706 l 992 971 l 939 775 l 731 46 l 633 46 l 390 713 l 314 972 l 288 706 l 232 85 l 371 71 l 371 0 l 1 0 l 1 71 l 121 85 z "},"Ṁ":{"ha":1397,"x_min":1,"x_max":1399,"o":"m 121 85 l 225 942 l 75 958 l 75 1032 l 449 1032 l 660 413 l 704 239 l 740 413 l 918 1032 l 1293 1032 l 1293 958 l 1138 942 l 1278 86 l 1399 71 l 1399 0 l 989 0 l 989 71 l 1114 85 l 1025 706 l 992 971 l 939 775 l 731 46 l 633 46 l 390 713 l 314 972 l 288 706 l 232 85 l 371 71 l 371 0 l 1 0 l 1 71 l 121 85 m 690 1147 q 628 1172 651 1147 q 604 1236 604 1197 q 630 1310 604 1281 q 703 1339 656 1339 q 769 1313 744 1339 q 794 1250 794 1288 q 768 1176 794 1204 q 690 1147 742 1147 z "},"N":{"ha":1111,"x_min":67,"x_max":1078,"o":"m 178 86 l 178 942 l 67 958 l 67 1032 l 336 1032 l 789 364 l 867 215 l 867 942 l 747 958 l 747 1032 l 1078 1032 l 1078 958 l 967 942 l 967 0 l 846 0 l 382 686 l 276 869 l 276 85 l 410 71 l 410 0 l 67 0 l 67 71 l 178 86 z "},"Ń":{"ha":1111,"x_min":67,"x_max":1078,"o":"m 178 86 l 178 942 l 67 958 l 67 1032 l 336 1032 l 789 364 l 867 215 l 867 942 l 747 958 l 747 1032 l 1078 1032 l 1078 958 l 967 942 l 967 0 l 846 0 l 382 686 l 276 869 l 276 85 l 410 71 l 410 0 l 67 0 l 67 71 l 178 86 m 493 1151 l 714 1363 l 815 1282 q 690 1181 778 1235 q 547 1107 603 1128 l 493 1151 z "},"Ň":{"ha":1114,"x_min":67,"x_max":1078,"o":"m 407 1364 l 583 1231 l 765 1364 l 821 1324 l 640 1133 l 525 1133 l 347 1322 l 407 1364 m 178 86 l 178 942 l 67 958 l 67 1032 l 336 1032 l 789 364 l 867 215 l 867 942 l 747 958 l 747 1032 l 1078 1032 l 1078 958 l 967 942 l 967 0 l 846 0 l 382 686 l 276 869 l 276 85 l 410 71 l 410 0 l 67 0 l 67 71 l 178 86 z "},"Ņ":{"ha":1114,"x_min":67,"x_max":1078,"o":"m 178 86 l 178 942 l 67 958 l 67 1032 l 336 1032 l 789 364 l 867 215 l 867 942 l 747 958 l 747 1032 l 1078 1032 l 1078 958 l 967 942 l 967 0 l 846 0 l 382 686 l 276 869 l 276 85 l 410 71 l 410 0 l 67 0 l 67 71 l 178 86 m 679 -186 q 658 -278 679 -236 q 611 -347 638 -319 q 571 -378 585 -374 l 568 -378 l 518 -354 l 518 -344 q 548 -308 536 -336 q 560 -250 560 -281 q 552 -221 560 -232 q 532 -200 544 -210 q 504 -143 504 -181 q 529 -91 504 -107 q 581 -75 554 -75 l 586 -75 q 654 -104 629 -75 q 679 -186 679 -133 z "},"Ŋ":{"ha":1096,"x_min":67,"x_max":1082,"o":"m 181 946 l 67 965 l 67 1032 l 339 1032 l 768 364 l 869 178 l 869 942 l 749 960 l 749 1032 l 1082 1032 l 1082 960 l 968 942 l 968 250 q 953 69 968 140 q 917 -43 939 -3 q 865 -119 896 -83 q 748 -211 810 -181 q 614 -250 686 -242 l 578 -193 q 779 -60 713 -160 q 814 11 803 -22 l 375 693 l 279 871 l 279 85 l 408 69 l 408 0 l 67 0 l 67 69 l 181 85 l 181 946 z "},"Ñ":{"ha":1114,"x_min":67,"x_max":1078,"o":"m 672 1143 q 603 1159 632 1143 q 540 1206 575 1175 q 488 1244 510 1232 q 440 1257 467 1257 q 377 1233 400 1257 q 335 1174 354 1210 l 272 1217 q 342 1315 289 1269 q 465 1360 394 1360 q 533 1344 506 1360 q 596 1296 561 1328 q 642 1258 622 1271 q 688 1246 663 1246 q 746 1265 725 1246 q 777 1303 767 1285 q 790 1328 788 1322 l 851 1285 q 784 1183 829 1224 q 672 1143 739 1143 m 178 86 l 178 942 l 67 958 l 67 1032 l 336 1032 l 789 364 l 867 215 l 867 942 l 747 958 l 747 1032 l 1078 1032 l 1078 958 l 967 942 l 967 0 l 846 0 l 382 686 l 276 869 l 276 85 l 410 71 l 410 0 l 67 0 l 67 71 l 178 86 z "},"O":{"ha":1004,"x_min":46,"x_max":960,"o":"m 486 -15 q 244 51 343 -15 q 95 235 144 117 q 46 511 46 353 q 106 792 46 671 q 274 979 167 914 q 515 1044 381 1044 q 847 906 733 1043 q 960 528 960 768 q 899 243 960 367 q 729 52 838 119 q 486 -15 621 -15 m 504 969 q 298 853 374 969 q 222 511 222 736 q 295 180 222 300 q 500 60 368 60 q 706 180 631 60 q 782 528 782 300 q 709 853 782 738 q 504 969 636 969 z "},"Ó":{"ha":1004,"x_min":46,"x_max":960,"o":"m 486 -15 q 244 51 343 -15 q 95 235 144 117 q 46 511 46 353 q 106 792 46 671 q 274 979 167 914 q 515 1044 381 1044 q 847 906 733 1043 q 960 528 960 768 q 899 243 960 367 q 729 52 838 119 q 486 -15 621 -15 m 504 969 q 298 853 374 969 q 222 511 222 736 q 295 180 222 300 q 500 60 368 60 q 706 180 631 60 q 782 528 782 300 q 709 853 782 738 q 504 969 636 969 m 422 1151 l 643 1363 l 744 1282 q 619 1181 707 1235 q 476 1107 532 1128 l 422 1151 z "},"Ŏ":{"ha":1007,"x_min":47,"x_max":960,"o":"m 508 1115 q 332 1175 394 1115 q 269 1326 269 1235 q 271 1356 269 1346 l 351 1356 q 353 1338 351 1344 q 395 1259 358 1293 q 508 1225 432 1225 q 620 1260 585 1225 q 660 1339 656 1294 q 661 1356 661 1346 l 740 1356 q 742 1328 742 1346 q 714 1220 742 1268 q 633 1144 686 1172 q 508 1115 581 1115 m 488 -15 q 245 51 344 -15 q 97 235 146 117 q 47 511 47 353 q 108 792 47 671 q 274 979 168 914 q 515 1044 381 1044 q 847 906 733 1043 q 960 528 960 768 q 899 243 960 367 q 730 52 838 119 q 488 -15 622 -15 m 504 969 q 298 853 374 969 q 222 511 222 736 q 296 180 222 300 q 501 60 369 60 q 707 180 632 60 q 782 528 782 300 q 710 854 782 739 q 504 969 638 969 z "},"Ô":{"ha":1004,"x_min":46,"x_max":960,"o":"m 447 1364 l 563 1364 l 751 1163 l 692 1121 l 506 1263 l 315 1121 l 258 1161 l 447 1364 m 486 -15 q 244 51 343 -15 q 95 235 144 117 q 46 511 46 353 q 106 792 46 671 q 274 979 167 914 q 515 1044 381 1044 q 847 906 733 1043 q 960 528 960 768 q 899 243 960 367 q 729 52 838 119 q 486 -15 621 -15 m 504 969 q 298 853 374 969 q 222 511 222 736 q 295 180 222 300 q 500 60 368 60 q 706 180 631 60 q 782 528 782 300 q 709 853 782 738 q 504 969 636 969 z "},"Ố":{"ha":1004,"x_min":46,"x_max":1008,"o":"m 486 -15 q 244 51 343 -15 q 95 235 144 117 q 46 511 46 353 q 106 792 46 671 q 274 979 167 914 q 515 1044 381 1044 q 847 906 733 1043 q 960 528 960 768 q 899 243 960 367 q 729 52 838 119 q 486 -15 621 -15 m 504 969 q 298 853 374 969 q 222 511 222 736 q 295 180 222 300 q 500 60 368 60 q 706 180 631 60 q 782 528 782 300 q 709 853 782 738 q 504 969 636 969 m 444 1364 l 558 1364 l 749 1163 l 689 1121 l 501 1263 l 311 1121 l 256 1161 l 444 1364 m 686 1325 l 907 1536 l 1008 1456 q 883 1355 971 1408 q 740 1281 796 1301 l 686 1325 z "},"Ộ":{"ha":1004,"x_min":46,"x_max":960,"o":"m 486 -15 q 244 51 343 -15 q 95 235 144 117 q 46 511 46 353 q 106 792 46 671 q 274 979 167 914 q 515 1044 381 1044 q 847 906 733 1043 q 960 528 960 768 q 899 243 960 367 q 729 52 838 119 q 486 -15 621 -15 m 504 969 q 298 853 374 969 q 222 511 222 736 q 295 180 222 300 q 500 60 368 60 q 706 180 631 60 q 782 528 782 300 q 709 853 782 738 q 504 969 636 969 m 494 -257 q 440 -234 461 -257 q 418 -178 418 -211 q 442 -112 418 -139 q 506 -85 465 -85 q 564 -108 543 -85 q 585 -164 585 -132 q 562 -231 585 -206 q 496 -257 539 -257 l 494 -257 m 446 1354 l 560 1354 l 750 1153 l 690 1111 l 503 1253 l 313 1111 l 257 1151 l 446 1354 z "},"Ồ":{"ha":1004,"x_min":46,"x_max":960,"o":"m 486 -15 q 244 51 343 -15 q 95 235 144 117 q 46 511 46 353 q 106 792 46 671 q 274 979 167 914 q 515 1044 381 1044 q 847 906 733 1043 q 960 528 960 768 q 899 243 960 367 q 729 52 838 119 q 486 -15 621 -15 m 504 969 q 298 853 374 969 q 222 511 222 736 q 295 180 222 300 q 500 60 368 60 q 706 180 631 60 q 782 528 782 300 q 709 853 782 738 q 504 969 636 969 m 446 1364 l 560 1364 l 750 1163 l 690 1121 l 503 1263 l 313 1121 l 257 1161 l 446 1364 m 735 1332 q 590 1408 678 1354 q 467 1507 501 1463 l 568 1588 l 790 1376 l 735 1332 z "},"Ổ":{"ha":1004,"x_min":46,"x_max":960,"o":"m 486 -15 q 244 51 343 -15 q 95 235 144 117 q 46 511 46 353 q 106 792 46 671 q 274 979 167 914 q 515 1044 381 1044 q 847 906 733 1043 q 960 528 960 768 q 899 243 960 367 q 729 52 838 119 q 486 -15 621 -15 m 504 969 q 298 853 374 969 q 222 511 222 736 q 295 180 222 300 q 500 60 368 60 q 706 180 631 60 q 782 528 782 300 q 709 853 782 738 q 504 969 636 969 m 444 1364 l 558 1364 l 749 1163 l 689 1121 l 501 1263 l 311 1121 l 256 1161 l 444 1364 m 725 1269 q 697 1328 697 1310 q 708 1357 697 1346 q 739 1382 718 1368 q 767 1404 757 1394 q 782 1428 778 1414 l 782 1433 q 765 1476 782 1458 q 710 1497 747 1493 q 664 1493 669 1497 l 658 1586 q 682 1593 661 1590 q 718 1596 703 1596 q 844 1558 793 1596 q 894 1451 894 1519 q 876 1397 894 1418 q 822 1353 857 1375 q 806 1341 814 1346 q 793 1331 799 1336 q 778 1299 778 1315 q 781 1278 778 1286 l 725 1269 z "},"Ỗ":{"ha":1004,"x_min":46,"x_max":960,"o":"m 486 -15 q 244 51 343 -15 q 95 235 144 117 q 46 511 46 353 q 106 792 46 671 q 274 979 167 914 q 515 1044 381 1044 q 847 906 733 1043 q 960 528 960 768 q 899 243 960 367 q 729 52 838 119 q 486 -15 621 -15 m 504 969 q 298 853 374 969 q 222 511 222 736 q 295 180 222 300 q 500 60 368 60 q 706 180 631 60 q 782 528 782 300 q 709 853 782 738 q 504 969 636 969 m 446 1364 l 560 1364 l 750 1163 l 690 1121 l 503 1263 l 313 1121 l 257 1161 l 446 1364 m 664 1400 q 595 1416 624 1400 q 532 1463 567 1432 q 480 1501 501 1489 q 432 1514 458 1514 q 368 1490 392 1514 q 325 1431 344 1467 l 264 1474 q 333 1572 281 1526 q 456 1617 385 1617 q 525 1601 497 1617 q 588 1553 553 1585 q 633 1515 614 1528 q 678 1503 653 1503 q 727 1516 707 1503 q 756 1542 747 1529 q 781 1585 764 1556 l 843 1542 q 775 1440 819 1481 q 664 1400 731 1400 z "},"Ö":{"ha":1007,"x_min":47,"x_max":960,"o":"m 325 1143 q 267 1169 289 1143 q 244 1232 244 1196 q 269 1307 244 1276 q 339 1338 293 1338 l 340 1338 q 404 1310 381 1338 q 428 1247 428 1283 q 402 1172 428 1201 q 326 1143 376 1143 l 325 1143 m 667 1143 q 609 1169 632 1143 q 586 1232 586 1196 q 610 1307 586 1276 q 681 1338 635 1338 l 682 1338 q 746 1311 724 1338 q 768 1247 768 1285 q 742 1172 768 1201 q 667 1143 717 1143 m 488 -15 q 245 51 344 -15 q 97 235 146 117 q 47 511 47 353 q 108 792 47 671 q 274 979 168 914 q 515 1044 381 1044 q 847 906 733 1043 q 960 528 960 768 q 899 243 960 367 q 730 52 838 119 q 488 -15 622 -15 m 504 969 q 298 853 374 969 q 222 511 222 736 q 296 180 222 300 q 501 60 369 60 q 707 180 632 60 q 782 528 782 300 q 710 854 782 739 q 504 969 638 969 z "},"Ọ":{"ha":1004,"x_min":46,"x_max":960,"o":"m 486 -15 q 244 51 343 -15 q 95 235 144 117 q 46 511 46 353 q 106 792 46 671 q 274 979 167 914 q 515 1044 381 1044 q 847 906 733 1043 q 960 528 960 768 q 899 243 960 367 q 729 52 838 119 q 486 -15 621 -15 m 504 969 q 298 853 374 969 q 222 511 222 736 q 295 180 222 300 q 500 60 368 60 q 706 180 631 60 q 782 528 782 300 q 709 853 782 738 q 504 969 636 969 m 494 -257 q 440 -234 461 -257 q 418 -178 418 -211 q 442 -112 418 -139 q 506 -85 465 -85 q 564 -108 543 -85 q 585 -164 585 -132 q 562 -231 585 -206 q 496 -257 539 -257 l 494 -257 z "},"Ò":{"ha":1004,"x_min":46,"x_max":960,"o":"m 486 -15 q 244 51 343 -15 q 95 235 144 117 q 46 511 46 353 q 106 792 46 671 q 274 979 167 914 q 515 1044 381 1044 q 847 906 733 1043 q 960 528 960 768 q 899 243 960 367 q 729 52 838 119 q 486 -15 621 -15 m 504 969 q 298 853 374 969 q 222 511 222 736 q 295 180 222 300 q 500 60 368 60 q 706 180 631 60 q 782 528 782 300 q 709 853 782 738 q 504 969 636 969 m 522 1107 q 377 1183 465 1129 q 254 1282 289 1238 l 356 1363 l 578 1151 l 522 1107 z "},"Ỏ":{"ha":1004,"x_min":46,"x_max":960,"o":"m 486 -15 q 244 51 343 -15 q 95 235 144 117 q 46 511 46 353 q 106 792 46 671 q 274 979 167 914 q 515 1044 381 1044 q 847 906 733 1043 q 960 528 960 768 q 899 243 960 367 q 729 52 838 119 q 486 -15 621 -15 m 504 969 q 298 853 374 969 q 222 511 222 736 q 295 180 222 300 q 500 60 368 60 q 706 180 631 60 q 782 528 782 300 q 709 853 782 738 q 504 969 636 969 m 458 1119 q 431 1178 431 1160 q 441 1207 431 1196 q 472 1232 451 1218 q 501 1254 490 1244 q 515 1278 511 1264 l 515 1283 q 498 1326 515 1308 q 443 1347 481 1343 q 397 1343 403 1347 l 392 1436 q 415 1443 394 1440 q 451 1446 436 1446 q 577 1408 526 1446 q 628 1301 628 1369 q 609 1247 628 1268 q 556 1203 590 1225 q 540 1191 547 1196 q 526 1181 532 1186 q 511 1149 511 1165 q 514 1128 511 1136 l 458 1119 z "},"Ơ":{"ha":1004,"x_min":46,"x_max":960,"o":"m 771 974 q 913 797 865 911 q 960 528 960 683 q 899 243 960 367 q 729 52 838 119 q 486 -15 621 -15 q 244 51 343 -15 q 95 235 144 117 q 46 511 46 353 q 106 792 46 671 q 274 979 167 914 q 515 1044 381 1044 q 632 1032 578 1044 q 738 1081 704 1035 q 779 1186 771 1128 q 781 1210 782 1204 l 894 1210 q 897 1179 897 1188 q 863 1061 897 1115 q 771 974 828 1007 m 500 60 q 706 180 631 60 q 782 528 782 300 q 744 781 782 678 q 635 932 706 885 l 625 932 l 625 938 q 504 969 572 969 q 298 853 374 969 q 222 511 222 736 q 295 180 222 300 q 500 60 368 60 z "},"Ớ":{"ha":1004,"x_min":46,"x_max":960,"o":"m 771 974 q 913 797 865 911 q 960 528 960 683 q 899 243 960 367 q 729 52 838 119 q 486 -15 621 -15 q 244 51 343 -15 q 95 235 144 117 q 46 511 46 353 q 106 792 46 671 q 274 979 167 914 q 515 1044 381 1044 q 632 1032 578 1044 q 738 1081 704 1035 q 779 1186 771 1128 q 781 1210 782 1204 l 894 1210 q 897 1179 897 1188 q 863 1061 897 1115 q 771 974 828 1007 m 500 60 q 706 180 631 60 q 782 528 782 300 q 744 781 782 678 q 635 932 706 885 l 625 932 l 625 938 q 504 969 572 969 q 298 853 374 969 q 222 511 222 736 q 295 180 222 300 q 500 60 368 60 m 422 1151 l 643 1363 l 744 1282 q 619 1181 707 1235 q 476 1107 532 1128 l 422 1151 z "},"Ợ":{"ha":1004,"x_min":46,"x_max":960,"o":"m 771 974 q 913 797 865 911 q 960 528 960 683 q 899 243 960 367 q 729 52 838 119 q 486 -15 621 -15 q 244 51 343 -15 q 95 235 144 117 q 46 511 46 353 q 106 792 46 671 q 274 979 167 914 q 515 1044 381 1044 q 632 1032 578 1044 q 738 1081 704 1035 q 779 1186 771 1128 q 781 1210 782 1204 l 894 1210 q 897 1179 897 1188 q 863 1061 897 1115 q 771 974 828 1007 m 500 60 q 706 180 631 60 q 782 528 782 300 q 744 781 782 678 q 635 932 706 885 l 625 932 l 625 938 q 504 969 572 969 q 298 853 374 969 q 222 511 222 736 q 295 180 222 300 q 500 60 368 60 m 494 -257 q 440 -234 461 -257 q 418 -178 418 -211 q 442 -112 418 -139 q 506 -85 465 -85 q 564 -108 543 -85 q 585 -164 585 -132 q 562 -231 585 -206 q 496 -257 539 -257 l 494 -257 z "},"Ờ":{"ha":1004,"x_min":46,"x_max":960,"o":"m 771 974 q 913 797 865 911 q 960 528 960 683 q 899 243 960 367 q 729 52 838 119 q 486 -15 621 -15 q 244 51 343 -15 q 95 235 144 117 q 46 511 46 353 q 106 792 46 671 q 274 979 167 914 q 515 1044 381 1044 q 632 1032 578 1044 q 738 1081 704 1035 q 779 1186 771 1128 q 781 1210 782 1204 l 894 1210 q 897 1179 897 1188 q 863 1061 897 1115 q 771 974 828 1007 m 500 60 q 706 180 631 60 q 782 528 782 300 q 744 781 782 678 q 635 932 706 885 l 625 932 l 625 938 q 504 969 572 969 q 298 853 374 969 q 222 511 222 736 q 295 180 222 300 q 500 60 368 60 m 522 1107 q 377 1183 465 1129 q 254 1282 289 1238 l 356 1363 l 578 1151 l 522 1107 z "},"Ở":{"ha":1004,"x_min":46,"x_max":960,"o":"m 771 974 q 913 797 865 911 q 960 528 960 683 q 899 243 960 367 q 729 52 838 119 q 486 -15 621 -15 q 244 51 343 -15 q 95 235 144 117 q 46 511 46 353 q 106 792 46 671 q 274 979 167 914 q 515 1044 381 1044 q 632 1032 578 1044 q 738 1081 704 1035 q 779 1186 771 1128 q 781 1210 782 1204 l 894 1210 q 897 1179 897 1188 q 863 1061 897 1115 q 771 974 828 1007 m 500 60 q 706 180 631 60 q 782 528 782 300 q 744 781 782 678 q 635 932 706 885 l 625 932 l 625 938 q 504 969 572 969 q 298 853 374 969 q 222 511 222 736 q 295 180 222 300 q 500 60 368 60 m 458 1119 q 431 1178 431 1160 q 441 1207 431 1196 q 472 1232 451 1218 q 501 1254 490 1244 q 515 1278 511 1264 l 515 1283 q 498 1326 515 1308 q 443 1347 481 1343 q 397 1343 403 1347 l 392 1436 q 415 1443 394 1440 q 451 1446 436 1446 q 577 1408 526 1446 q 628 1301 628 1369 q 609 1247 628 1268 q 556 1203 590 1225 q 540 1191 547 1196 q 526 1181 532 1186 q 511 1149 511 1165 q 514 1128 511 1136 l 458 1119 z "},"Ỡ":{"ha":1004,"x_min":46,"x_max":960,"o":"m 771 974 q 913 797 865 911 q 960 528 960 683 q 899 243 960 367 q 729 52 838 119 q 486 -15 621 -15 q 244 51 343 -15 q 95 235 144 117 q 46 511 46 353 q 106 792 46 671 q 274 979 167 914 q 515 1044 381 1044 q 632 1032 578 1044 q 738 1081 704 1035 q 779 1186 771 1128 q 781 1210 782 1204 l 894 1210 q 897 1179 897 1188 q 863 1061 897 1115 q 771 974 828 1007 m 500 60 q 706 180 631 60 q 782 528 782 300 q 744 781 782 678 q 635 932 706 885 l 625 932 l 625 938 q 504 969 572 969 q 298 853 374 969 q 222 511 222 736 q 295 180 222 300 q 500 60 368 60 m 613 1143 q 544 1159 572 1143 q 481 1206 515 1175 q 428 1244 450 1232 q 381 1257 407 1257 q 317 1233 340 1257 q 274 1174 293 1210 l 213 1217 q 281 1315 229 1269 q 404 1360 333 1360 q 474 1344 446 1360 q 536 1296 501 1328 q 582 1258 563 1271 q 626 1246 601 1246 q 676 1259 656 1246 q 704 1285 696 1272 q 729 1328 713 1299 l 792 1285 q 724 1183 768 1224 q 613 1143 679 1143 z "},"Ő":{"ha":1004,"x_min":46,"x_max":960,"o":"m 531 1290 q 426 1192 488 1240 q 310 1111 364 1143 l 247 1164 l 435 1364 l 531 1290 m 881 1288 q 776 1191 842 1242 q 657 1111 711 1140 l 593 1165 l 793 1363 l 881 1288 m 486 -15 q 244 51 343 -15 q 95 235 144 117 q 46 511 46 353 q 106 792 46 671 q 274 979 167 914 q 515 1044 381 1044 q 847 906 733 1043 q 960 528 960 768 q 899 243 960 367 q 729 52 838 119 q 486 -15 621 -15 m 504 969 q 298 853 374 969 q 222 511 222 736 q 295 180 222 300 q 500 60 368 60 q 706 180 631 60 q 782 528 782 300 q 709 853 782 738 q 504 969 636 969 z "},"Ō":{"ha":1007,"x_min":47,"x_max":960,"o":"m 706 1285 l 706 1182 l 311 1182 l 311 1285 l 706 1285 m 488 -15 q 245 51 344 -15 q 97 235 146 117 q 47 511 47 353 q 108 792 47 671 q 274 979 168 914 q 515 1044 381 1044 q 847 906 733 1043 q 960 528 960 768 q 899 243 960 367 q 730 52 838 119 q 488 -15 622 -15 m 504 969 q 298 853 374 969 q 222 511 222 736 q 296 180 222 300 q 501 60 369 60 q 707 180 632 60 q 782 528 782 300 q 710 854 782 739 q 504 969 638 969 z "},"Ø":{"ha":1006,"x_min":46,"x_max":960,"o":"m 275 32 q 104 216 163 92 q 46 511 46 340 q 106 792 46 671 q 274 978 167 913 q 515 1044 381 1044 q 663 1024 589 1044 l 719 1167 l 789 1144 l 731 997 q 902 819 844 940 q 960 528 960 699 q 900 245 960 368 q 734 54 840 122 q 494 -15 628 -14 q 344 4 413 -17 l 281 -146 l 208 -124 l 275 32 m 506 969 q 298 853 374 969 q 222 511 222 736 q 250 299 222 392 q 332 151 278 206 l 628 933 q 506 969 575 969 m 783 528 q 755 735 783 644 q 674 882 726 826 l 376 100 q 501 60 432 60 q 707 181 631 60 q 783 528 783 301 z "},"Õ":{"ha":1007,"x_min":47,"x_max":960,"o":"m 618 1143 q 549 1159 578 1143 q 483 1207 521 1175 q 433 1244 454 1232 q 386 1257 413 1257 q 322 1233 346 1257 q 279 1174 299 1210 l 217 1217 q 286 1315 233 1269 q 410 1360 339 1360 q 478 1344 450 1360 q 540 1296 506 1328 q 587 1258 567 1271 q 632 1246 607 1246 q 690 1265 669 1246 q 722 1303 711 1285 q 735 1328 732 1322 l 796 1285 q 728 1183 774 1224 q 618 1143 683 1143 m 488 -15 q 245 51 344 -15 q 97 235 146 117 q 47 511 47 353 q 108 792 47 671 q 274 979 168 914 q 515 1044 381 1044 q 847 906 733 1043 q 960 528 960 768 q 899 243 960 367 q 730 52 838 119 q 488 -15 622 -15 m 504 969 q 298 853 374 969 q 222 511 222 736 q 296 180 222 300 q 501 60 369 60 q 707 180 632 60 q 782 528 782 300 q 710 854 782 739 q 504 969 638 969 z "},"Œ":{"ha":1433,"x_min":46,"x_max":1406,"o":"m 689 39 q 489 -11 597 -11 q 248 54 347 -11 q 97 238 149 119 q 46 511 46 356 q 106 792 46 671 q 274 981 167 914 q 517 1049 381 1047 q 689 1015 617 1049 l 689 1032 l 1290 1032 l 1310 810 l 1228 810 l 1186 946 l 849 957 l 849 571 l 1075 575 l 1094 689 l 1176 689 l 1176 367 l 1094 367 l 1075 486 l 849 490 l 849 78 l 1236 94 l 1322 268 l 1406 244 l 1354 0 l 689 0 l 689 39 m 506 63 q 689 171 621 63 l 689 883 q 615 952 660 931 q 507 974 571 974 q 297 854 374 974 q 219 513 219 735 q 253 277 219 379 q 352 119 288 175 q 506 63 417 63 z "},"P":{"ha":904,"x_min":65,"x_max":871,"o":"m 179 942 l 71 958 l 71 1032 l 261 1032 q 354 1036 308 1032 q 500 1040 432 1042 q 788 967 704 1040 q 871 743 871 893 q 820 549 871 631 q 678 424 769 467 q 467 381 586 381 q 392 382 428 381 q 339 385 357 383 l 339 86 l 528 71 l 528 0 l 65 0 l 65 71 l 179 85 l 179 942 m 338 464 q 467 457 376 457 q 639 524 572 457 q 706 742 706 590 q 647 913 706 860 q 467 965 589 965 q 376 960 424 965 q 338 957 349 957 l 338 464 z "},"Ṗ":{"ha":904,"x_min":65,"x_max":871,"o":"m 179 942 l 71 958 l 71 1032 l 261 1032 q 354 1036 308 1032 q 500 1040 432 1042 q 788 967 704 1040 q 871 743 871 893 q 820 549 871 631 q 678 424 769 467 q 467 381 586 381 q 392 382 428 381 q 339 385 357 383 l 339 86 l 528 71 l 528 0 l 65 0 l 65 71 l 179 85 l 179 942 m 338 464 q 467 457 376 457 q 639 524 572 457 q 706 742 706 590 q 647 913 706 860 q 467 965 589 965 q 376 960 424 965 q 338 957 349 957 l 338 464 m 490 1147 q 428 1172 451 1147 q 404 1236 404 1197 q 430 1310 404 1281 q 503 1339 456 1339 q 569 1313 544 1339 q 594 1250 594 1288 q 568 1176 594 1204 q 490 1147 542 1147 z "},"Þ":{"ha":900,"x_min":61,"x_max":861,"o":"m 175 943 l 63 960 l 63 1033 l 454 1033 l 456 960 l 333 943 l 333 793 l 385 797 q 547 807 475 807 q 780 738 699 807 q 861 533 861 669 q 767 301 861 378 q 503 224 674 224 q 333 231 400 224 l 333 85 l 482 69 l 482 0 l 61 0 l 61 69 l 175 85 l 175 943 m 483 297 q 634 353 578 297 q 690 526 690 410 q 640 676 690 622 q 483 729 589 729 q 333 717 418 729 l 333 303 q 426 297 379 297 q 483 297 474 297 z "},"Q":{"ha":1011,"x_min":49,"x_max":1258,"o":"m 1122 -274 q 1004 -253 1060 -274 q 904 -203 949 -232 q 794 -124 860 -174 q 683 -44 728 -72 q 589 -4 638 -15 q 488 -15 538 -15 q 246 51 344 -15 q 98 235 147 117 q 49 511 49 353 q 109 792 49 671 q 276 979 169 914 q 518 1044 383 1044 q 849 906 736 1043 q 963 528 963 768 q 889 221 963 351 q 690 29 815 90 q 807 0 751 24 q 944 -69 863 -24 q 1084 -137 1029 -115 q 1196 -160 1139 -160 q 1242 -157 1222 -160 l 1258 -217 q 1122 -274 1206 -274 m 504 60 q 709 181 633 60 q 785 528 785 301 q 713 854 785 739 q 507 969 640 969 q 301 853 376 969 q 225 511 225 736 q 299 180 225 300 q 504 60 372 60 z "},"R":{"ha":982,"x_min":61,"x_max":983,"o":"m 61 71 l 176 85 l 176 943 l 68 961 l 68 1032 l 254 1032 q 312 1033 279 1032 q 361 1036 344 1035 q 469 1042 431 1042 q 764 976 676 1042 q 851 768 851 911 q 797 589 851 671 q 647 478 743 507 q 732 395 693 453 q 826 235 771 338 q 888 126 863 164 q 932 85 913 89 l 983 71 l 983 0 l 785 0 q 736 47 763 0 q 664 194 710 94 q 577 370 613 307 q 506 451 542 433 q 335 453 364 451 l 335 85 l 471 71 l 471 0 l 61 0 l 61 71 m 493 528 q 631 586 581 528 q 681 760 681 644 q 630 913 681 861 q 456 965 579 965 q 369 961 436 965 q 335 958 344 958 l 335 529 q 418 528 354 528 l 493 528 z "},"Ŕ":{"ha":982,"x_min":61,"x_max":983,"o":"m 61 71 l 176 85 l 176 943 l 68 961 l 68 1032 l 254 1032 q 312 1033 279 1032 q 361 1036 344 1035 q 469 1042 431 1042 q 764 976 676 1042 q 851 768 851 911 q 797 589 851 671 q 647 478 743 507 q 732 395 693 453 q 826 235 771 338 q 888 126 863 164 q 932 85 913 89 l 983 71 l 983 0 l 785 0 q 736 47 763 0 q 664 194 710 94 q 577 370 613 307 q 506 451 542 433 q 335 453 364 451 l 335 85 l 471 71 l 471 0 l 61 0 l 61 71 m 493 528 q 631 586 581 528 q 681 760 681 644 q 630 913 681 861 q 456 965 579 965 q 369 961 436 965 q 335 958 344 958 l 335 529 q 418 528 354 528 l 493 528 m 411 1151 l 632 1363 l 733 1282 q 608 1181 696 1235 q 465 1107 521 1128 l 411 1151 z "},"Ř":{"ha":982,"x_min":61,"x_max":983,"o":"m 61 71 l 176 85 l 176 943 l 68 961 l 68 1032 l 254 1032 q 312 1033 279 1032 q 361 1036 344 1035 q 469 1042 431 1042 q 764 976 676 1042 q 851 768 851 911 q 797 589 851 671 q 647 478 743 507 q 732 395 693 453 q 826 235 771 338 q 888 126 863 164 q 932 85 913 89 l 983 71 l 983 0 l 785 0 q 736 47 763 0 q 664 194 710 94 q 577 370 613 307 q 506 451 542 433 q 335 453 364 451 l 335 85 l 471 71 l 471 0 l 61 0 l 61 71 m 493 528 q 631 586 581 528 q 681 760 681 644 q 630 913 681 861 q 456 965 579 965 q 369 961 436 965 q 335 958 344 958 l 335 529 q 418 528 354 528 l 493 528 m 313 1364 l 489 1231 l 672 1364 l 728 1324 l 547 1133 l 432 1133 l 253 1322 l 313 1364 z "},"Ŗ":{"ha":982,"x_min":61,"x_max":983,"o":"m 61 71 l 176 85 l 176 943 l 68 961 l 68 1032 l 254 1032 q 312 1033 279 1032 q 361 1036 344 1035 q 469 1042 431 1042 q 764 976 676 1042 q 851 768 851 911 q 797 589 851 671 q 647 478 743 507 q 732 395 693 453 q 826 235 771 338 q 888 126 863 164 q 932 85 913 89 l 983 71 l 983 0 l 785 0 q 736 47 763 0 q 664 194 710 94 q 577 370 613 307 q 506 451 542 433 q 335 453 364 451 l 335 85 l 471 71 l 471 0 l 61 0 l 61 71 m 493 528 q 631 586 581 528 q 681 760 681 644 q 630 913 681 861 q 456 965 579 965 q 369 961 436 965 q 335 958 344 958 l 335 529 q 418 528 354 528 l 493 528 m 626 -186 q 605 -278 626 -236 q 557 -347 583 -319 q 517 -378 531 -374 l 515 -378 l 465 -354 l 464 -344 q 494 -308 482 -336 q 507 -250 507 -281 q 499 -221 507 -232 q 478 -200 492 -210 q 450 -143 450 -181 q 475 -91 450 -107 q 528 -75 500 -75 l 532 -75 q 601 -104 575 -75 q 626 -186 626 -133 z "},"S":{"ha":828,"x_min":85,"x_max":778,"o":"m 404 -15 q 268 -2 329 -15 q 144 32 207 11 q 85 47 101 46 l 96 299 l 189 299 l 215 119 q 288 81 236 97 q 406 64 340 64 q 561 110 508 64 q 614 238 614 156 q 584 328 614 290 q 506 394 554 367 q 371 461 457 422 q 238 531 296 494 q 138 629 181 568 q 96 775 96 690 q 137 913 96 851 q 255 1010 178 975 q 438 1044 332 1044 q 556 1034 503 1044 q 665 1007 610 1024 q 713 994 693 997 l 704 760 l 614 760 l 586 931 q 531 956 574 944 q 438 968 489 968 q 296 928 344 968 q 247 815 247 889 q 278 723 247 761 q 354 658 308 685 q 494 588 400 632 q 640 509 583 544 q 737 417 696 474 q 778 283 778 361 q 737 140 778 208 q 612 28 696 72 q 404 -15 528 -15 z "},"Ś":{"ha":828,"x_min":85,"x_max":778,"o":"m 404 -15 q 268 -2 329 -15 q 144 32 207 11 q 85 47 101 46 l 96 299 l 189 299 l 215 119 q 288 81 236 97 q 406 64 340 64 q 561 110 508 64 q 614 238 614 156 q 584 328 614 290 q 506 394 554 367 q 371 461 457 422 q 238 531 296 494 q 138 629 181 568 q 96 775 96 690 q 137 913 96 851 q 255 1010 178 975 q 438 1044 332 1044 q 556 1034 503 1044 q 665 1007 610 1024 q 713 994 693 997 l 704 760 l 614 760 l 586 931 q 531 956 574 944 q 438 968 489 968 q 296 928 344 968 q 247 815 247 889 q 278 723 247 761 q 354 658 308 685 q 494 588 400 632 q 640 509 583 544 q 737 417 696 474 q 778 283 778 361 q 737 140 778 208 q 612 28 696 72 q 404 -15 528 -15 m 375 1151 l 596 1363 l 697 1282 q 572 1181 660 1235 q 429 1107 485 1128 l 375 1151 z "},"Š":{"ha":828,"x_min":85,"x_max":778,"o":"m 267 1364 l 443 1231 l 625 1364 l 681 1324 l 500 1133 l 385 1133 l 207 1322 l 267 1364 m 404 -15 q 268 -2 329 -15 q 144 32 207 11 q 85 47 101 46 l 96 299 l 189 299 l 215 119 q 288 81 236 97 q 406 64 340 64 q 561 110 508 64 q 614 238 614 156 q 584 328 614 290 q 506 394 554 367 q 371 461 457 422 q 238 531 296 494 q 138 629 181 568 q 96 775 96 690 q 137 913 96 851 q 255 1010 178 975 q 438 1044 332 1044 q 556 1034 503 1044 q 665 1007 610 1024 q 713 994 693 997 l 704 760 l 614 760 l 586 931 q 531 956 574 944 q 438 968 489 968 q 296 928 344 968 q 247 815 247 889 q 278 723 247 761 q 354 658 308 685 q 494 588 400 632 q 640 509 583 544 q 737 417 696 474 q 778 283 778 361 q 737 140 778 208 q 612 28 696 72 q 404 -15 528 -15 z "},"Ŝ":{"ha":828,"x_min":85,"x_max":778,"o":"m 385 1364 l 499 1364 l 689 1163 l 629 1121 l 442 1263 l 251 1121 l 194 1161 l 385 1364 m 404 -15 q 268 -2 329 -15 q 144 32 207 11 q 85 47 101 46 l 96 299 l 189 299 l 215 119 q 288 81 236 97 q 406 64 340 64 q 561 110 508 64 q 614 238 614 156 q 584 328 614 290 q 506 394 554 367 q 371 461 457 422 q 238 531 296 494 q 138 629 181 568 q 96 775 96 690 q 137 913 96 851 q 255 1010 178 975 q 438 1044 332 1044 q 556 1034 503 1044 q 665 1007 610 1024 q 713 994 693 997 l 704 760 l 614 760 l 586 931 q 531 956 574 944 q 438 968 489 968 q 296 928 344 968 q 247 815 247 889 q 278 723 247 761 q 354 658 308 685 q 494 588 400 632 q 640 509 583 544 q 737 417 696 474 q 778 283 778 361 q 737 140 778 208 q 612 28 696 72 q 404 -15 528 -15 z "},"Ș":{"ha":828,"x_min":85,"x_max":778,"o":"m 404 -15 q 268 -2 329 -15 q 144 32 207 11 q 85 47 101 46 l 96 299 l 189 299 l 215 119 q 288 81 236 97 q 406 64 340 64 q 561 110 508 64 q 614 238 614 156 q 584 328 614 290 q 506 394 554 367 q 371 461 457 422 q 238 531 296 494 q 138 629 181 568 q 96 775 96 690 q 137 913 96 851 q 255 1010 178 975 q 438 1044 332 1044 q 556 1034 503 1044 q 665 1007 610 1024 q 713 994 693 997 l 704 760 l 614 760 l 586 931 q 531 956 574 944 q 438 968 489 968 q 296 928 344 968 q 247 815 247 889 q 278 723 247 761 q 354 658 308 685 q 494 588 400 632 q 640 509 583 544 q 737 417 696 474 q 778 283 778 361 q 737 140 778 208 q 612 28 696 72 q 404 -15 528 -15 m 519 -186 q 499 -278 519 -236 q 451 -347 478 -319 q 411 -378 425 -374 l 410 -378 l 360 -354 l 358 -344 q 388 -308 376 -336 q 400 -250 400 -281 q 392 -221 400 -232 q 372 -200 385 -210 q 344 -143 344 -181 q 369 -91 344 -107 q 421 -75 394 -75 l 426 -75 q 494 -104 469 -75 q 519 -186 519 -133 z "},"Ṡ":{"ha":828,"x_min":85,"x_max":778,"o":"m 404 -15 q 268 -2 329 -15 q 144 32 207 11 q 85 47 101 46 l 96 299 l 189 299 l 215 119 q 288 81 236 97 q 406 64 340 64 q 561 110 508 64 q 614 238 614 156 q 584 328 614 290 q 506 394 554 367 q 371 461 457 422 q 238 531 296 494 q 138 629 181 568 q 96 775 96 690 q 137 913 96 851 q 255 1010 178 975 q 438 1044 332 1044 q 556 1034 503 1044 q 665 1007 610 1024 q 713 994 693 997 l 704 760 l 614 760 l 586 931 q 531 956 574 944 q 438 968 489 968 q 296 928 344 968 q 247 815 247 889 q 278 723 247 761 q 354 658 308 685 q 494 588 400 632 q 640 509 583 544 q 737 417 696 474 q 778 283 778 361 q 737 140 778 208 q 612 28 696 72 q 404 -15 528 -15 m 447 1147 q 385 1172 408 1147 q 361 1236 361 1197 q 387 1310 361 1281 q 460 1339 413 1339 q 526 1313 501 1339 q 551 1250 551 1288 q 525 1176 551 1204 q 447 1147 499 1147 z "},"ẞ":{"ha":1011,"x_min":22,"x_max":988,"o":"m 104 85 l 104 617 q 163 837 104 739 q 326 990 222 935 q 563 1044 431 1044 q 726 1025 658 1044 q 860 972 793 1006 l 860 906 l 668 638 q 826 562 760 600 q 940 458 892 524 q 988 296 988 392 q 904 69 988 154 q 676 -15 821 -15 q 574 -4 619 -15 q 478 25 528 7 q 424 40 442 39 l 431 281 l 517 281 l 544 107 q 597 73 558 86 q 678 60 635 60 q 788 110 746 60 q 829 268 829 160 q 781 400 829 339 q 664 503 733 461 q 532 565 594 546 l 532 603 l 718 907 q 531 969 653 969 q 393 930 454 969 q 297 816 332 890 q 263 640 263 742 l 263 0 l 22 0 l 22 71 l 104 85 z "},"Ə":{"ha":928,"x_min":60,"x_max":883,"o":"m 426 -15 q 240 31 321 -15 q 110 169 158 78 q 60 392 63 261 q 69 542 60 503 l 721 542 q 678 767 715 671 q 579 914 642 863 q 435 965 517 965 q 303 943 351 965 q 221 883 256 921 l 196 778 l 90 781 l 96 989 q 189 1007 131 990 q 317 1033 258 1024 q 457 1043 376 1043 q 681 979 585 1043 q 831 798 778 915 q 883 524 883 681 q 824 240 883 363 q 661 51 765 118 q 426 -15 557 -15 m 456 74 q 647 168 575 74 q 721 457 718 263 l 226 458 q 222 382 222 433 q 247 235 222 306 q 324 119 271 164 q 456 74 376 74 z "},"T":{"ha":967,"x_min":24,"x_max":935,"o":"m 401 85 l 401 954 l 169 947 l 119 654 l 24 654 l 47 1032 l 918 1032 l 935 654 l 843 654 l 796 947 l 564 954 l 564 85 l 761 71 l 761 0 l 221 0 l 221 71 l 401 85 z "},"Ŧ":{"ha":986,"x_min":35,"x_max":946,"o":"m 411 524 l 411 954 l 181 947 l 132 654 l 35 654 l 57 1032 l 929 1032 l 946 654 l 853 654 l 806 947 l 575 954 l 575 524 l 740 524 l 740 438 l 575 438 l 575 85 l 772 71 l 772 0 l 232 0 l 232 71 l 411 85 l 411 438 l 247 438 l 247 524 l 411 524 z "},"Ť":{"ha":967,"x_min":24,"x_max":935,"o":"m 317 1364 l 493 1231 l 675 1364 l 732 1324 l 551 1133 l 436 1133 l 257 1322 l 317 1364 m 401 85 l 401 954 l 169 947 l 119 654 l 24 654 l 47 1032 l 918 1032 l 935 654 l 843 654 l 796 947 l 564 954 l 564 85 l 761 71 l 761 0 l 221 0 l 221 71 l 401 85 z "},"Ţ":{"ha":967,"x_min":24,"x_max":935,"o":"m 935 654 l 843 654 l 796 947 l 564 954 l 564 85 l 761 71 l 761 0 l 532 0 q 592 -81 563 -28 q 621 -192 621 -135 q 575 -304 621 -271 q 438 -337 529 -337 q 386 -332 414 -337 q 339 -318 358 -326 l 340 -219 q 372 -227 354 -224 q 401 -231 389 -231 q 481 -212 457 -231 q 504 -132 504 -193 q 489 -59 504 -97 q 458 0 474 -21 l 221 0 l 221 71 l 401 85 l 401 954 l 169 947 l 119 654 l 24 654 l 47 1032 l 918 1032 l 935 654 z "},"Ț":{"ha":967,"x_min":24,"x_max":935,"o":"m 401 85 l 401 954 l 169 947 l 119 654 l 24 654 l 47 1032 l 918 1032 l 935 654 l 843 654 l 796 947 l 564 954 l 564 85 l 761 71 l 761 0 l 221 0 l 221 71 l 401 85 m 593 -186 q 572 -278 593 -236 q 524 -347 551 -319 q 483 -378 497 -374 l 482 -378 l 432 -354 l 431 -344 q 461 -308 449 -336 q 474 -250 474 -281 q 466 -221 474 -232 q 446 -200 458 -210 q 417 -143 417 -182 q 442 -91 417 -107 q 494 -75 467 -75 l 500 -75 q 568 -104 543 -75 q 593 -186 593 -133 z "},"Ṫ":{"ha":967,"x_min":24,"x_max":935,"o":"m 401 85 l 401 954 l 169 947 l 119 654 l 24 654 l 47 1032 l 918 1032 l 935 654 l 843 654 l 796 947 l 564 954 l 564 85 l 761 71 l 761 0 l 221 0 l 221 71 l 401 85 m 475 1147 q 413 1172 436 1147 q 389 1236 389 1197 q 415 1310 389 1281 q 488 1339 440 1339 q 554 1313 529 1339 q 579 1250 579 1288 q 553 1176 579 1204 q 475 1147 526 1147 z "},"U":{"ha":1028,"x_min":32,"x_max":1008,"o":"m 531 -11 q 227 97 325 -11 q 129 433 129 206 l 129 942 l 32 958 l 32 1032 l 413 1032 l 413 958 l 293 942 l 293 418 q 359 151 293 233 q 550 68 425 68 q 736 156 674 68 q 799 411 799 244 l 799 940 l 681 958 l 681 1032 l 1008 1032 l 1008 958 l 908 942 l 908 418 q 806 95 908 201 q 531 -11 703 -11 z "},"Ú":{"ha":1028,"x_min":32,"x_max":1008,"o":"m 531 -11 q 227 97 325 -11 q 129 433 129 206 l 129 942 l 32 958 l 32 1032 l 413 1032 l 413 958 l 293 942 l 293 418 q 359 151 293 233 q 550 68 425 68 q 736 156 674 68 q 799 411 799 244 l 799 940 l 681 958 l 681 1032 l 1008 1032 l 1008 958 l 908 942 l 908 418 q 806 95 908 201 q 531 -11 703 -11 m 479 1151 l 700 1363 l 801 1282 q 676 1181 764 1235 q 533 1107 589 1128 l 479 1151 z "},"Ŭ":{"ha":1028,"x_min":32,"x_max":1008,"o":"m 543 1115 q 367 1175 431 1115 q 304 1326 304 1235 q 306 1356 304 1346 l 386 1356 q 388 1338 386 1344 q 430 1259 393 1293 q 543 1225 467 1225 q 655 1260 619 1225 q 694 1339 690 1294 q 696 1356 696 1346 l 775 1356 q 776 1328 776 1346 q 714 1176 776 1236 q 543 1115 651 1115 m 531 -11 q 227 97 325 -11 q 129 433 129 206 l 129 942 l 32 958 l 32 1032 l 413 1032 l 413 958 l 293 942 l 293 418 q 359 151 293 233 q 550 68 425 68 q 736 156 674 68 q 799 411 799 244 l 799 940 l 681 958 l 681 1032 l 1008 1032 l 1008 958 l 908 942 l 908 418 q 806 95 908 201 q 531 -11 703 -11 z "},"Û":{"ha":1028,"x_min":32,"x_max":1008,"o":"m 483 1364 l 597 1364 l 788 1163 l 728 1121 l 540 1263 l 350 1121 l 294 1161 l 483 1364 m 531 -11 q 227 97 325 -11 q 129 433 129 206 l 129 942 l 32 958 l 32 1032 l 413 1032 l 413 958 l 293 942 l 293 418 q 359 151 293 233 q 550 68 425 68 q 736 156 674 68 q 799 411 799 244 l 799 940 l 681 958 l 681 1032 l 1008 1032 l 1008 958 l 908 942 l 908 418 q 806 95 908 201 q 531 -11 703 -11 z "},"Ü":{"ha":1028,"x_min":32,"x_max":1008,"o":"m 361 1143 q 303 1169 325 1143 q 281 1232 281 1196 q 305 1307 281 1276 q 375 1338 329 1338 l 376 1338 q 440 1310 417 1338 q 464 1247 464 1283 q 438 1172 464 1201 q 363 1143 413 1143 l 361 1143 m 703 1143 q 645 1169 668 1143 q 622 1232 622 1196 q 647 1307 622 1276 q 717 1338 671 1338 l 718 1338 q 782 1311 760 1338 q 804 1247 804 1285 q 778 1172 804 1201 q 703 1143 753 1143 m 531 -11 q 227 97 325 -11 q 129 433 129 206 l 129 942 l 32 958 l 32 1032 l 413 1032 l 413 958 l 293 942 l 293 418 q 359 151 293 233 q 550 68 425 68 q 736 156 674 68 q 799 411 799 244 l 799 940 l 681 958 l 681 1032 l 1008 1032 l 1008 958 l 908 942 l 908 418 q 806 95 908 201 q 531 -11 703 -11 z "},"Ụ":{"ha":1028,"x_min":32,"x_max":1008,"o":"m 531 -11 q 227 97 325 -11 q 129 433 129 206 l 129 942 l 32 958 l 32 1032 l 413 1032 l 413 958 l 293 942 l 293 418 q 359 151 293 233 q 550 68 425 68 q 736 156 674 68 q 799 411 799 244 l 799 940 l 681 958 l 681 1032 l 1008 1032 l 1008 958 l 908 942 l 908 418 q 806 95 908 201 q 531 -11 703 -11 m 506 -257 q 451 -234 472 -257 q 429 -178 429 -211 q 453 -112 429 -139 q 517 -85 476 -85 q 575 -108 554 -85 q 596 -164 596 -132 q 573 -231 596 -206 q 507 -257 550 -257 l 506 -257 z "},"Ù":{"ha":1028,"x_min":32,"x_max":1008,"o":"m 531 -11 q 227 97 325 -11 q 129 433 129 206 l 129 942 l 32 958 l 32 1032 l 413 1032 l 413 958 l 293 942 l 293 418 q 359 151 293 233 q 550 68 425 68 q 736 156 674 68 q 799 411 799 244 l 799 940 l 681 958 l 681 1032 l 1008 1032 l 1008 958 l 908 942 l 908 418 q 806 95 908 201 q 531 -11 703 -11 m 579 1107 q 434 1183 522 1129 q 311 1282 346 1238 l 413 1363 l 635 1151 l 579 1107 z "},"Ủ":{"ha":1028,"x_min":32,"x_max":1008,"o":"m 531 -11 q 227 97 325 -11 q 129 433 129 206 l 129 942 l 32 958 l 32 1032 l 413 1032 l 413 958 l 293 942 l 293 418 q 359 151 293 233 q 550 68 425 68 q 736 156 674 68 q 799 411 799 244 l 799 940 l 681 958 l 681 1032 l 1008 1032 l 1008 958 l 908 942 l 908 418 q 806 95 908 201 q 531 -11 703 -11 m 515 1119 q 488 1178 488 1160 q 498 1207 488 1196 q 529 1232 508 1218 q 558 1254 547 1244 q 572 1278 568 1264 l 572 1283 q 555 1326 572 1308 q 500 1347 538 1343 q 454 1343 460 1347 l 449 1436 q 472 1443 451 1440 q 508 1446 493 1446 q 634 1408 583 1446 q 685 1301 685 1369 q 666 1247 685 1268 q 613 1203 647 1225 q 597 1191 604 1196 q 583 1181 589 1186 q 568 1149 568 1165 q 571 1128 568 1136 l 515 1119 z "},"Ư":{"ha":1028,"x_min":32,"x_max":1119,"o":"m 1119 1179 q 1058 1026 1119 1093 q 908 938 996 960 l 908 418 q 806 95 908 201 q 531 -11 703 -11 q 227 97 325 -11 q 129 433 129 206 l 129 942 l 32 958 l 32 1032 l 413 1032 l 413 958 l 293 942 l 293 418 q 359 151 293 233 q 550 68 425 68 q 736 156 674 68 q 799 411 799 244 l 799 940 l 681 958 l 681 1032 l 846 1032 q 956 1079 921 1032 q 1000 1186 992 1126 q 1001 1210 1003 1204 l 1117 1210 q 1119 1179 1119 1188 z "},"Ứ":{"ha":1028,"x_min":32,"x_max":1119,"o":"m 1119 1179 q 1058 1026 1119 1093 q 908 938 996 960 l 908 418 q 806 95 908 201 q 531 -11 703 -11 q 227 97 325 -11 q 129 433 129 206 l 129 942 l 32 958 l 32 1032 l 413 1032 l 413 958 l 293 942 l 293 418 q 359 151 293 233 q 550 68 425 68 q 736 156 674 68 q 799 411 799 244 l 799 940 l 681 958 l 681 1032 l 846 1032 q 956 1079 921 1032 q 1000 1186 992 1126 q 1001 1210 1003 1204 l 1117 1210 q 1119 1179 1119 1188 m 433 1151 l 654 1363 l 756 1282 q 631 1181 718 1235 q 488 1107 543 1128 l 433 1151 z "},"Ự":{"ha":1028,"x_min":32,"x_max":1119,"o":"m 1119 1179 q 1058 1026 1119 1093 q 908 938 996 960 l 908 418 q 806 95 908 201 q 531 -11 703 -11 q 227 97 325 -11 q 129 433 129 206 l 129 942 l 32 958 l 32 1032 l 413 1032 l 413 958 l 293 942 l 293 418 q 359 151 293 233 q 550 68 425 68 q 736 156 674 68 q 799 411 799 244 l 799 940 l 681 958 l 681 1032 l 846 1032 q 956 1079 921 1032 q 1000 1186 992 1126 q 1001 1210 1003 1204 l 1117 1210 q 1119 1179 1119 1188 m 506 -257 q 451 -234 472 -257 q 429 -178 429 -211 q 453 -112 429 -139 q 517 -85 476 -85 q 575 -108 554 -85 q 596 -164 596 -132 q 573 -231 596 -206 q 507 -257 550 -257 l 506 -257 z "},"Ừ":{"ha":1028,"x_min":32,"x_max":1119,"o":"m 1119 1179 q 1058 1026 1119 1093 q 908 938 996 960 l 908 418 q 806 95 908 201 q 531 -11 703 -11 q 227 97 325 -11 q 129 433 129 206 l 129 942 l 32 958 l 32 1032 l 413 1032 l 413 958 l 293 942 l 293 418 q 359 151 293 233 q 550 68 425 68 q 736 156 674 68 q 799 411 799 244 l 799 940 l 681 958 l 681 1032 l 846 1032 q 956 1079 921 1032 q 1000 1186 992 1126 q 1001 1210 1003 1204 l 1117 1210 q 1119 1179 1119 1188 m 533 1107 q 388 1183 476 1129 q 265 1282 300 1238 l 367 1363 l 589 1151 l 533 1107 z "},"Ử":{"ha":1028,"x_min":32,"x_max":1119,"o":"m 1119 1179 q 1058 1026 1119 1093 q 908 938 996 960 l 908 418 q 806 95 908 201 q 531 -11 703 -11 q 227 97 325 -11 q 129 433 129 206 l 129 942 l 32 958 l 32 1032 l 413 1032 l 413 958 l 293 942 l 293 418 q 359 151 293 233 q 550 68 425 68 q 736 156 674 68 q 799 411 799 244 l 799 940 l 681 958 l 681 1032 l 846 1032 q 956 1079 921 1032 q 1000 1186 992 1126 q 1001 1210 1003 1204 l 1117 1210 q 1119 1179 1119 1188 m 469 1119 q 442 1178 442 1160 q 452 1207 442 1196 q 483 1232 463 1218 q 512 1254 501 1244 q 526 1278 522 1264 l 526 1283 q 509 1326 526 1308 q 454 1347 492 1343 q 408 1343 414 1347 l 403 1436 q 426 1443 406 1440 q 463 1446 447 1446 q 588 1408 538 1446 q 639 1301 639 1369 q 620 1247 639 1268 q 567 1203 601 1225 q 551 1191 558 1196 q 538 1181 543 1186 q 522 1149 522 1165 q 525 1128 522 1136 l 469 1119 z "},"Ữ":{"ha":1028,"x_min":32,"x_max":1119,"o":"m 1119 1179 q 1058 1026 1119 1093 q 908 938 996 960 l 908 418 q 806 95 908 201 q 531 -11 703 -11 q 227 97 325 -11 q 129 433 129 206 l 129 942 l 32 958 l 32 1032 l 413 1032 l 413 958 l 293 942 l 293 418 q 359 151 293 233 q 550 68 425 68 q 736 156 674 68 q 799 411 799 244 l 799 940 l 681 958 l 681 1032 l 846 1032 q 956 1079 921 1032 q 1000 1186 992 1126 q 1001 1210 1003 1204 l 1117 1210 q 1119 1179 1119 1188 m 624 1143 q 555 1159 583 1143 q 492 1206 526 1175 q 440 1244 461 1232 q 392 1257 418 1257 q 328 1233 351 1257 q 285 1174 304 1210 l 224 1217 q 292 1315 240 1269 q 415 1360 344 1360 q 485 1344 457 1360 q 547 1296 513 1328 q 593 1258 574 1271 q 638 1246 613 1246 q 687 1259 667 1246 q 715 1285 707 1272 q 740 1328 724 1299 l 803 1285 q 735 1183 779 1224 q 624 1143 690 1143 z "},"Ű":{"ha":1028,"x_min":32,"x_max":1008,"o":"m 565 1290 q 461 1191 522 1240 q 346 1111 400 1142 l 283 1164 l 471 1364 l 565 1290 m 917 1288 q 813 1191 878 1242 q 693 1111 747 1140 l 629 1165 l 828 1363 l 917 1288 m 531 -11 q 227 97 325 -11 q 129 433 129 206 l 129 942 l 32 958 l 32 1032 l 413 1032 l 413 958 l 293 942 l 293 418 q 359 151 293 233 q 550 68 425 68 q 736 156 674 68 q 799 411 799 244 l 799 940 l 681 958 l 681 1032 l 1008 1032 l 1008 958 l 908 942 l 908 418 q 806 95 908 201 q 531 -11 703 -11 z "},"Ū":{"ha":1028,"x_min":32,"x_max":1008,"o":"m 740 1285 l 740 1182 l 347 1182 l 347 1285 l 740 1285 m 531 -11 q 227 97 325 -11 q 129 433 129 206 l 129 942 l 32 958 l 32 1032 l 413 1032 l 413 958 l 293 942 l 293 418 q 359 151 293 233 q 550 68 425 68 q 736 156 674 68 q 799 411 799 244 l 799 940 l 681 958 l 681 1032 l 1008 1032 l 1008 958 l 908 942 l 908 418 q 806 95 908 201 q 531 -11 703 -11 z "},"Ų":{"ha":1028,"x_min":32,"x_max":1008,"o":"m 531 -11 q 227 97 325 -11 q 129 433 129 206 l 129 942 l 32 958 l 32 1032 l 413 1032 l 413 958 l 293 942 l 293 418 q 359 151 293 233 q 550 68 425 68 q 736 156 674 68 q 799 411 799 244 l 799 940 l 681 958 l 681 1032 l 1008 1032 l 1008 958 l 908 942 l 908 418 q 846 150 908 251 q 672 11 783 49 q 567 -76 608 -28 q 525 -165 525 -125 q 553 -229 525 -207 q 625 -251 581 -251 q 724 -228 674 -251 l 724 -300 q 651 -334 696 -321 q 563 -347 606 -347 q 438 -315 488 -347 q 389 -212 389 -282 q 439 -101 389 -160 q 557 -10 489 -43 q 531 -11 549 -11 z "},"Ů":{"ha":1028,"x_min":32,"x_max":1008,"o":"m 531 -11 q 227 97 325 -11 q 129 433 129 206 l 129 942 l 32 958 l 32 1032 l 413 1032 l 413 958 l 293 942 l 293 418 q 359 151 293 233 q 550 68 425 68 q 736 156 674 68 q 799 411 799 244 l 799 940 l 681 958 l 681 1032 l 1008 1032 l 1008 958 l 908 942 l 908 418 q 806 95 908 201 q 531 -11 703 -11 m 557 1019 q 388 1067 443 1019 q 332 1192 332 1115 q 401 1319 332 1274 q 567 1365 469 1365 q 731 1319 675 1365 q 788 1194 788 1272 q 723 1065 788 1111 q 557 1019 658 1019 m 560 1082 q 685 1186 685 1082 q 655 1269 685 1238 q 563 1301 625 1301 q 467 1274 500 1301 q 435 1194 435 1246 q 467 1115 435 1147 q 560 1082 499 1082 z "},"Ũ":{"ha":1028,"x_min":32,"x_max":1008,"o":"m 653 1143 q 583 1159 613 1143 q 519 1206 554 1175 q 468 1244 489 1232 q 421 1257 447 1257 q 357 1233 381 1257 q 314 1174 333 1210 l 251 1217 q 322 1315 269 1271 q 444 1360 374 1360 q 514 1344 486 1360 q 576 1296 542 1328 q 622 1258 603 1271 q 667 1246 642 1246 q 725 1265 704 1246 q 756 1303 746 1285 q 769 1328 767 1322 l 832 1285 q 764 1183 808 1224 q 653 1143 719 1143 m 531 -11 q 227 97 325 -11 q 129 433 129 206 l 129 942 l 32 958 l 32 1032 l 413 1032 l 413 958 l 293 942 l 293 418 q 359 151 293 233 q 550 68 425 68 q 736 156 674 68 q 799 411 799 244 l 799 940 l 681 958 l 681 1032 l 1008 1032 l 1008 958 l 908 942 l 908 418 q 806 95 908 201 q 531 -11 703 -11 z "},"V":{"ha":935,"x_min":-24,"x_max":961,"o":"m -24 958 l -24 1032 l 357 1032 l 357 958 l 235 942 l 461 297 l 511 132 l 554 299 l 757 942 l 646 958 l 646 1032 l 961 1032 l 961 958 l 872 942 l 549 -11 l 419 -11 l 61 942 l -24 958 z "},"W":{"ha":1393,"x_min":-28,"x_max":1418,"o":"m -28 958 l -28 1032 l 357 1032 l 357 958 l 228 942 l 417 300 l 454 113 l 497 300 l 656 825 l 617 942 l 519 958 l 519 1032 l 918 1032 l 918 958 l 782 942 l 968 300 l 1013 99 l 1050 300 l 1222 942 l 1086 958 l 1086 1032 l 1418 1032 l 1418 958 l 1328 942 l 1054 -7 l 908 -7 l 700 681 l 497 -7 l 357 -7 l 64 940 l -28 958 z "},"Ẃ":{"ha":1393,"x_min":-28,"x_max":1418,"o":"m -28 958 l -28 1032 l 357 1032 l 357 958 l 228 942 l 417 300 l 454 113 l 497 300 l 656 825 l 617 942 l 519 958 l 519 1032 l 918 1032 l 918 958 l 782 942 l 968 300 l 1013 99 l 1050 300 l 1222 942 l 1086 958 l 1086 1032 l 1418 1032 l 1418 958 l 1328 942 l 1054 -7 l 908 -7 l 700 681 l 497 -7 l 357 -7 l 64 940 l -28 958 m 617 1151 l 838 1363 l 939 1282 q 814 1181 901 1235 q 671 1107 726 1128 l 617 1151 z "},"Ŵ":{"ha":1393,"x_min":-28,"x_max":1418,"o":"m 643 1364 l 758 1364 l 947 1163 l 889 1121 l 701 1263 l 511 1121 l 454 1161 l 643 1364 m -28 958 l -28 1032 l 357 1032 l 357 958 l 228 942 l 417 300 l 454 113 l 497 300 l 656 825 l 617 942 l 519 958 l 519 1032 l 918 1032 l 918 958 l 782 942 l 968 300 l 1013 99 l 1050 300 l 1222 942 l 1086 958 l 1086 1032 l 1418 1032 l 1418 958 l 1328 942 l 1054 -7 l 908 -7 l 700 681 l 497 -7 l 357 -7 l 64 940 l -28 958 z "},"Ẅ":{"ha":1392,"x_min":-28,"x_max":1418,"o":"m 519 1143 q 461 1169 483 1143 q 439 1232 439 1196 q 463 1307 439 1276 q 533 1338 488 1338 l 535 1338 q 599 1310 575 1338 q 622 1247 622 1283 q 597 1172 622 1201 q 521 1143 571 1143 l 519 1143 m 861 1143 q 803 1169 826 1143 q 781 1232 781 1196 q 805 1307 781 1276 q 875 1338 829 1338 l 876 1338 q 940 1311 918 1338 q 963 1247 963 1285 q 937 1172 963 1201 q 861 1143 911 1143 m -28 958 l -28 1032 l 356 1032 l 356 958 l 226 942 l 415 300 l 454 113 l 497 300 l 654 825 l 617 942 l 519 958 l 519 1032 l 918 1032 l 918 958 l 782 942 l 967 300 l 1013 99 l 1050 300 l 1222 942 l 1086 958 l 1086 1032 l 1418 1032 l 1418 958 l 1328 942 l 1053 -7 l 907 -7 l 699 681 l 497 -7 l 356 -7 l 63 940 l -28 958 z "},"Ẁ":{"ha":1393,"x_min":-28,"x_max":1418,"o":"m -28 958 l -28 1032 l 357 1032 l 357 958 l 228 942 l 417 300 l 454 113 l 497 300 l 656 825 l 617 942 l 519 958 l 519 1032 l 918 1032 l 918 958 l 782 942 l 968 300 l 1013 99 l 1050 300 l 1222 942 l 1086 958 l 1086 1032 l 1418 1032 l 1418 958 l 1328 942 l 1054 -7 l 908 -7 l 700 681 l 497 -7 l 357 -7 l 64 940 l -28 958 m 717 1107 q 572 1183 660 1129 q 449 1282 483 1238 l 550 1363 l 772 1151 l 717 1107 z "},"X":{"ha":990,"x_min":8,"x_max":989,"o":"m 128 85 l 418 513 l 129 940 l 28 958 l 28 1032 l 450 1032 l 450 958 l 319 940 l 532 597 l 744 942 l 622 958 l 622 1032 l 967 1032 l 967 958 l 856 940 l 575 543 l 885 85 l 989 71 l 989 0 l 569 0 l 569 71 l 694 85 l 464 457 l 243 85 l 381 71 l 381 0 l 8 0 l 8 71 l 128 85 z "},"Y":{"ha":897,"x_min":-18,"x_max":917,"o":"m 374 85 l 374 403 l 65 942 l -18 958 l -18 1032 l 353 1032 l 353 958 l 246 942 l 438 576 l 481 472 l 529 576 l 710 942 l 596 958 l 596 1032 l 917 1032 l 917 958 l 828 943 l 540 404 l 540 86 l 694 71 l 694 0 l 224 0 l 224 71 l 374 85 z "},"Ý":{"ha":897,"x_min":-18,"x_max":917,"o":"m 374 85 l 374 403 l 65 942 l -18 958 l -18 1032 l 353 1032 l 353 958 l 246 942 l 438 576 l 481 472 l 529 576 l 710 942 l 596 958 l 596 1032 l 917 1032 l 917 958 l 828 943 l 540 404 l 540 86 l 694 71 l 694 0 l 224 0 l 224 71 l 374 85 m 379 1151 l 600 1363 l 701 1282 q 576 1181 664 1235 q 433 1107 489 1128 l 379 1151 z "},"Ŷ":{"ha":897,"x_min":-18,"x_max":917,"o":"m 407 1364 l 521 1364 l 711 1163 l 651 1121 l 464 1263 l 274 1121 l 218 1161 l 407 1364 m 374 85 l 374 403 l 65 942 l -18 958 l -18 1032 l 353 1032 l 353 958 l 246 942 l 438 576 l 481 472 l 529 576 l 710 942 l 596 958 l 596 1032 l 917 1032 l 917 958 l 828 943 l 540 404 l 540 86 l 694 71 l 694 0 l 224 0 l 224 71 l 374 85 z "},"Ÿ":{"ha":897,"x_min":-18,"x_max":917,"o":"m 283 1143 q 225 1169 247 1143 q 203 1232 203 1196 q 227 1307 203 1276 q 297 1338 251 1338 l 299 1338 q 363 1310 339 1338 q 386 1247 386 1283 q 360 1172 386 1201 q 285 1143 335 1143 l 283 1143 m 625 1143 q 568 1169 590 1143 q 546 1232 546 1196 q 570 1307 546 1276 q 640 1338 594 1338 l 642 1338 q 705 1311 682 1338 q 728 1247 728 1285 q 701 1172 728 1201 q 625 1143 675 1143 m 374 85 l 374 403 l 65 942 l -18 958 l -18 1032 l 353 1032 l 353 958 l 246 942 l 438 576 l 481 472 l 529 576 l 710 942 l 596 958 l 596 1032 l 917 1032 l 917 958 l 828 943 l 540 404 l 540 86 l 694 71 l 694 0 l 224 0 l 224 71 l 374 85 z "},"Ỵ":{"ha":897,"x_min":-18,"x_max":917,"o":"m 374 85 l 374 403 l 65 942 l -18 958 l -18 1032 l 353 1032 l 353 958 l 246 942 l 438 576 l 481 472 l 529 576 l 710 942 l 596 958 l 596 1032 l 917 1032 l 917 958 l 828 943 l 540 404 l 540 86 l 694 71 l 694 0 l 224 0 l 224 71 l 374 85 m 440 -257 q 385 -234 407 -257 q 364 -178 364 -211 q 388 -112 364 -139 q 451 -85 411 -85 q 510 -108 489 -85 q 531 -164 531 -132 q 508 -231 531 -206 q 442 -257 485 -257 l 440 -257 z "},"Ỳ":{"ha":897,"x_min":-18,"x_max":917,"o":"m 374 85 l 374 403 l 65 942 l -18 958 l -18 1032 l 353 1032 l 353 958 l 246 942 l 438 576 l 481 472 l 529 576 l 710 942 l 596 958 l 596 1032 l 917 1032 l 917 958 l 828 943 l 540 404 l 540 86 l 694 71 l 694 0 l 224 0 l 224 71 l 374 85 m 479 1107 q 334 1183 422 1129 q 211 1282 246 1238 l 313 1363 l 535 1151 l 479 1107 z "},"Ỷ":{"ha":897,"x_min":-18,"x_max":917,"o":"m 374 85 l 374 403 l 65 942 l -18 958 l -18 1032 l 353 1032 l 353 958 l 246 942 l 438 576 l 481 472 l 529 576 l 710 942 l 596 958 l 596 1032 l 917 1032 l 917 958 l 828 943 l 540 404 l 540 86 l 694 71 l 694 0 l 224 0 l 224 71 l 374 85 m 415 1119 q 388 1178 388 1160 q 398 1207 388 1196 q 429 1232 408 1218 q 458 1254 447 1244 q 472 1278 468 1264 l 472 1283 q 455 1326 472 1308 q 400 1347 438 1343 q 354 1343 360 1347 l 349 1436 q 372 1443 351 1440 q 408 1446 393 1446 q 534 1408 483 1446 q 585 1301 585 1369 q 566 1247 585 1268 q 513 1203 547 1225 q 497 1191 504 1196 q 483 1181 489 1186 q 468 1149 468 1165 q 471 1128 468 1136 l 415 1119 z "},"Ỹ":{"ha":897,"x_min":-18,"x_max":917,"o":"m 374 85 l 374 403 l 65 942 l -18 958 l -18 1032 l 353 1032 l 353 958 l 246 942 l 438 576 l 481 472 l 529 576 l 710 942 l 596 958 l 596 1032 l 917 1032 l 917 958 l 828 943 l 540 404 l 540 86 l 694 71 l 694 0 l 224 0 l 224 71 l 374 85 m 569 1143 q 501 1159 529 1143 q 438 1206 472 1175 q 385 1244 407 1232 q 338 1257 364 1257 q 274 1233 297 1257 q 231 1174 250 1210 l 169 1217 q 238 1315 186 1269 q 361 1360 290 1360 q 431 1344 403 1360 q 493 1296 458 1328 q 539 1258 519 1271 q 583 1246 558 1246 q 633 1259 613 1246 q 661 1285 653 1272 q 686 1328 669 1299 l 749 1285 q 681 1183 725 1224 q 569 1143 636 1143 z "},"Z":{"ha":908,"x_min":44,"x_max":858,"o":"m 578 865 l 660 963 l 258 947 l 186 763 l 103 774 l 133 1036 l 813 1036 l 844 974 l 321 178 l 228 75 l 699 101 l 772 318 l 858 300 l 826 0 l 83 0 l 44 64 l 578 865 z "},"Ź":{"ha":908,"x_min":44,"x_max":858,"o":"m 578 865 l 660 963 l 258 947 l 186 763 l 103 774 l 133 1036 l 813 1036 l 844 974 l 321 178 l 228 75 l 699 101 l 772 318 l 858 300 l 826 0 l 83 0 l 44 64 l 578 865 m 429 1151 l 650 1363 l 751 1282 q 626 1181 714 1235 q 483 1107 539 1128 l 429 1151 z "},"Ž":{"ha":910,"x_min":44,"x_max":858,"o":"m 306 1364 l 482 1231 l 664 1364 l 721 1324 l 540 1133 l 425 1133 l 246 1322 l 306 1364 m 578 865 l 660 963 l 258 947 l 186 763 l 103 774 l 133 1036 l 813 1036 l 844 974 l 321 178 l 228 75 l 699 101 l 772 318 l 858 300 l 826 0 l 83 0 l 44 64 l 578 865 z "},"Ż":{"ha":908,"x_min":44,"x_max":858,"o":"m 578 865 l 660 963 l 258 947 l 186 763 l 103 774 l 133 1036 l 813 1036 l 844 974 l 321 178 l 228 75 l 699 101 l 772 318 l 858 300 l 826 0 l 83 0 l 44 64 l 578 865 m 501 1147 q 439 1172 463 1147 q 415 1236 415 1197 q 441 1310 415 1281 q 514 1339 467 1339 q 581 1313 556 1339 q 606 1250 606 1288 q 579 1176 606 1204 q 501 1147 553 1147 z "},"a":{"ha":781,"x_min":60,"x_max":749,"o":"m 60 208 q 188 402 60 339 q 519 468 315 465 l 519 504 q 506 605 519 568 q 460 659 493 642 q 364 676 426 676 q 237 657 293 676 q 122 608 181 638 l 85 683 q 153 724 103 699 q 269 768 203 749 q 400 788 336 788 q 558 760 500 788 q 642 674 617 733 q 668 513 668 614 l 668 71 l 749 71 l 749 7 q 676 -7 721 0 q 599 -14 632 -14 q 544 -2 558 -14 q 529 51 529 10 l 529 96 q 428 19 489 54 q 292 -15 368 -15 q 126 42 192 -15 q 60 208 60 100 m 358 83 q 438 105 392 83 q 519 156 483 126 l 519 392 q 299 347 374 392 q 225 226 225 301 q 261 119 225 154 q 358 83 297 83 z "},"á":{"ha":781,"x_min":60,"x_max":749,"o":"m 60 208 q 188 402 60 339 q 519 468 315 465 l 519 504 q 506 605 519 568 q 460 659 493 642 q 364 676 426 676 q 237 657 293 676 q 122 608 181 638 l 85 683 q 153 724 103 699 q 269 768 203 749 q 400 788 336 788 q 558 760 500 788 q 642 674 617 733 q 668 513 668 614 l 668 71 l 749 71 l 749 7 q 676 -7 721 0 q 599 -14 632 -14 q 544 -2 558 -14 q 529 51 529 10 l 529 96 q 428 19 489 54 q 292 -15 368 -15 q 126 42 192 -15 q 60 208 60 100 m 358 83 q 438 105 392 83 q 519 156 483 126 l 519 392 q 299 347 374 392 q 225 226 225 301 q 261 119 225 154 q 358 83 297 83 m 329 953 l 557 1231 l 661 1139 q 533 1008 631 1090 q 385 904 435 925 l 329 953 z "},"ă":{"ha":781,"x_min":60,"x_max":749,"o":"m 381 917 q 255 948 308 917 q 173 1031 201 979 q 144 1146 144 1083 q 147 1190 144 1178 l 224 1190 q 225 1165 224 1175 q 269 1072 232 1113 q 381 1032 306 1032 q 490 1072 454 1032 q 531 1164 525 1111 q 533 1190 533 1186 l 608 1190 q 611 1147 611 1165 q 582 1032 611 1085 q 501 948 553 979 q 381 917 449 917 m 60 208 q 188 402 60 339 q 519 468 315 465 l 519 504 q 506 605 519 568 q 460 659 493 642 q 364 676 426 676 q 237 657 293 676 q 122 608 181 638 l 85 683 q 153 724 103 699 q 269 768 203 749 q 400 788 336 788 q 558 760 500 788 q 642 674 617 733 q 668 513 668 614 l 668 71 l 749 71 l 749 7 q 676 -7 721 0 q 599 -14 632 -14 q 544 -2 558 -14 q 529 51 529 10 l 529 96 q 428 19 489 54 q 292 -15 368 -15 q 126 42 192 -15 q 60 208 60 100 m 358 83 q 438 105 392 83 q 519 156 483 126 l 519 392 q 299 347 374 392 q 225 226 225 301 q 261 119 225 154 q 358 83 297 83 z "},"ắ":{"ha":781,"x_min":60,"x_max":749,"o":"m 357 1204 l 560 1451 l 651 1369 q 538 1254 625 1328 q 407 1161 451 1181 l 357 1204 m 411 899 q 299 926 347 899 q 226 1001 251 954 q 201 1103 201 1047 q 204 1142 201 1131 l 272 1142 q 274 1119 272 1128 q 313 1037 281 1072 q 411 1001 346 1001 q 508 1037 476 1001 q 544 1118 539 1072 q 546 1142 547 1136 l 613 1142 q 615 1104 615 1119 q 590 1001 615 1049 q 517 926 564 954 q 411 899 471 899 m 60 208 q 188 402 60 339 q 519 468 315 465 l 519 504 q 506 605 519 568 q 460 659 493 642 q 364 676 426 676 q 237 657 293 676 q 122 608 181 638 l 85 683 q 153 724 103 699 q 269 768 203 749 q 400 788 336 788 q 558 760 500 788 q 642 674 617 733 q 668 513 668 614 l 668 71 l 749 71 l 749 7 q 676 -7 721 0 q 599 -14 632 -14 q 544 -2 558 -14 q 529 51 529 10 l 529 96 q 428 19 489 54 q 292 -15 368 -15 q 126 42 192 -15 q 60 208 60 100 m 358 83 q 438 105 392 83 q 519 156 483 126 l 519 392 q 299 347 374 392 q 225 226 225 301 q 261 119 225 154 q 358 83 297 83 z "},"ặ":{"ha":781,"x_min":60,"x_max":749,"o":"m 60 208 q 188 402 60 339 q 519 468 315 465 l 519 504 q 506 605 519 568 q 460 659 493 642 q 364 676 426 676 q 237 657 293 676 q 122 608 181 638 l 85 683 q 153 724 103 699 q 269 768 203 749 q 400 788 336 788 q 558 760 500 788 q 642 674 617 733 q 668 513 668 614 l 668 71 l 749 71 l 749 7 q 676 -7 721 0 q 599 -14 632 -14 q 544 -2 558 -14 q 529 51 529 10 l 529 96 q 428 19 489 54 q 292 -15 368 -15 q 126 42 192 -15 q 60 208 60 100 m 358 83 q 438 105 392 83 q 519 156 483 126 l 519 392 q 299 347 374 392 q 225 226 225 301 q 261 119 225 154 q 358 83 297 83 m 382 -257 q 327 -234 349 -257 q 306 -178 306 -211 q 329 -112 306 -139 q 393 -85 353 -85 q 451 -108 431 -85 q 472 -164 472 -132 q 449 -231 472 -206 q 383 -257 426 -257 l 382 -257 m 393 921 q 267 952 321 921 q 185 1035 214 983 q 157 1150 157 1088 q 160 1194 157 1182 l 238 1194 q 239 1169 238 1179 q 283 1076 246 1117 q 393 1036 319 1036 q 502 1076 467 1036 q 544 1168 538 1115 q 546 1194 547 1189 l 621 1194 q 624 1151 624 1169 q 595 1036 624 1089 q 514 952 567 983 q 393 921 461 921 z "},"ằ":{"ha":781,"x_min":60,"x_max":749,"o":"m 419 1160 q 291 1251 379 1175 q 176 1368 203 1326 l 269 1450 l 471 1203 l 421 1160 l 419 1160 m 411 899 q 299 926 347 899 q 226 1001 251 954 q 201 1103 201 1047 q 204 1142 201 1131 l 272 1142 q 274 1119 272 1128 q 313 1037 281 1072 q 411 1001 346 1001 q 508 1037 476 1001 q 544 1118 539 1072 q 546 1142 547 1136 l 613 1142 q 615 1104 615 1119 q 590 1001 615 1049 q 517 926 564 954 q 411 899 471 899 m 60 208 q 188 402 60 339 q 519 468 315 465 l 519 504 q 506 605 519 568 q 460 659 493 642 q 364 676 426 676 q 237 657 293 676 q 122 608 181 638 l 85 683 q 153 724 103 699 q 269 768 203 749 q 400 788 336 788 q 558 760 500 788 q 642 674 617 733 q 668 513 668 614 l 668 71 l 749 71 l 749 7 q 676 -7 721 0 q 599 -14 632 -14 q 544 -2 558 -14 q 529 51 529 10 l 529 96 q 428 19 489 54 q 292 -15 368 -15 q 126 42 192 -15 q 60 208 60 100 m 358 83 q 438 105 392 83 q 519 156 483 126 l 519 392 q 299 347 374 392 q 225 226 225 301 q 261 119 225 154 q 358 83 297 83 z "},"ẳ":{"ha":781,"x_min":60,"x_max":749,"o":"m 394 1163 q 378 1190 386 1174 q 369 1214 369 1206 q 379 1240 369 1229 q 407 1263 389 1250 q 433 1283 425 1275 q 444 1303 442 1290 l 444 1308 q 429 1346 444 1331 q 381 1364 414 1361 q 340 1361 344 1364 l 335 1443 q 356 1449 338 1447 q 388 1451 374 1451 q 499 1418 454 1451 q 544 1324 544 1385 q 528 1276 544 1294 q 482 1238 511 1257 l 454 1217 q 440 1188 440 1206 q 443 1169 440 1183 l 394 1163 m 411 900 q 299 928 347 900 q 226 1002 251 956 q 201 1104 201 1049 q 204 1143 201 1132 l 272 1143 q 274 1121 272 1129 q 313 1038 281 1074 q 411 1003 346 1003 q 508 1038 476 1003 q 544 1119 539 1074 q 546 1143 547 1138 l 613 1143 q 615 1106 615 1121 q 590 1003 615 1050 q 517 928 564 956 q 411 900 471 900 m 60 208 q 188 402 60 339 q 519 468 315 465 l 519 504 q 506 605 519 568 q 460 659 493 642 q 364 676 426 676 q 237 657 293 676 q 122 608 181 638 l 85 683 q 153 724 103 699 q 269 768 203 749 q 400 788 336 788 q 558 760 500 788 q 642 674 617 733 q 668 513 668 614 l 668 71 l 749 71 l 749 7 q 676 -7 721 0 q 599 -14 632 -14 q 544 -2 558 -14 q 529 51 529 10 l 529 96 q 428 19 489 54 q 292 -15 368 -15 q 126 42 192 -15 q 60 208 60 100 m 358 83 q 438 105 392 83 q 519 156 483 126 l 519 392 q 299 347 374 392 q 225 226 225 301 q 261 119 225 154 q 358 83 297 83 z "},"ẵ":{"ha":781,"x_min":60,"x_max":749,"o":"m 164 1244 q 226 1332 181 1292 q 335 1372 271 1372 q 395 1358 371 1372 q 449 1315 419 1343 q 489 1281 471 1293 q 529 1269 507 1269 q 583 1290 564 1269 q 619 1340 603 1310 l 674 1304 q 614 1213 653 1250 q 514 1176 575 1176 q 455 1190 479 1176 q 399 1232 431 1204 q 354 1267 372 1256 q 313 1278 336 1278 q 258 1258 278 1278 q 218 1207 238 1239 l 164 1244 m 411 899 q 299 926 347 899 q 226 1001 251 954 q 201 1103 201 1047 q 204 1142 201 1131 l 272 1142 q 274 1119 272 1128 q 313 1037 281 1072 q 411 1001 346 1001 q 508 1037 476 1001 q 544 1118 539 1072 q 546 1142 547 1136 l 613 1142 q 615 1104 615 1119 q 590 1001 615 1049 q 517 926 564 954 q 411 899 471 899 m 60 208 q 188 402 60 339 q 519 468 315 465 l 519 504 q 506 605 519 568 q 460 659 493 642 q 364 676 426 676 q 237 657 293 676 q 122 608 181 638 l 85 683 q 153 724 103 699 q 269 768 203 749 q 400 788 336 788 q 558 760 500 788 q 642 674 617 733 q 668 513 668 614 l 668 71 l 749 71 l 749 7 q 676 -7 721 0 q 599 -14 632 -14 q 544 -2 558 -14 q 529 51 529 10 l 529 96 q 428 19 489 54 q 292 -15 368 -15 q 126 42 192 -15 q 60 208 60 100 m 358 83 q 438 105 392 83 q 519 156 483 126 l 519 392 q 299 347 374 392 q 225 226 225 301 q 261 119 225 154 q 358 83 297 83 z "},"â":{"ha":781,"x_min":60,"x_max":749,"o":"m 322 1208 l 435 1208 l 632 938 l 572 896 l 378 1093 l 176 896 l 122 936 l 322 1208 m 60 208 q 188 402 60 339 q 519 468 315 465 l 519 504 q 506 605 519 568 q 460 659 493 642 q 364 676 426 676 q 237 657 293 676 q 122 608 181 638 l 85 683 q 153 724 103 699 q 269 768 203 749 q 400 788 336 788 q 558 760 500 788 q 642 674 617 733 q 668 513 668 614 l 668 71 l 749 71 l 749 7 q 676 -7 721 0 q 599 -14 632 -14 q 544 -2 558 -14 q 529 51 529 10 l 529 96 q 428 19 489 54 q 292 -15 368 -15 q 126 42 192 -15 q 60 208 60 100 m 358 83 q 438 105 392 83 q 519 156 483 126 l 519 392 q 299 347 374 392 q 225 226 225 301 q 261 119 225 154 q 358 83 297 83 z "},"ấ":{"ha":781,"x_min":60,"x_max":881,"o":"m 586 1079 l 789 1326 l 881 1244 q 767 1129 854 1203 q 636 1036 681 1056 l 586 1079 m 360 1160 l 458 1160 l 633 919 l 582 882 l 410 1057 l 231 882 l 182 918 l 360 1160 m 60 208 q 188 402 60 339 q 519 468 315 465 l 519 504 q 506 605 519 568 q 460 659 493 642 q 364 676 426 676 q 237 657 293 676 q 122 608 181 638 l 85 683 q 153 724 103 699 q 269 768 203 749 q 400 788 336 788 q 558 760 500 788 q 642 674 617 733 q 668 513 668 614 l 668 71 l 749 71 l 749 7 q 676 -7 721 0 q 599 -14 632 -14 q 544 -2 558 -14 q 529 51 529 10 l 529 96 q 428 19 489 54 q 292 -15 368 -15 q 126 42 192 -15 q 60 208 60 100 m 358 83 q 438 105 392 83 q 519 156 483 126 l 519 392 q 299 347 374 392 q 225 226 225 301 q 261 119 225 154 q 358 83 297 83 z "},"ậ":{"ha":781,"x_min":60,"x_max":749,"o":"m 60 208 q 188 402 60 339 q 519 468 315 465 l 519 504 q 506 605 519 568 q 460 659 493 642 q 364 676 426 676 q 237 657 293 676 q 122 608 181 638 l 85 683 q 153 724 103 699 q 269 768 203 749 q 400 788 336 788 q 558 760 500 788 q 642 674 617 733 q 668 513 668 614 l 668 71 l 749 71 l 749 7 q 676 -7 721 0 q 599 -14 632 -14 q 544 -2 558 -14 q 529 51 529 10 l 529 96 q 428 19 489 54 q 292 -15 368 -15 q 126 42 192 -15 q 60 208 60 100 m 358 83 q 438 105 392 83 q 519 156 483 126 l 519 392 q 299 347 374 392 q 225 226 225 301 q 261 119 225 154 q 358 83 297 83 m 382 -257 q 327 -234 349 -257 q 306 -178 306 -211 q 329 -112 306 -139 q 393 -85 353 -85 q 451 -108 431 -85 q 472 -164 472 -132 q 449 -231 472 -206 q 383 -257 426 -257 l 382 -257 m 335 1210 l 447 1210 l 644 939 l 586 897 l 392 1094 l 190 897 l 135 938 l 335 1210 z "},"ầ":{"ha":781,"x_min":60,"x_max":749,"o":"m 593 1150 q 465 1241 553 1165 q 350 1358 376 1317 l 443 1440 l 644 1193 l 594 1150 l 593 1150 m 360 1158 l 458 1158 l 633 918 l 582 881 l 410 1056 l 231 881 l 182 917 l 360 1158 m 60 208 q 188 402 60 339 q 519 468 315 465 l 519 504 q 506 605 519 568 q 460 659 493 642 q 364 676 426 676 q 237 657 293 676 q 122 608 181 638 l 85 683 q 153 724 103 699 q 269 768 203 749 q 400 788 336 788 q 558 760 500 788 q 642 674 617 733 q 668 513 668 614 l 668 71 l 749 71 l 749 7 q 676 -7 721 0 q 599 -14 632 -14 q 544 -2 558 -14 q 529 51 529 10 l 529 96 q 428 19 489 54 q 292 -15 368 -15 q 126 42 192 -15 q 60 208 60 100 m 358 83 q 438 105 392 83 q 519 156 483 126 l 519 392 q 299 347 374 392 q 225 226 225 301 q 261 119 225 154 q 358 83 297 83 z "},"ẩ":{"ha":781,"x_min":60,"x_max":774,"o":"m 624 1082 q 607 1109 615 1093 q 599 1133 599 1125 q 608 1159 599 1149 q 636 1182 618 1169 q 663 1202 654 1194 q 674 1222 671 1210 l 674 1228 q 658 1265 674 1250 q 610 1283 643 1281 q 569 1281 574 1283 l 564 1363 q 585 1369 567 1367 q 617 1371 603 1371 q 728 1338 683 1371 q 774 1243 774 1304 q 757 1195 774 1214 q 711 1157 740 1176 l 683 1136 q 669 1107 669 1125 q 672 1089 669 1103 l 624 1082 m 360 1158 l 458 1158 l 633 918 l 582 881 l 410 1056 l 231 881 l 182 917 l 360 1158 m 60 208 q 188 402 60 339 q 519 468 315 465 l 519 504 q 506 605 519 568 q 460 659 493 642 q 364 676 426 676 q 237 657 293 676 q 122 608 181 638 l 85 683 q 153 724 103 699 q 269 768 203 749 q 400 788 336 788 q 558 760 500 788 q 642 674 617 733 q 668 513 668 614 l 668 71 l 749 71 l 749 7 q 676 -7 721 0 q 599 -14 632 -14 q 544 -2 558 -14 q 529 51 529 10 l 529 96 q 428 19 489 54 q 292 -15 368 -15 q 126 42 192 -15 q 60 208 60 100 m 358 83 q 438 105 392 83 q 519 156 483 126 l 519 392 q 299 347 374 392 q 225 226 225 301 q 261 119 225 154 q 358 83 297 83 z "},"ẫ":{"ha":781,"x_min":60,"x_max":749,"o":"m 182 1246 q 244 1333 199 1293 q 353 1374 289 1374 q 413 1359 389 1374 q 467 1317 438 1344 q 507 1283 489 1294 q 547 1271 525 1271 q 601 1291 582 1271 q 638 1342 621 1311 l 692 1306 q 632 1215 671 1251 q 532 1178 593 1178 q 473 1192 497 1178 q 417 1233 449 1206 q 372 1268 390 1257 q 331 1279 354 1279 q 276 1260 296 1279 q 236 1208 256 1240 l 182 1246 m 358 1160 l 457 1160 l 632 919 l 581 882 l 408 1057 l 229 882 l 181 918 l 358 1160 m 60 208 q 188 402 60 339 q 519 468 315 465 l 519 504 q 506 605 519 568 q 460 659 493 642 q 364 676 426 676 q 237 657 293 676 q 122 608 181 638 l 85 683 q 153 724 103 699 q 269 768 203 749 q 400 788 336 788 q 558 760 500 788 q 642 674 617 733 q 668 513 668 614 l 668 71 l 749 71 l 749 7 q 676 -7 721 0 q 599 -14 632 -14 q 544 -2 558 -14 q 529 51 529 10 l 529 96 q 428 19 489 54 q 292 -15 368 -15 q 126 42 192 -15 q 60 208 60 100 m 358 83 q 438 105 392 83 q 519 156 483 126 l 519 392 q 299 347 374 392 q 225 226 225 301 q 261 119 225 154 q 358 83 297 83 z "},"ä":{"ha":781,"x_min":60,"x_max":749,"o":"m 60 208 q 188 402 60 339 q 519 468 315 465 l 519 504 q 506 605 519 568 q 460 659 493 642 q 364 676 426 676 q 237 657 293 676 q 122 608 181 638 l 85 683 q 153 724 103 699 q 269 768 203 749 q 400 788 336 788 q 558 760 500 788 q 642 674 617 733 q 668 513 668 614 l 668 71 l 749 71 l 749 7 q 676 -7 721 0 q 599 -14 632 -14 q 544 -2 558 -14 q 529 51 529 10 l 529 96 q 428 19 489 54 q 292 -15 368 -15 q 126 42 192 -15 q 60 208 60 100 m 358 83 q 438 105 392 83 q 519 156 483 126 l 519 392 q 299 347 374 392 q 225 226 225 301 q 261 119 225 154 q 358 83 297 83 m 238 922 q 179 948 201 922 q 157 1013 157 974 q 182 1088 157 1057 q 253 1118 207 1118 q 316 1091 293 1118 q 339 1026 339 1064 q 313 951 339 981 q 238 922 288 922 m 556 922 q 497 949 519 922 q 475 1013 475 975 q 500 1088 475 1057 q 571 1118 525 1118 q 635 1091 613 1118 q 658 1026 658 1064 q 632 951 658 981 q 556 922 606 922 z "},"ạ":{"ha":781,"x_min":60,"x_max":749,"o":"m 60 208 q 188 402 60 339 q 519 468 315 465 l 519 504 q 506 605 519 568 q 460 659 493 642 q 364 676 426 676 q 237 657 293 676 q 122 608 181 638 l 85 683 q 153 724 103 699 q 269 768 203 749 q 400 788 336 788 q 558 760 500 788 q 642 674 617 733 q 668 513 668 614 l 668 71 l 749 71 l 749 7 q 676 -7 721 0 q 599 -14 632 -14 q 544 -2 558 -14 q 529 51 529 10 l 529 96 q 428 19 489 54 q 292 -15 368 -15 q 126 42 192 -15 q 60 208 60 100 m 358 83 q 438 105 392 83 q 519 156 483 126 l 519 392 q 299 347 374 392 q 225 226 225 301 q 261 119 225 154 q 358 83 297 83 m 382 -257 q 327 -234 349 -257 q 306 -178 306 -211 q 329 -112 306 -139 q 393 -85 353 -85 q 451 -108 431 -85 q 472 -164 472 -132 q 449 -231 472 -206 q 383 -257 426 -257 l 382 -257 z "},"à":{"ha":781,"x_min":60,"x_max":749,"o":"m 408 904 q 321 960 379 915 q 208 1056 263 1004 q 136 1139 154 1108 l 239 1231 l 467 953 l 410 904 l 408 904 m 60 208 q 188 402 60 339 q 519 468 315 465 l 519 504 q 506 605 519 568 q 460 659 493 642 q 364 676 426 676 q 237 657 293 676 q 122 608 181 638 l 85 683 q 153 724 103 699 q 269 768 203 749 q 400 788 336 788 q 558 760 500 788 q 642 674 617 733 q 668 513 668 614 l 668 71 l 749 71 l 749 7 q 676 -7 721 0 q 599 -14 632 -14 q 544 -2 558 -14 q 529 51 529 10 l 529 96 q 428 19 489 54 q 292 -15 368 -15 q 126 42 192 -15 q 60 208 60 100 m 358 83 q 438 105 392 83 q 519 156 483 126 l 519 392 q 299 347 374 392 q 225 226 225 301 q 261 119 225 154 q 358 83 297 83 z "},"ả":{"ha":781,"x_min":60,"x_max":749,"o":"m 60 208 q 188 402 60 339 q 519 468 315 465 l 519 504 q 506 605 519 568 q 460 659 493 642 q 364 676 426 676 q 237 657 293 676 q 122 608 181 638 l 85 683 q 153 724 103 699 q 269 768 203 749 q 400 788 336 788 q 558 760 500 788 q 642 674 617 733 q 668 513 668 614 l 668 71 l 749 71 l 749 7 q 676 -7 721 0 q 599 -14 632 -14 q 544 -2 558 -14 q 529 51 529 10 l 529 96 q 428 19 489 54 q 292 -15 368 -15 q 126 42 192 -15 q 60 208 60 100 m 358 83 q 438 105 392 83 q 519 156 483 126 l 519 392 q 299 347 374 392 q 225 226 225 301 q 261 119 225 154 q 358 83 297 83 m 364 858 q 336 917 336 899 q 347 946 336 935 q 378 971 357 957 q 406 993 396 983 q 421 1017 417 1003 l 421 1022 q 403 1065 421 1047 q 349 1086 386 1082 q 303 1082 308 1086 l 297 1175 q 321 1182 300 1179 q 357 1185 342 1185 q 483 1147 432 1185 q 533 1040 533 1108 q 515 985 533 1007 q 461 942 496 964 q 445 930 453 935 q 432 919 438 925 q 417 888 417 904 q 419 867 417 875 l 364 858 z "},"ā":{"ha":781,"x_min":60,"x_max":749,"o":"m 572 1069 l 572 968 l 185 968 l 185 1069 l 572 1069 m 60 208 q 188 402 60 339 q 519 468 315 465 l 519 504 q 506 605 519 568 q 460 659 493 642 q 364 676 426 676 q 237 657 293 676 q 122 608 181 638 l 85 683 q 153 724 103 699 q 269 768 203 749 q 400 788 336 788 q 558 760 500 788 q 642 674 617 733 q 668 513 668 614 l 668 71 l 749 71 l 749 7 q 676 -7 721 0 q 599 -14 632 -14 q 544 -2 558 -14 q 529 51 529 10 l 529 96 q 428 19 489 54 q 292 -15 368 -15 q 126 42 192 -15 q 60 208 60 100 m 358 83 q 438 105 392 83 q 519 156 483 126 l 519 392 q 299 347 374 392 q 225 226 225 301 q 261 119 225 154 q 358 83 297 83 z "},"ą":{"ha":781,"x_min":60,"x_max":783,"o":"m 783 -271 q 582 -337 692 -337 q 464 -304 511 -337 q 417 -204 417 -271 q 460 -103 417 -157 q 571 -12 504 -50 q 538 4 547 -10 q 529 51 529 18 l 529 96 q 428 19 489 54 q 292 -15 368 -15 q 126 42 192 -15 q 60 208 60 100 q 188 402 60 339 q 519 468 315 465 l 519 504 q 506 605 519 568 q 460 659 493 642 q 364 676 426 676 q 237 657 293 676 q 122 608 181 638 l 85 683 q 153 724 103 699 q 269 768 203 749 q 400 788 336 788 q 558 760 500 788 q 642 674 617 733 q 668 513 668 614 l 668 71 l 749 71 l 749 7 q 692 -4 726 0 q 591 -80 633 -33 q 549 -162 549 -126 q 573 -226 549 -206 q 646 -246 597 -246 q 703 -235 676 -246 q 749 -215 731 -225 q 774 -203 768 -206 l 783 -271 m 519 392 q 299 347 374 392 q 225 226 225 301 q 261 119 225 154 q 358 83 297 83 q 438 105 392 83 q 519 156 483 126 l 519 392 z "},"å":{"ha":781,"x_min":60,"x_max":749,"o":"m 60 208 q 188 402 60 339 q 519 468 315 465 l 519 504 q 506 605 519 568 q 460 659 493 642 q 364 676 426 676 q 237 657 293 676 q 122 608 181 638 l 85 683 q 153 724 103 699 q 269 768 203 749 q 400 788 336 788 q 558 760 500 788 q 642 674 617 733 q 668 513 668 614 l 668 71 l 749 71 l 749 7 q 676 -7 721 0 q 599 -14 632 -14 q 544 -2 558 -14 q 529 51 529 10 l 529 96 q 428 19 489 54 q 292 -15 368 -15 q 126 42 192 -15 q 60 208 60 100 m 358 83 q 438 105 392 83 q 519 156 483 126 l 519 392 q 299 347 374 392 q 225 226 225 301 q 261 119 225 154 q 358 83 297 83 m 406 888 q 238 941 294 888 q 181 1081 181 994 q 214 1182 181 1139 q 301 1247 247 1225 q 417 1269 356 1269 q 579 1217 522 1269 q 636 1079 636 1164 q 569 939 635 990 q 406 888 503 888 m 410 956 q 535 1074 535 956 q 504 1165 535 1129 q 411 1200 474 1200 q 315 1169 349 1200 q 281 1083 281 1138 q 313 992 281 1029 q 410 956 346 956 z "},"ã":{"ha":781,"x_min":60,"x_max":749,"o":"m 93 986 q 163 1085 113 1040 q 285 1131 213 1131 q 353 1114 325 1131 q 414 1065 382 1097 q 460 1028 440 1040 q 504 1015 479 1015 q 566 1038 544 1015 q 606 1094 588 1061 l 667 1054 q 600 951 644 993 q 488 910 556 910 q 419 926 447 910 q 358 972 392 942 q 309 1012 331 999 q 260 1025 288 1025 q 199 1003 221 1025 q 154 944 176 981 l 93 986 m 60 208 q 188 402 60 339 q 519 468 315 465 l 519 504 q 506 605 519 568 q 460 659 493 642 q 364 676 426 676 q 237 657 293 676 q 122 608 181 638 l 85 683 q 153 724 103 699 q 269 768 203 749 q 400 788 336 788 q 558 760 500 788 q 642 674 617 733 q 668 513 668 614 l 668 71 l 749 71 l 749 7 q 676 -7 721 0 q 599 -14 632 -14 q 544 -2 558 -14 q 529 51 529 10 l 529 96 q 428 19 489 54 q 292 -15 368 -15 q 126 42 192 -15 q 60 208 60 100 m 358 83 q 438 105 392 83 q 519 156 483 126 l 519 392 q 299 347 374 392 q 225 226 225 301 q 261 119 225 154 q 358 83 297 83 z "},"æ":{"ha":1207,"x_min":56,"x_max":1153,"o":"m 289 -15 q 122 41 189 -15 q 56 206 56 97 q 183 401 56 336 q 511 468 311 465 q 500 601 511 558 q 457 661 489 644 q 358 678 425 678 q 228 658 289 678 q 106 607 168 638 l 69 681 q 142 724 89 699 q 264 769 196 750 q 397 788 332 788 q 543 764 489 788 q 622 689 597 740 q 733 765 669 739 q 872 792 797 792 q 1076 720 1004 792 q 1153 514 1149 649 q 1143 385 1153 429 l 669 385 q 732 167 672 249 q 901 86 792 86 q 1018 106 958 86 q 1111 151 1078 125 l 1139 89 q 1020 16 1100 47 q 858 -15 940 -15 q 686 23 758 -15 q 571 132 614 61 q 456 29 529 74 q 289 -15 383 -15 m 992 460 q 993 519 993 476 q 958 660 993 608 q 847 711 924 711 q 722 654 768 711 q 669 460 676 597 l 992 460 m 354 83 q 464 117 411 83 q 542 192 517 150 q 510 397 510 276 q 297 348 369 396 q 224 226 224 300 q 259 118 224 153 q 354 83 294 83 z "},"ǽ":{"ha":1207,"x_min":56,"x_max":1153,"o":"m 289 -15 q 122 41 189 -15 q 56 206 56 97 q 183 401 56 336 q 511 468 311 465 q 500 601 511 558 q 457 661 489 644 q 358 678 425 678 q 228 658 289 678 q 106 607 168 638 l 69 681 q 142 724 89 699 q 264 769 196 750 q 397 788 332 788 q 543 764 489 788 q 622 689 597 740 q 733 765 669 739 q 872 792 797 792 q 1076 720 1004 792 q 1153 514 1149 649 q 1143 385 1153 429 l 669 385 q 732 167 672 249 q 901 86 792 86 q 1018 106 958 86 q 1111 151 1078 125 l 1139 89 q 1020 16 1100 47 q 858 -15 940 -15 q 686 23 758 -15 q 571 132 614 61 q 456 29 529 74 q 289 -15 383 -15 m 992 460 q 993 519 993 476 q 958 660 993 608 q 847 711 924 711 q 722 654 768 711 q 669 460 676 597 l 992 460 m 354 83 q 464 117 411 83 q 542 192 517 150 q 510 397 510 276 q 297 348 369 396 q 224 226 224 300 q 259 118 224 153 q 354 83 294 83 m 553 953 l 781 1231 l 885 1139 q 756 1008 854 1090 q 608 904 658 925 l 553 953 z "},"b":{"ha":846,"x_min":-3,"x_max":789,"o":"m -3 1111 l 226 1138 l 229 1138 l 263 1115 l 263 700 q 360 765 303 739 q 486 792 417 792 q 638 751 569 792 q 748 626 707 711 q 789 413 789 542 q 740 195 789 293 q 599 41 690 97 q 385 -15 507 -15 q 206 3 286 -15 q 110 38 126 21 l 110 1035 l -3 1049 l -3 1111 m 426 689 q 332 665 376 689 q 263 613 288 642 l 263 103 q 309 72 271 83 q 394 61 347 61 q 561 147 499 61 q 624 397 624 232 q 569 617 624 544 q 426 689 514 689 z "},"ḃ":{"ha":846,"x_min":-3,"x_max":789,"o":"m 385 -15 q 206 3 286 -15 q 110 38 126 21 l 110 1035 l -3 1049 l -3 1111 l 226 1138 l 229 1138 l 263 1115 l 263 700 q 360 765 303 739 q 486 792 417 792 q 638 751 569 792 q 748 626 707 711 q 789 413 789 542 q 740 195 789 293 q 599 41 690 97 q 385 -15 507 -15 m 518 918 q 455 944 479 918 q 431 1010 431 971 q 458 1085 431 1054 q 532 1117 485 1117 q 599 1090 575 1117 q 622 1025 622 1063 q 596 948 622 978 q 519 918 569 918 l 518 918 m 394 61 q 561 147 499 61 q 624 397 624 232 q 569 617 624 544 q 426 689 514 689 q 332 665 376 689 q 263 613 288 642 l 263 103 q 309 72 271 83 q 394 61 347 61 z "},"c":{"ha":714,"x_min":46,"x_max":658,"o":"m 46 381 q 92 590 46 497 q 226 738 138 683 q 436 792 314 792 q 538 781 493 792 q 610 762 582 771 q 646 750 639 753 l 639 532 l 544 532 l 513 675 q 411 714 504 714 q 265 639 319 714 q 210 421 211 564 q 270 172 210 257 q 432 86 331 86 q 541 103 490 86 q 631 146 592 121 l 658 86 q 547 16 619 47 q 397 -15 474 -15 q 203 36 282 -15 q 85 177 124 88 q 46 381 46 267 z "},"ć":{"ha":714,"x_min":46,"x_max":658,"o":"m 46 381 q 92 590 46 497 q 226 738 138 683 q 436 792 314 792 q 538 781 493 792 q 610 762 582 771 q 646 750 639 753 l 639 532 l 544 532 l 513 675 q 411 714 504 714 q 265 639 319 714 q 210 421 211 564 q 270 172 210 257 q 432 86 331 86 q 541 103 490 86 q 631 146 592 121 l 658 86 q 547 16 619 47 q 397 -15 474 -15 q 203 36 282 -15 q 85 177 124 88 q 46 381 46 267 m 319 953 l 547 1231 l 651 1139 q 523 1008 621 1090 q 375 904 425 925 l 319 953 z "},"č":{"ha":714,"x_min":44,"x_max":660,"o":"m 211 1219 l 407 1021 l 606 1219 l 660 1179 l 463 907 l 350 907 l 153 1178 l 211 1219 m 44 378 q 90 589 44 494 q 225 738 136 683 q 436 792 314 792 q 538 781 492 792 q 611 762 583 771 q 646 750 639 753 l 639 532 l 543 532 l 511 675 q 411 714 504 714 q 263 638 317 714 q 210 415 210 561 q 271 170 210 254 q 431 86 332 86 q 540 103 489 86 q 629 146 592 121 l 657 86 q 547 16 619 47 q 396 -15 474 -15 q 135 94 225 -15 q 44 378 46 203 z "},"ç":{"ha":714,"x_min":46,"x_max":658,"o":"m 658 86 q 562 22 624 51 q 432 -14 500 -7 q 484 -94 461 -47 q 507 -190 507 -140 q 461 -303 507 -269 q 324 -337 415 -337 q 272 -332 300 -337 q 225 -318 244 -326 l 226 -219 q 258 -227 240 -224 q 288 -231 275 -231 q 367 -212 343 -231 q 390 -132 390 -193 q 379 -70 390 -103 q 353 -12 368 -37 q 124 109 203 1 q 46 381 46 217 q 92 590 46 497 q 226 738 138 683 q 436 792 314 792 q 538 781 493 792 q 610 762 582 771 q 646 750 639 753 l 639 532 l 544 532 l 513 675 q 411 714 504 714 q 265 639 319 714 q 210 421 211 564 q 270 172 210 257 q 432 86 331 86 q 541 103 490 86 q 631 146 592 121 l 658 86 z "},"ĉ":{"ha":714,"x_min":44,"x_max":658,"o":"m 349 1208 l 461 1208 l 658 938 l 600 896 l 406 1093 l 204 896 l 149 936 l 349 1208 m 44 378 q 90 589 44 494 q 225 738 136 683 q 436 792 314 792 q 538 781 492 792 q 611 762 583 771 q 646 750 639 753 l 639 532 l 543 532 l 511 675 q 411 714 504 714 q 263 638 317 714 q 210 415 210 561 q 271 170 210 254 q 431 86 332 86 q 540 103 489 86 q 629 146 592 121 l 657 86 q 547 16 619 47 q 396 -15 474 -15 q 135 94 225 -15 q 44 378 46 203 z "},"ċ":{"ha":714,"x_min":46,"x_max":658,"o":"m 383 917 q 320 943 344 917 q 296 1008 296 969 q 323 1085 296 1054 q 397 1117 350 1117 q 465 1090 440 1117 q 489 1024 489 1063 q 463 947 489 978 q 385 917 436 917 l 383 917 m 46 381 q 92 590 46 497 q 226 738 138 683 q 436 792 314 792 q 538 781 493 792 q 610 762 582 771 q 646 750 639 753 l 639 532 l 544 532 l 513 675 q 411 714 504 714 q 265 639 319 714 q 210 421 211 564 q 270 172 210 257 q 432 86 331 86 q 541 103 490 86 q 631 146 592 121 l 658 86 q 547 16 619 47 q 397 -15 474 -15 q 203 36 282 -15 q 85 177 124 88 q 46 381 46 267 z "},"d":{"ha":864,"x_min":57,"x_max":817,"o":"m 360 -15 q 208 26 276 -15 q 98 154 139 68 q 57 367 57 240 q 105 581 57 485 q 244 735 153 678 q 461 792 336 792 q 585 778 525 792 l 585 1033 l 444 1049 l 444 1113 l 701 1138 l 706 1138 l 738 1114 l 738 74 l 817 74 l 817 7 q 668 -14 724 -14 q 614 -1 631 -14 q 597 53 597 13 l 597 96 q 496 17 558 49 q 360 -15 433 -15 m 419 86 q 517 110 472 86 q 585 164 561 133 l 585 672 q 535 701 574 689 q 453 713 497 713 q 285 631 349 713 q 222 378 222 549 q 277 158 222 231 q 419 86 332 86 z "},"ð":{"ha":811,"x_min":53,"x_max":760,"o":"m 407 -15 q 143 88 233 -15 q 53 364 53 192 q 103 598 53 501 q 234 743 153 694 q 410 792 315 792 q 544 764 489 792 q 460 912 515 842 q 328 1032 404 982 l 232 913 l 164 961 l 264 1078 q 185 1122 226 1101 q 114 1150 143 1143 l 143 1221 q 324 1149 244 1190 l 413 1258 l 476 1206 l 394 1107 q 662 828 564 993 q 760 453 760 664 q 724 224 760 331 q 610 51 689 118 q 407 -15 531 -15 m 413 63 q 550 156 506 63 q 594 436 594 250 q 585 565 594 507 q 565 657 576 622 q 510 700 549 681 q 417 719 472 719 q 275 631 328 719 q 222 378 222 542 q 268 151 222 240 q 413 63 314 63 z "},"ď":{"ha":963,"x_min":57,"x_max":983,"o":"m 360 -15 q 208 26 276 -15 q 98 154 139 68 q 57 367 57 240 q 105 581 57 485 q 244 735 153 678 q 461 792 336 792 q 585 778 525 792 l 585 1033 l 444 1049 l 444 1113 l 701 1138 l 706 1138 l 738 1114 l 738 74 l 817 74 l 817 7 q 668 -14 724 -14 q 614 -1 631 -14 q 597 53 597 13 l 597 96 q 496 17 558 49 q 360 -15 433 -15 m 419 86 q 517 110 472 86 q 585 164 561 133 l 585 672 q 535 701 574 689 q 453 713 497 713 q 285 631 349 713 q 222 378 222 549 q 277 158 222 231 q 419 86 332 86 m 838 713 l 835 729 q 860 914 860 808 q 849 1023 860 972 q 825 1092 838 1074 l 831 1117 l 943 1142 q 972 1075 961 1122 q 983 972 983 1028 q 958 803 983 883 q 903 692 933 722 l 838 713 z "},"đ":{"ha":863,"x_min":54,"x_max":835,"o":"m 582 1033 l 442 1049 l 442 1113 l 699 1138 l 701 1138 l 735 1114 l 735 953 l 835 953 l 835 878 l 735 878 l 735 74 l 815 74 l 815 7 q 735 -8 769 -3 q 665 -14 701 -14 q 610 -1 626 -14 q 594 53 594 11 l 594 96 q 493 17 556 49 q 357 -15 431 -15 q 205 26 274 -15 q 95 154 136 68 q 54 367 54 240 q 102 581 54 485 q 242 735 150 678 q 458 792 333 792 q 582 778 522 792 l 582 878 l 399 878 l 399 953 l 582 953 l 582 1033 m 417 86 q 514 110 469 86 q 582 164 558 133 l 582 672 q 532 701 571 689 q 449 713 493 713 q 282 631 344 713 q 219 378 219 549 q 275 158 219 231 q 417 86 331 86 z "},"ḋ":{"ha":864,"x_min":57,"x_max":817,"o":"m 360 -15 q 208 26 276 -15 q 98 154 139 68 q 57 367 57 240 q 105 581 57 485 q 244 735 153 678 q 461 792 336 792 q 585 778 525 792 l 585 1033 l 444 1049 l 444 1113 l 701 1138 l 706 1138 l 738 1114 l 738 74 l 817 74 l 817 7 q 668 -14 724 -14 q 614 -1 631 -14 q 597 53 597 13 l 597 96 q 496 17 558 49 q 360 -15 433 -15 m 419 86 q 517 110 472 86 q 585 164 561 133 l 585 672 q 535 701 574 689 q 453 713 497 713 q 285 631 349 713 q 222 378 222 549 q 277 158 222 231 q 419 86 332 86 m 214 892 q 151 918 175 892 q 126 983 126 944 q 153 1059 126 1028 q 226 1090 179 1090 q 294 1063 269 1090 q 318 999 318 1036 q 292 922 318 951 q 215 892 265 892 l 214 892 z "},"ǳ":{"ha":1635,"x_min":36,"x_max":1588,"o":"m 1131 -15 q 978 26 1047 -15 q 869 154 910 68 q 828 367 828 240 q 876 581 828 485 q 1015 735 924 678 q 1232 792 1107 792 q 1356 778 1296 792 l 1356 1033 l 1215 1049 l 1215 1113 l 1472 1138 l 1475 1138 l 1508 1114 l 1508 74 l 1588 74 l 1588 7 q 1439 -14 1494 -14 q 1384 -1 1400 -14 q 1368 53 1368 11 l 1368 96 q 1267 17 1329 49 q 1131 -15 1204 -15 m 539 690 l 203 681 l 178 547 l 89 547 l 89 771 l 685 771 l 713 710 l 310 168 l 218 79 l 582 93 l 635 249 l 718 239 l 697 0 l 67 0 l 36 64 l 446 597 l 539 690 m 1190 86 q 1287 110 1243 86 q 1356 164 1331 133 l 1356 672 q 1306 701 1344 689 q 1222 713 1267 713 q 1056 631 1118 713 q 993 378 993 549 q 1048 158 993 229 q 1190 86 1103 86 z "},"ǆ":{"ha":1635,"x_min":57,"x_max":1582,"o":"m 1071 1219 l 1267 1021 l 1465 1219 l 1519 1179 l 1322 908 l 1210 908 l 1013 1178 l 1071 1219 m 360 -15 q 208 26 276 -15 q 98 154 139 68 q 57 367 57 240 q 105 581 57 485 q 244 735 153 678 q 461 792 336 792 q 585 778 525 792 l 585 1033 l 444 1049 l 444 1113 l 701 1138 l 706 1138 l 738 1114 l 738 74 l 817 74 l 817 7 q 668 -14 724 -14 q 614 -1 631 -14 q 597 53 597 13 l 597 96 q 496 17 558 49 q 360 -15 433 -15 m 1403 690 l 1067 681 l 1042 547 l 953 547 l 953 771 l 1549 771 l 1576 710 l 1174 168 l 1082 79 l 1446 93 l 1499 249 l 1582 239 l 1561 0 l 931 0 l 900 64 l 1311 597 l 1403 690 m 419 86 q 517 110 472 86 q 585 164 561 133 l 585 672 q 535 701 574 689 q 453 713 497 713 q 285 631 349 713 q 222 378 222 549 q 277 158 222 231 q 419 86 332 86 z "},"e":{"ha":757,"x_min":57,"x_max":701,"o":"m 406 -15 q 146 94 235 -15 q 57 388 57 204 q 103 600 57 508 q 233 742 150 692 q 422 792 315 792 q 625 720 553 792 q 701 514 697 649 q 692 385 701 429 l 219 385 q 282 167 222 249 q 451 86 342 86 q 567 106 507 86 q 660 151 626 125 l 689 89 q 569 16 650 47 q 406 -15 489 -15 m 542 460 q 544 519 544 499 q 509 660 544 610 q 397 711 474 711 q 272 654 318 711 q 219 460 226 597 l 542 460 z "},"é":{"ha":757,"x_min":57,"x_max":701,"o":"m 406 -15 q 146 94 235 -15 q 57 388 57 204 q 103 600 57 508 q 233 742 150 692 q 422 792 315 792 q 625 720 553 792 q 701 514 697 649 q 692 385 701 429 l 219 385 q 282 167 222 249 q 451 86 342 86 q 567 106 507 86 q 660 151 626 125 l 689 89 q 569 16 650 47 q 406 -15 489 -15 m 542 460 q 544 519 544 499 q 509 660 544 610 q 397 711 474 711 q 272 654 318 711 q 219 460 226 597 l 542 460 m 313 953 l 540 1231 l 644 1139 q 516 1008 614 1090 q 368 904 418 925 l 313 953 z "},"ĕ":{"ha":757,"x_min":57,"x_max":701,"o":"m 406 -15 q 146 94 235 -15 q 57 388 57 204 q 103 600 57 508 q 233 742 150 692 q 422 792 315 792 q 625 720 553 792 q 701 514 697 649 q 692 385 701 429 l 219 385 q 282 167 222 249 q 451 86 342 86 q 567 106 507 86 q 660 151 626 125 l 689 89 q 569 16 650 47 q 406 -15 489 -15 m 542 460 q 544 519 544 499 q 509 660 544 610 q 397 711 474 711 q 272 654 318 711 q 219 460 226 597 l 542 460 m 394 917 q 269 948 322 917 q 187 1031 215 979 q 158 1146 158 1083 q 161 1190 158 1178 l 239 1190 q 240 1165 239 1175 q 284 1072 247 1113 q 394 1032 321 1032 q 503 1072 468 1032 q 546 1164 539 1111 q 547 1190 549 1185 l 622 1190 q 625 1147 625 1165 q 597 1032 625 1085 q 515 948 568 979 q 394 917 463 917 z "},"ě":{"ha":757,"x_min":57,"x_max":701,"o":"m 406 -15 q 146 94 235 -15 q 57 388 57 204 q 103 600 57 508 q 233 742 150 692 q 422 792 315 792 q 625 720 553 792 q 701 514 697 649 q 692 385 701 429 l 219 385 q 282 167 222 249 q 451 86 342 86 q 567 106 507 86 q 660 151 626 125 l 689 89 q 569 16 650 47 q 406 -15 489 -15 m 542 460 q 544 519 544 499 q 509 660 544 610 q 397 711 474 711 q 272 654 318 711 q 219 460 226 597 l 542 460 m 196 1219 l 392 1021 l 590 1219 l 644 1179 l 447 908 l 335 908 l 138 1178 l 196 1219 z "},"ê":{"ha":757,"x_min":57,"x_max":701,"o":"m 406 -15 q 146 94 235 -15 q 57 388 57 204 q 103 600 57 508 q 233 742 150 692 q 422 792 315 792 q 625 720 553 792 q 701 514 697 649 q 692 385 701 429 l 219 385 q 282 167 222 249 q 451 86 342 86 q 567 106 507 86 q 660 151 626 125 l 689 89 q 569 16 650 47 q 406 -15 489 -15 m 542 460 q 544 519 544 499 q 509 660 544 610 q 397 711 474 711 q 272 654 318 711 q 219 460 226 597 l 542 460 m 336 1208 l 449 1208 l 646 938 l 588 896 l 393 1093 l 192 896 l 136 936 l 336 1208 z "},"ế":{"ha":757,"x_min":57,"x_max":864,"o":"m 569 1079 l 772 1326 l 864 1244 q 751 1129 838 1203 q 619 1036 664 1056 l 569 1079 m 343 1160 l 442 1160 l 617 919 l 565 882 l 393 1057 l 214 882 l 165 918 l 343 1160 m 406 -15 q 146 94 235 -15 q 57 388 57 204 q 103 600 57 508 q 233 742 150 692 q 422 792 315 792 q 625 720 553 792 q 701 514 697 649 q 692 385 701 429 l 219 385 q 282 167 222 249 q 451 86 342 86 q 567 106 507 86 q 660 151 626 125 l 689 89 q 569 16 650 47 q 406 -15 489 -15 m 542 460 q 544 519 544 499 q 509 660 544 610 q 397 711 474 711 q 272 654 318 711 q 219 460 226 597 l 542 460 z "},"ệ":{"ha":757,"x_min":57,"x_max":701,"o":"m 406 -15 q 146 94 235 -15 q 57 388 57 204 q 103 600 57 508 q 233 742 150 692 q 422 792 315 792 q 625 720 553 792 q 701 514 697 649 q 692 385 701 429 l 219 385 q 282 167 222 249 q 451 86 342 86 q 567 106 507 86 q 660 151 626 125 l 689 89 q 569 16 650 47 q 406 -15 489 -15 m 542 460 q 544 519 544 499 q 509 660 544 610 q 397 711 474 711 q 272 654 318 711 q 219 460 226 597 l 542 460 m 371 -257 q 316 -234 338 -257 q 294 -178 294 -211 q 318 -112 294 -139 q 382 -85 342 -85 q 440 -108 419 -85 q 461 -164 461 -132 q 438 -231 461 -206 q 372 -257 415 -257 l 371 -257 m 324 1208 l 436 1208 l 633 938 l 575 896 l 381 1093 l 179 896 l 124 936 l 324 1208 z "},"ề":{"ha":757,"x_min":57,"x_max":701,"o":"m 576 1150 q 448 1241 536 1165 q 333 1358 360 1317 l 426 1440 l 628 1193 l 578 1150 l 576 1150 m 343 1158 l 442 1158 l 617 918 l 565 881 l 393 1056 l 214 881 l 165 917 l 343 1158 m 406 -15 q 146 94 235 -15 q 57 388 57 204 q 103 600 57 508 q 233 742 150 692 q 422 792 315 792 q 625 720 553 792 q 701 514 697 649 q 692 385 701 429 l 219 385 q 282 167 222 249 q 451 86 342 86 q 567 106 507 86 q 660 151 626 125 l 689 89 q 569 16 650 47 q 406 -15 489 -15 m 542 460 q 544 519 544 499 q 509 660 544 610 q 397 711 474 711 q 272 654 318 711 q 219 460 226 597 l 542 460 z "},"ể":{"ha":757,"x_min":57,"x_max":757,"o":"m 607 1082 q 590 1109 599 1093 q 582 1133 582 1125 q 592 1159 582 1149 q 619 1182 601 1169 q 646 1202 638 1194 q 657 1222 654 1210 l 657 1228 q 642 1265 657 1250 q 593 1283 626 1281 q 553 1281 557 1283 l 547 1363 q 568 1369 550 1367 q 600 1371 586 1371 q 712 1338 667 1371 q 757 1243 757 1304 q 740 1195 757 1214 q 694 1157 724 1176 l 667 1136 q 653 1107 653 1125 q 656 1089 653 1103 l 607 1082 m 343 1158 l 442 1158 l 617 918 l 565 881 l 393 1056 l 214 881 l 165 917 l 343 1158 m 406 -15 q 146 94 235 -15 q 57 388 57 204 q 103 600 57 508 q 233 742 150 692 q 422 792 315 792 q 625 720 553 792 q 701 514 697 649 q 692 385 701 429 l 219 385 q 282 167 222 249 q 451 86 342 86 q 567 106 507 86 q 660 151 626 125 l 689 89 q 569 16 650 47 q 406 -15 489 -15 m 542 460 q 544 519 544 499 q 509 660 544 610 q 397 711 474 711 q 272 654 318 711 q 219 460 226 597 l 542 460 z "},"ễ":{"ha":757,"x_min":57,"x_max":701,"o":"m 165 1246 q 227 1333 182 1293 q 336 1374 272 1374 q 397 1359 372 1374 q 450 1317 421 1344 q 490 1283 472 1294 q 531 1271 508 1271 q 585 1291 565 1271 q 621 1342 604 1311 l 675 1306 q 615 1215 654 1251 q 515 1178 576 1178 q 456 1192 481 1178 q 400 1233 432 1206 q 356 1268 374 1257 q 314 1279 338 1279 q 259 1260 279 1279 q 219 1208 239 1240 l 165 1246 m 342 1160 l 440 1160 l 615 919 l 564 882 l 392 1057 l 213 882 l 164 918 l 342 1160 m 406 -15 q 146 94 235 -15 q 57 388 57 204 q 103 600 57 508 q 233 742 150 692 q 422 792 315 792 q 625 720 553 792 q 701 514 697 649 q 692 385 701 429 l 219 385 q 282 167 222 249 q 451 86 342 86 q 567 106 507 86 q 660 151 626 125 l 689 89 q 569 16 650 47 q 406 -15 489 -15 m 542 460 q 544 519 544 499 q 509 660 544 610 q 397 711 474 711 q 272 654 318 711 q 219 460 226 597 l 542 460 z "},"ë":{"ha":757,"x_min":57,"x_max":701,"o":"m 406 -15 q 146 94 235 -15 q 57 388 57 204 q 103 600 57 508 q 233 742 150 692 q 422 792 315 792 q 625 720 553 792 q 701 514 697 649 q 692 385 701 429 l 219 385 q 282 167 222 249 q 451 86 342 86 q 567 106 507 86 q 660 151 626 125 l 689 89 q 569 16 650 47 q 406 -15 489 -15 m 542 460 q 544 519 544 499 q 509 660 544 610 q 397 711 474 711 q 272 654 318 711 q 219 460 226 597 l 542 460 m 221 922 q 163 948 185 922 q 140 1013 140 974 q 165 1088 140 1057 q 236 1118 190 1118 q 299 1091 276 1118 q 322 1026 322 1064 q 297 951 322 981 q 221 922 271 922 m 539 922 q 481 949 503 922 q 458 1013 458 975 q 483 1088 458 1057 q 554 1118 508 1118 q 619 1091 596 1118 q 642 1026 642 1064 q 615 951 642 981 q 539 922 589 922 z "},"ė":{"ha":757,"x_min":57,"x_max":701,"o":"m 406 -15 q 146 94 235 -15 q 57 388 57 204 q 103 600 57 508 q 233 742 150 692 q 422 792 315 792 q 625 720 553 792 q 701 514 697 649 q 692 385 701 429 l 219 385 q 282 167 222 249 q 451 86 342 86 q 567 106 507 86 q 660 151 626 125 l 689 89 q 569 16 650 47 q 406 -15 489 -15 m 542 460 q 544 519 544 499 q 509 660 544 610 q 397 711 474 711 q 272 654 318 711 q 219 460 226 597 l 542 460 m 383 918 q 320 944 344 918 q 296 1010 296 971 q 322 1085 296 1054 q 396 1117 349 1117 q 463 1090 439 1117 q 488 1025 488 1063 q 461 948 488 978 q 385 918 435 918 l 383 918 z "},"ẹ":{"ha":757,"x_min":57,"x_max":701,"o":"m 406 -15 q 146 94 235 -15 q 57 388 57 204 q 103 600 57 508 q 233 742 150 692 q 422 792 315 792 q 625 720 553 792 q 701 514 697 649 q 692 385 701 429 l 219 385 q 282 167 222 249 q 451 86 342 86 q 567 106 507 86 q 660 151 626 125 l 689 89 q 569 16 650 47 q 406 -15 489 -15 m 542 460 q 544 519 544 499 q 509 660 544 610 q 397 711 474 711 q 272 654 318 711 q 219 460 226 597 l 542 460 m 371 -257 q 316 -234 338 -257 q 294 -178 294 -211 q 318 -112 294 -139 q 382 -85 342 -85 q 440 -108 419 -85 q 461 -164 461 -132 q 438 -231 461 -206 q 372 -257 415 -257 l 371 -257 z "},"è":{"ha":757,"x_min":57,"x_max":701,"o":"m 406 -15 q 146 94 235 -15 q 57 388 57 204 q 103 600 57 508 q 233 742 150 692 q 422 792 315 792 q 625 720 553 792 q 701 514 697 649 q 692 385 701 429 l 219 385 q 282 167 222 249 q 451 86 342 86 q 567 106 507 86 q 660 151 626 125 l 689 89 q 569 16 650 47 q 406 -15 489 -15 m 542 460 q 544 519 544 499 q 509 660 544 610 q 397 711 474 711 q 272 654 318 711 q 219 460 226 597 l 542 460 m 426 904 q 281 1006 381 922 q 153 1139 182 1090 l 257 1231 l 485 953 l 428 904 l 426 904 z "},"ẻ":{"ha":757,"x_min":57,"x_max":701,"o":"m 406 -15 q 146 94 235 -15 q 57 388 57 204 q 103 600 57 508 q 233 742 150 692 q 422 792 315 792 q 625 720 553 792 q 701 514 697 649 q 692 385 701 429 l 219 385 q 282 167 222 249 q 451 86 342 86 q 567 106 507 86 q 660 151 626 125 l 689 89 q 569 16 650 47 q 406 -15 489 -15 m 542 460 q 544 519 544 499 q 509 660 544 610 q 397 711 474 711 q 272 654 318 711 q 219 460 226 597 l 542 460 m 347 858 q 319 917 319 899 q 330 946 319 935 q 361 971 340 957 q 390 993 379 983 q 404 1017 400 1003 l 404 1022 q 387 1065 404 1047 q 332 1086 369 1082 q 286 1082 292 1086 l 281 1175 q 304 1182 283 1179 q 340 1185 325 1185 q 466 1147 415 1185 q 517 1040 517 1108 q 498 985 517 1007 q 444 942 479 964 q 428 930 436 935 q 415 919 421 925 q 400 888 400 904 q 403 867 400 875 l 347 858 z "},"ē":{"ha":757,"x_min":57,"x_max":701,"o":"m 406 -15 q 146 94 235 -15 q 57 388 57 204 q 103 600 57 508 q 233 742 150 692 q 422 792 315 792 q 625 720 553 792 q 701 514 697 649 q 692 385 701 429 l 219 385 q 282 167 222 249 q 451 86 342 86 q 567 106 507 86 q 660 151 626 125 l 689 89 q 569 16 650 47 q 406 -15 489 -15 m 542 460 q 544 519 544 499 q 509 660 544 610 q 397 711 474 711 q 272 654 318 711 q 219 460 226 597 l 542 460 m 585 1069 l 585 968 l 197 968 l 197 1069 l 585 1069 z "},"ę":{"ha":757,"x_min":57,"x_max":701,"o":"m 701 514 q 692 385 701 429 l 219 385 q 282 167 222 249 q 451 86 342 86 q 567 106 507 86 q 660 151 626 125 l 689 89 q 619 38 664 63 q 519 0 574 14 q 413 -76 460 -28 q 367 -162 367 -125 q 391 -226 367 -206 q 464 -246 415 -246 q 522 -235 494 -246 q 567 -215 549 -225 q 592 -203 586 -206 l 601 -271 q 400 -337 510 -337 q 282 -304 329 -337 q 235 -204 235 -271 q 277 -105 235 -157 q 385 -15 319 -53 q 140 101 224 -8 q 57 388 57 210 q 103 600 57 508 q 233 742 150 692 q 422 792 315 792 q 625 720 553 792 q 701 514 697 649 m 542 460 q 544 519 544 499 q 509 660 544 610 q 397 711 474 711 q 272 654 318 711 q 219 460 226 597 l 542 460 z "},"ẽ":{"ha":757,"x_min":57,"x_max":701,"o":"m 406 -15 q 146 94 235 -15 q 57 388 57 204 q 103 600 57 508 q 233 742 150 692 q 422 792 315 792 q 625 720 553 792 q 701 514 697 649 q 692 385 701 429 l 219 385 q 282 167 222 249 q 451 86 342 86 q 567 106 507 86 q 660 151 626 125 l 689 89 q 569 16 650 47 q 406 -15 489 -15 m 542 460 q 544 519 544 499 q 509 660 544 610 q 397 711 474 711 q 272 654 318 711 q 219 460 226 597 l 542 460 m 104 986 q 174 1085 124 1040 q 296 1131 225 1131 q 365 1114 336 1131 q 425 1065 393 1097 q 471 1028 451 1040 q 515 1015 490 1015 q 576 1037 554 1015 q 618 1094 597 1058 l 679 1054 q 611 951 656 993 q 499 910 567 910 q 431 926 458 910 q 369 974 404 942 q 319 1013 340 1000 q 272 1025 299 1025 q 210 1003 232 1025 q 165 944 188 981 l 104 986 z "},"f":{"ha":557,"x_min":42,"x_max":578,"o":"m 171 676 l 42 676 l 42 742 l 171 769 l 171 835 q 216 994 171 921 q 336 1109 261 1067 q 494 1151 411 1151 q 578 1139 543 1151 l 578 993 q 527 1016 564 1006 q 446 1026 490 1026 q 353 994 382 1026 q 325 881 325 961 l 325 769 l 514 769 l 514 676 l 325 676 l 325 82 l 476 71 l 476 0 l 54 0 l 54 71 l 171 83 l 171 676 z "},"ḟ":{"ha":558,"x_min":42,"x_max":578,"o":"m 236 1153 q 173 1179 197 1153 q 149 1244 149 1206 q 175 1322 149 1290 q 249 1353 201 1353 q 316 1326 292 1353 q 340 1260 340 1299 q 314 1183 340 1214 q 238 1153 288 1153 l 236 1153 m 171 676 l 42 676 l 42 742 l 171 769 l 171 835 q 216 994 171 921 q 336 1109 261 1067 q 494 1151 411 1151 q 578 1139 543 1151 l 578 993 q 527 1016 564 1006 q 446 1026 490 1026 q 353 994 382 1026 q 325 881 325 961 l 325 769 l 514 769 l 514 676 l 325 676 l 325 82 l 476 71 l 476 0 l 54 0 l 54 71 l 171 83 l 171 676 z "},"g":{"ha":846,"x_min":56,"x_max":833,"o":"m 396 -375 q 136 -318 217 -375 q 56 -162 56 -261 q 94 -51 56 -103 q 185 26 132 0 q 119 143 119 64 q 149 236 119 192 q 226 304 179 281 q 119 392 156 335 q 82 528 82 450 q 128 668 82 608 q 248 760 174 728 q 408 792 322 792 q 632 732 554 792 q 695 773 651 753 q 786 793 739 793 l 833 793 l 833 665 l 683 665 q 714 551 714 614 q 673 406 714 468 q 558 308 632 343 q 390 274 485 274 q 285 285 336 274 q 254 244 265 267 q 243 200 243 221 q 276 131 243 150 q 394 113 310 113 l 550 113 q 751 62 685 113 q 818 -85 818 11 q 760 -233 818 -167 q 606 -337 703 -299 q 396 -375 508 -375 m 404 351 q 557 536 557 351 q 517 672 557 628 q 400 715 478 715 q 283 674 325 715 q 240 540 240 632 q 281 402 240 453 q 404 351 321 351 m 410 -292 q 533 -272 475 -292 q 628 -213 592 -251 q 664 -122 664 -175 q 631 -32 664 -60 q 504 -4 599 -4 l 343 -4 q 261 3 290 -4 q 208 -133 208 -56 q 254 -251 208 -211 q 410 -292 300 -292 z "},"ğ":{"ha":846,"x_min":56,"x_max":833,"o":"m 396 -375 q 136 -318 217 -375 q 56 -162 56 -261 q 94 -51 56 -103 q 185 26 132 0 q 119 143 119 64 q 149 236 119 192 q 226 304 179 281 q 119 392 156 335 q 82 528 82 450 q 128 668 82 608 q 248 760 174 728 q 408 792 322 792 q 632 732 554 792 q 695 773 651 753 q 786 793 739 793 l 833 793 l 833 665 l 683 665 q 714 551 714 614 q 673 406 714 468 q 558 308 632 343 q 390 274 485 274 q 285 285 336 274 q 254 244 265 267 q 243 200 243 221 q 276 131 243 150 q 394 113 310 113 l 550 113 q 751 62 685 113 q 818 -85 818 11 q 760 -233 818 -167 q 606 -337 703 -299 q 396 -375 508 -375 m 404 351 q 557 536 557 351 q 517 672 557 628 q 400 715 478 715 q 283 674 325 715 q 240 540 240 632 q 281 402 240 453 q 404 351 321 351 m 410 -292 q 533 -272 475 -292 q 628 -213 592 -251 q 664 -122 664 -175 q 631 -32 664 -60 q 504 -4 599 -4 l 343 -4 q 261 3 290 -4 q 208 -133 208 -56 q 254 -251 208 -211 q 410 -292 300 -292 m 410 917 q 284 948 338 917 q 202 1031 231 979 q 174 1146 174 1083 q 176 1190 174 1178 l 254 1190 q 256 1165 254 1175 q 299 1072 263 1113 q 410 1032 336 1032 q 519 1072 483 1032 q 561 1164 554 1111 q 563 1190 564 1185 l 638 1190 q 640 1147 640 1165 q 612 1032 640 1085 q 531 948 583 979 q 410 917 478 917 z "},"ĝ":{"ha":846,"x_min":56,"x_max":833,"o":"m 396 -375 q 136 -318 217 -375 q 56 -162 56 -261 q 94 -51 56 -103 q 185 26 132 0 q 119 143 119 64 q 149 236 119 192 q 226 304 179 281 q 119 392 156 335 q 82 528 82 450 q 128 668 82 608 q 248 760 174 728 q 408 792 322 792 q 632 732 554 792 q 695 773 651 753 q 786 793 739 793 l 833 793 l 833 665 l 683 665 q 714 551 714 614 q 673 406 714 468 q 558 308 632 343 q 390 274 485 274 q 285 285 336 274 q 254 244 265 267 q 243 200 243 221 q 276 131 243 150 q 394 113 310 113 l 550 113 q 751 62 685 113 q 818 -85 818 11 q 760 -233 818 -167 q 606 -337 703 -299 q 396 -375 508 -375 m 404 351 q 557 536 557 351 q 517 672 557 628 q 400 715 478 715 q 283 674 325 715 q 240 540 240 632 q 281 402 240 453 q 404 351 321 351 m 410 -292 q 533 -272 475 -292 q 628 -213 592 -251 q 664 -122 664 -175 q 631 -32 664 -60 q 504 -4 599 -4 l 343 -4 q 261 3 290 -4 q 208 -133 208 -56 q 254 -251 208 -211 q 410 -292 300 -292 m 351 1208 l 464 1208 l 661 938 l 603 896 l 408 1093 l 207 896 l 151 936 l 351 1208 z "},"ģ":{"ha":846,"x_min":56,"x_max":833,"o":"m 396 -375 q 136 -318 217 -375 q 56 -162 56 -261 q 94 -51 56 -103 q 185 26 132 0 q 119 143 119 64 q 149 236 119 192 q 226 304 179 281 q 119 392 156 335 q 82 528 82 450 q 128 668 82 608 q 248 760 174 728 q 408 792 322 792 q 632 732 554 792 q 695 773 651 753 q 786 793 739 793 l 833 793 l 833 665 l 683 665 q 714 551 714 614 q 673 406 714 468 q 558 308 632 343 q 390 274 485 274 q 285 285 336 274 q 254 244 265 267 q 243 200 243 221 q 276 131 243 150 q 394 113 310 113 l 550 113 q 751 62 685 113 q 818 -85 818 11 q 760 -233 818 -167 q 606 -337 703 -299 q 396 -375 508 -375 m 404 351 q 557 536 557 351 q 517 672 557 628 q 400 715 478 715 q 283 674 325 715 q 240 540 240 632 q 281 402 240 453 q 404 351 321 351 m 410 -292 q 533 -272 475 -292 q 628 -213 592 -251 q 664 -122 664 -175 q 631 -32 664 -60 q 504 -4 599 -4 l 343 -4 q 261 3 290 -4 q 208 -133 208 -56 q 254 -251 208 -211 q 410 -292 300 -292 m 411 897 q 343 926 368 897 q 318 1008 318 956 q 339 1100 318 1058 q 387 1169 360 1142 q 428 1200 414 1196 l 429 1200 l 479 1176 l 479 1167 q 449 1131 461 1158 q 438 1072 438 1103 q 445 1043 438 1054 q 465 1022 453 1032 q 494 965 494 1001 q 469 913 494 929 q 417 897 443 897 l 411 897 z "},"ġ":{"ha":846,"x_min":56,"x_max":833,"o":"m 396 -375 q 136 -318 217 -375 q 56 -162 56 -261 q 94 -51 56 -103 q 185 26 132 0 q 119 143 119 64 q 149 236 119 192 q 226 304 179 281 q 119 392 156 335 q 82 528 82 450 q 128 668 82 608 q 248 760 174 728 q 408 792 322 792 q 632 732 554 792 q 695 773 651 753 q 786 793 739 793 l 833 793 l 833 665 l 683 665 q 714 551 714 614 q 673 406 714 468 q 558 308 632 343 q 390 274 485 274 q 285 285 336 274 q 254 244 265 267 q 243 200 243 221 q 276 131 243 150 q 394 113 310 113 l 550 113 q 751 62 685 113 q 818 -85 818 11 q 760 -233 818 -167 q 606 -337 703 -299 q 396 -375 508 -375 m 404 351 q 557 536 557 351 q 517 672 557 628 q 400 715 478 715 q 283 674 325 715 q 240 540 240 632 q 281 402 240 453 q 404 351 321 351 m 410 -292 q 533 -272 475 -292 q 628 -213 592 -251 q 664 -122 664 -175 q 631 -32 664 -60 q 504 -4 599 -4 l 343 -4 q 261 3 290 -4 q 208 -133 208 -56 q 254 -251 208 -211 q 410 -292 300 -292 m 399 918 q 335 944 360 918 q 311 1010 311 971 q 338 1085 311 1054 q 411 1117 364 1117 q 478 1090 454 1117 q 503 1025 503 1063 q 476 948 503 978 q 400 918 450 918 l 399 918 z "},"h":{"ha":918,"x_min":21,"x_max":879,"o":"m 135 1033 l 21 1047 l 21 1111 l 253 1138 l 256 1138 l 288 1115 l 289 796 l 282 678 q 403 753 326 718 q 561 789 481 789 q 697 756 649 789 q 765 654 746 722 q 785 471 785 586 l 785 83 l 879 71 l 879 0 l 542 0 l 542 71 l 629 83 l 629 471 q 619 597 629 551 q 578 664 608 642 q 490 686 549 686 q 385 663 440 686 q 290 606 331 639 l 290 83 l 383 71 l 383 0 l 53 0 l 53 71 l 135 82 l 135 1033 z "},"ħ":{"ha":929,"x_min":11,"x_max":878,"o":"m 133 1033 l 19 1047 l 19 1111 l 251 1138 l 256 1138 l 288 1115 l 288 942 l 468 942 l 468 867 l 288 867 l 288 796 l 281 678 q 403 753 326 718 q 560 789 479 789 q 694 756 646 789 q 763 654 743 722 q 782 471 782 586 l 782 83 l 878 71 l 878 0 l 540 0 l 540 71 l 628 83 l 628 471 q 617 597 628 551 q 577 664 607 642 q 489 686 547 686 q 384 663 439 686 q 289 606 329 639 l 289 83 l 382 71 l 382 0 l 51 0 l 51 71 l 133 82 l 133 867 l 11 867 l 11 942 l 133 942 l 133 1033 z "},"ĥ":{"ha":918,"x_min":-54,"x_max":879,"o":"m 135 1033 l 21 1047 l 21 1111 l 253 1138 l 256 1138 l 288 1115 l 289 796 l 282 678 q 403 753 326 718 q 561 789 481 789 q 697 756 649 789 q 765 654 746 722 q 785 471 785 586 l 785 83 l 879 71 l 879 0 l 542 0 l 542 71 l 629 83 l 629 471 q 619 597 629 551 q 578 664 608 642 q 490 686 549 686 q 385 663 440 686 q 290 606 331 639 l 290 83 l 383 71 l 383 0 l 53 0 l 53 71 l 135 82 l 135 1033 m 135 1443 l 249 1443 l 439 1242 l 379 1200 l 192 1342 l 1 1200 l -54 1240 l 135 1443 z "},"i":{"ha":467,"x_min":57,"x_max":429,"o":"m 226 918 q 163 944 188 918 q 139 1010 139 971 q 166 1085 139 1054 q 240 1117 193 1117 q 307 1090 283 1117 q 331 1025 331 1063 q 304 948 331 978 q 228 918 278 918 l 226 918 m 167 83 l 167 660 l 64 685 l 64 763 l 286 789 l 289 789 l 322 764 l 322 82 l 429 71 l 429 0 l 57 0 l 57 71 l 167 83 z "},"ı":{"ha":467,"x_min":57,"x_max":429,"o":"m 167 83 l 167 660 l 64 685 l 64 763 l 286 789 l 289 789 l 322 764 l 322 82 l 429 71 l 429 0 l 57 0 l 57 71 l 167 83 z "},"í":{"ha":467,"x_min":57,"x_max":486,"o":"m 167 83 l 167 660 l 64 685 l 64 763 l 286 789 l 289 789 l 322 764 l 322 82 l 429 71 l 429 0 l 57 0 l 57 71 l 167 83 m 154 953 l 382 1231 l 486 1139 q 358 1008 456 1090 q 210 904 260 925 l 154 953 z "},"ĭ":{"ha":467,"x_min":-1,"x_max":465,"o":"m 235 917 q 110 948 164 917 q 27 1032 56 979 q -1 1146 -1 1085 q 1 1190 -1 1178 l 79 1190 q 81 1165 79 1175 q 124 1072 88 1113 q 235 1032 161 1032 q 344 1072 308 1032 q 386 1164 381 1113 q 388 1190 389 1185 l 463 1190 q 465 1147 465 1165 q 437 1032 465 1085 q 356 948 408 979 q 235 917 303 917 m 167 83 l 167 660 l 64 685 l 64 763 l 286 789 l 289 789 l 322 764 l 322 82 l 429 71 l 429 0 l 57 0 l 57 71 l 167 83 z "},"î":{"ha":467,"x_min":-24,"x_max":486,"o":"m 176 1208 l 289 1208 l 486 938 l 428 896 l 233 1093 l 32 896 l -24 936 l 176 1208 m 167 83 l 167 660 l 64 685 l 64 763 l 286 789 l 289 789 l 322 764 l 322 82 l 429 71 l 429 0 l 57 0 l 57 71 l 167 83 z "},"ï":{"ha":467,"x_min":-18,"x_max":483,"o":"m 167 83 l 167 660 l 64 685 l 64 763 l 286 789 l 289 789 l 322 764 l 322 82 l 429 71 l 429 0 l 57 0 l 57 71 l 167 83 m 63 922 q 4 948 26 922 q -18 1013 -18 974 q 7 1088 -18 1057 q 78 1118 32 1118 q 141 1091 118 1118 q 164 1026 164 1064 q 138 951 164 981 q 63 922 113 922 m 381 922 q 322 949 344 922 q 300 1013 300 975 q 325 1088 300 1057 q 396 1118 350 1118 q 460 1091 438 1118 q 483 1026 483 1064 q 457 951 483 981 q 381 922 431 922 z "},"ị":{"ha":467,"x_min":57,"x_max":429,"o":"m 226 918 q 163 944 188 918 q 139 1010 139 971 q 166 1085 139 1054 q 240 1117 193 1117 q 307 1090 283 1117 q 331 1025 331 1063 q 304 948 331 978 q 228 918 278 918 l 226 918 m 167 83 l 167 660 l 64 685 l 64 763 l 286 789 l 289 789 l 322 764 l 322 82 l 429 71 l 429 0 l 57 0 l 57 71 l 167 83 m 225 -257 q 170 -234 192 -257 q 149 -178 149 -211 q 172 -112 149 -139 q 236 -85 196 -85 q 294 -108 274 -85 q 315 -164 315 -132 q 292 -231 315 -206 q 226 -257 269 -257 l 225 -257 z "},"ì":{"ha":467,"x_min":-10,"x_max":429,"o":"m 264 904 q 176 960 235 915 q 63 1056 117 1004 q -10 1139 8 1108 l 93 1231 l 322 953 l 265 904 l 264 904 m 167 83 l 167 660 l 64 685 l 64 763 l 286 789 l 289 789 l 322 764 l 322 82 l 429 71 l 429 0 l 57 0 l 57 71 l 167 83 z "},"ỉ":{"ha":467,"x_min":57,"x_max":429,"o":"m 167 83 l 167 660 l 64 685 l 64 763 l 286 789 l 289 789 l 322 764 l 322 82 l 429 71 l 429 0 l 57 0 l 57 71 l 167 83 m 189 858 q 161 917 161 899 q 172 946 161 935 q 203 971 182 957 q 231 993 221 983 q 246 1017 242 1003 l 246 1022 q 228 1065 246 1047 q 174 1086 211 1082 q 128 1082 133 1086 l 122 1175 q 146 1182 125 1179 q 182 1185 167 1185 q 308 1147 257 1185 q 358 1040 358 1108 q 340 985 358 1007 q 286 942 321 964 q 270 930 278 935 q 257 919 263 925 q 242 888 242 904 q 244 867 242 875 l 189 858 z "},"ĳ":{"ha":910,"x_min":57,"x_max":789,"o":"m 226 918 q 163 944 188 918 q 139 1010 139 971 q 166 1085 139 1054 q 240 1117 193 1117 q 307 1090 283 1117 q 331 1025 331 1063 q 304 948 331 978 q 228 918 278 918 l 226 918 m 167 83 l 167 660 l 64 685 l 64 763 l 286 789 l 289 789 l 322 764 l 322 82 l 429 71 l 429 0 l 57 0 l 57 71 l 167 83 m 683 918 q 620 944 644 918 q 596 1010 596 971 q 623 1085 596 1054 q 697 1117 650 1117 q 765 1090 740 1117 q 789 1025 789 1063 q 763 948 789 978 q 685 918 736 918 l 683 918 m 524 763 l 746 789 l 749 789 l 781 764 l 781 10 q 745 -184 781 -106 q 651 -300 710 -262 q 524 -337 593 -337 q 458 -332 468 -337 l 451 -264 q 483 -261 463 -265 q 526 -249 504 -257 q 606 -155 582 -229 q 629 43 629 -81 l 628 656 l 524 681 l 524 763 z "},"ī":{"ha":467,"x_min":39,"x_max":429,"o":"m 426 1069 l 426 968 l 39 968 l 39 1069 l 426 1069 m 167 83 l 167 660 l 64 685 l 64 763 l 286 789 l 289 789 l 322 764 l 322 82 l 429 71 l 429 0 l 57 0 l 57 71 l 167 83 z "},"į":{"ha":467,"x_min":44,"x_max":429,"o":"m 225 918 q 162 944 186 918 q 138 1010 138 971 q 164 1085 138 1054 q 238 1117 190 1117 q 305 1090 281 1117 q 329 1025 329 1063 q 303 948 329 978 q 226 918 276 918 l 225 918 m 329 0 q 222 -76 268 -28 q 176 -162 176 -125 q 201 -226 176 -206 q 274 -246 225 -246 q 331 -235 304 -246 q 377 -215 358 -225 q 401 -203 396 -206 l 411 -271 q 210 -337 319 -337 q 92 -304 139 -337 q 44 -204 44 -271 q 97 -93 44 -151 q 224 0 149 -35 l 57 0 l 57 71 l 167 83 l 167 660 l 64 685 l 64 763 l 286 789 l 289 789 l 322 764 l 322 82 l 429 71 l 429 0 l 329 0 z "},"ĩ":{"ha":467,"x_min":-53,"x_max":522,"o":"m -53 986 q 17 1085 -33 1040 q 139 1131 68 1131 q 208 1114 179 1131 q 268 1065 236 1097 q 314 1028 294 1040 q 358 1015 333 1015 q 419 1037 397 1015 q 461 1094 440 1058 l 522 1054 q 454 951 499 993 q 342 910 410 910 q 274 926 301 910 q 213 974 247 942 q 163 1013 183 1000 q 115 1025 142 1025 q 53 1003 75 1025 q 8 944 31 981 l -53 986 m 167 83 l 167 660 l 64 685 l 64 763 l 286 789 l 289 789 l 322 764 l 322 82 l 429 71 l 429 0 l 57 0 l 57 71 l 167 83 z "},"j":{"ha":443,"x_min":-15,"x_max":322,"o":"m 217 918 q 153 944 178 918 q 129 1010 129 971 q 156 1085 129 1054 q 231 1117 183 1117 q 298 1090 274 1117 q 322 1025 322 1063 q 296 948 322 978 q 218 918 269 918 l 217 918 m 57 763 l 279 789 l 282 789 l 314 764 l 314 10 q 278 -184 314 -106 q 185 -300 243 -262 q 57 -337 126 -337 q -8 -332 1 -337 l -15 -264 q 17 -261 -4 -265 q 60 -249 38 -257 q 139 -155 115 -229 q 163 43 163 -81 l 161 656 l 57 681 l 57 763 z "},"ȷ":{"ha":443,"x_min":-15,"x_max":314,"o":"m 57 763 l 279 789 l 282 789 l 314 764 l 314 10 q 278 -184 314 -106 q 185 -300 243 -262 q 57 -337 126 -337 q -8 -332 1 -337 l -15 -264 q 17 -261 -4 -265 q 60 -249 38 -257 q 139 -155 115 -229 q 163 43 163 -81 l 161 656 l 57 681 l 57 763 z "},"ĵ":{"ha":443,"x_min":-32,"x_max":478,"o":"m 168 1208 l 281 1208 l 478 938 l 418 896 l 224 1093 l 22 896 l -32 936 l 168 1208 m 57 763 l 279 789 l 282 789 l 314 764 l 314 10 q 278 -184 314 -106 q 185 -300 243 -262 q 57 -337 126 -337 q -8 -332 1 -337 l -15 -264 q 17 -261 -4 -265 q 60 -249 38 -257 q 139 -155 115 -229 q 163 43 163 -81 l 161 656 l 57 681 l 57 763 z "},"k":{"ha":840,"x_min":26,"x_max":872,"o":"m 135 83 l 135 1033 l 26 1047 l 26 1111 l 254 1138 l 257 1138 l 289 1115 l 289 440 l 285 360 l 599 686 l 496 704 l 496 771 l 836 771 l 836 704 l 726 685 l 529 492 l 788 82 l 872 71 l 872 0 l 529 0 l 529 71 l 614 83 l 425 400 l 285 261 l 288 190 l 288 83 l 385 71 l 385 0 l 49 0 l 49 71 l 135 83 z "},"ķ":{"ha":840,"x_min":26,"x_max":872,"o":"m 135 83 l 135 1033 l 26 1047 l 26 1111 l 254 1138 l 257 1138 l 289 1115 l 289 440 l 285 360 l 599 686 l 496 704 l 496 771 l 836 771 l 836 704 l 726 685 l 529 492 l 788 82 l 872 71 l 872 0 l 529 0 l 529 71 l 614 83 l 425 400 l 285 261 l 288 190 l 288 83 l 385 71 l 385 0 l 49 0 l 49 71 l 135 83 m 550 -186 q 529 -278 550 -236 q 482 -347 508 -319 q 442 -378 456 -374 l 440 -378 l 390 -354 l 389 -344 q 419 -308 407 -336 q 431 -250 431 -281 q 423 -221 431 -232 q 403 -200 415 -210 q 375 -143 375 -181 q 400 -91 375 -107 q 451 -75 425 -75 l 457 -75 q 525 -104 500 -75 q 550 -186 550 -133 z "},"ĸ":{"ha":924,"x_min":57,"x_max":908,"o":"m 161 81 l 161 660 l 61 685 l 61 764 l 276 789 l 279 789 l 315 764 l 315 485 l 313 357 l 633 685 l 519 701 l 519 769 l 871 769 l 871 701 l 769 689 l 557 482 l 821 82 l 908 71 l 908 0 l 574 0 l 574 69 l 644 81 l 454 388 l 313 254 l 317 188 l 317 81 l 418 69 l 418 0 l 57 0 l 57 71 l 161 81 z "},"l":{"ha":464,"x_min":49,"x_max":429,"o":"m 160 83 l 160 1033 l 49 1047 l 49 1111 l 279 1138 l 282 1138 l 314 1115 l 314 82 l 429 71 l 429 0 l 50 0 l 50 71 l 160 83 z "},"ĺ":{"ha":465,"x_min":49,"x_max":442,"o":"m 118 1151 l 340 1363 l 442 1282 q 314 1181 401 1235 q 172 1107 226 1128 l 118 1151 m 50 0 l 50 71 l 160 81 l 160 936 l 49 947 l 49 1010 l 281 1039 l 314 1015 l 314 81 l 431 71 l 431 0 l 50 0 z "},"ľ":{"ha":594,"x_min":49,"x_max":611,"o":"m 465 713 l 463 729 q 488 914 488 808 q 476 1023 488 972 q 453 1092 465 1074 l 458 1117 l 571 1142 q 600 1075 589 1122 q 611 972 611 1028 q 586 803 611 883 q 531 692 561 722 l 465 713 m 50 0 l 50 71 l 160 83 l 160 1033 l 49 1047 l 49 1111 l 279 1138 l 282 1138 l 314 1115 l 314 82 l 429 71 l 429 0 l 50 0 z "},"ļ":{"ha":464,"x_min":49,"x_max":429,"o":"m 160 83 l 160 1033 l 49 1047 l 49 1111 l 279 1138 l 282 1138 l 314 1115 l 314 82 l 429 71 l 429 0 l 50 0 l 50 71 l 160 83 m 340 -186 q 319 -278 340 -236 q 271 -347 297 -319 q 231 -378 244 -374 l 229 -378 l 179 -354 l 178 -344 q 208 -308 196 -336 q 221 -250 221 -281 q 213 -221 221 -232 q 192 -200 206 -210 q 164 -143 164 -181 q 189 -91 164 -107 q 242 -75 214 -75 l 246 -75 q 315 -104 289 -75 q 340 -186 340 -133 z "},"ŀ":{"ha":710,"x_min":49,"x_max":689,"o":"m 160 83 l 160 1033 l 49 1047 l 49 1111 l 279 1138 l 282 1138 l 314 1115 l 314 82 l 429 71 l 429 0 l 50 0 l 50 71 l 160 83 m 581 408 q 516 434 543 408 q 489 500 489 460 q 521 574 489 544 q 597 604 553 604 q 665 577 640 604 q 689 513 689 550 q 658 437 689 465 q 581 408 626 408 z "},"ǉ":{"ha":907,"x_min":49,"x_max":786,"o":"m 160 83 l 160 1033 l 49 1047 l 49 1111 l 279 1138 l 282 1138 l 314 1115 l 314 82 l 429 71 l 429 0 l 50 0 l 50 71 l 160 83 m 681 918 q 617 944 642 918 q 593 1010 593 971 q 620 1085 593 1054 q 694 1117 647 1117 q 762 1090 738 1117 q 786 1025 786 1063 q 760 948 786 978 q 682 918 733 918 l 681 918 m 521 763 l 743 789 l 746 789 l 778 764 l 778 10 q 742 -184 778 -106 q 649 -300 707 -262 q 521 -337 590 -337 q 456 -332 465 -337 l 449 -264 q 481 -261 460 -265 q 524 -249 501 -257 q 603 -155 579 -229 q 626 43 626 -81 l 625 656 l 521 681 l 521 763 z "},"ł":{"ha":488,"x_min":26,"x_max":478,"o":"m 169 571 l 169 1033 l 58 1047 l 58 1111 l 290 1138 l 292 1138 l 324 1115 l 324 638 l 478 710 l 478 615 l 324 546 l 324 82 l 439 71 l 439 0 l 60 0 l 60 71 l 169 83 l 169 481 l 26 415 l 26 503 l 169 571 z "},"m":{"ha":1388,"x_min":47,"x_max":1351,"o":"m 63 71 l 144 83 l 144 660 l 47 685 l 47 764 l 251 789 l 275 772 l 285 719 l 285 672 q 417 753 332 717 q 567 789 501 789 q 688 764 642 789 q 757 685 733 739 q 880 757 801 725 q 1029 789 958 789 q 1164 756 1115 789 q 1233 655 1213 724 q 1254 472 1254 586 l 1254 83 l 1351 71 l 1351 0 l 1017 0 l 1017 71 l 1100 83 l 1100 468 q 1088 594 1100 547 q 1045 664 1076 640 q 954 688 1014 688 q 861 667 910 688 q 776 619 813 647 q 789 471 789 560 l 789 83 l 883 71 l 883 0 l 544 0 l 544 71 l 632 83 l 632 471 q 622 597 632 551 q 583 664 613 642 q 497 686 554 686 q 395 663 449 686 q 301 606 342 639 l 301 83 l 392 71 l 392 0 l 63 0 l 63 71 z "},"ṁ":{"ha":1388,"x_min":47,"x_max":1351,"o":"m 63 71 l 144 83 l 144 660 l 47 685 l 47 764 l 251 789 l 275 772 l 285 719 l 285 672 q 417 753 332 717 q 567 789 501 789 q 688 764 642 789 q 757 685 733 739 q 880 757 801 725 q 1029 789 958 789 q 1164 756 1115 789 q 1233 655 1213 724 q 1254 472 1254 586 l 1254 83 l 1351 71 l 1351 0 l 1017 0 l 1017 71 l 1100 83 l 1100 468 q 1088 594 1100 547 q 1045 664 1076 640 q 954 688 1014 688 q 861 667 910 688 q 776 619 813 647 q 789 471 789 560 l 789 83 l 883 71 l 883 0 l 544 0 l 544 71 l 632 83 l 632 471 q 622 597 632 551 q 583 664 613 642 q 497 686 554 686 q 395 663 449 686 q 301 606 342 639 l 301 83 l 392 71 l 392 0 l 63 0 l 63 71 m 685 918 q 622 944 646 918 q 597 1010 597 971 q 624 1085 597 1054 q 697 1117 650 1117 q 765 1090 740 1117 q 789 1025 789 1063 q 763 948 789 978 q 686 918 736 918 l 685 918 z "},"n":{"ha":926,"x_min":47,"x_max":889,"o":"m 144 660 l 47 685 l 47 764 l 251 789 l 256 789 l 286 764 l 286 707 l 285 672 q 416 753 335 718 q 572 789 497 789 q 708 756 660 789 q 775 655 756 724 q 794 471 794 586 l 794 82 l 889 72 l 889 0 l 553 0 l 553 71 l 639 82 l 639 471 q 628 596 639 550 q 588 664 617 642 q 501 686 558 686 q 397 662 451 686 q 301 606 343 638 l 301 83 l 393 71 l 393 0 l 58 0 l 58 71 l 144 83 l 144 660 z "},"ń":{"ha":926,"x_min":47,"x_max":889,"o":"m 144 660 l 47 685 l 47 764 l 251 789 l 256 789 l 286 764 l 286 707 l 285 672 q 416 753 335 718 q 572 789 497 789 q 708 756 660 789 q 775 655 756 724 q 794 471 794 586 l 794 82 l 889 72 l 889 0 l 553 0 l 553 71 l 639 82 l 639 471 q 628 596 639 550 q 588 664 617 642 q 501 686 558 686 q 397 662 451 686 q 301 606 343 638 l 301 83 l 393 71 l 393 0 l 58 0 l 58 71 l 144 83 l 144 660 m 385 953 l 613 1231 l 717 1139 q 588 1008 686 1090 q 440 904 490 925 l 385 953 z "},"ň":{"ha":926,"x_min":47,"x_max":889,"o":"m 267 1219 l 463 1021 l 663 1219 l 717 1179 l 519 908 l 406 908 l 208 1178 l 267 1219 m 144 660 l 47 685 l 47 764 l 251 789 l 256 789 l 286 764 l 286 707 l 285 672 q 416 753 335 718 q 572 789 497 789 q 708 756 660 789 q 775 655 756 724 q 794 471 794 586 l 794 82 l 889 72 l 889 0 l 553 0 l 553 71 l 639 82 l 639 471 q 628 596 639 550 q 588 664 617 642 q 501 686 558 686 q 397 662 451 686 q 301 606 343 638 l 301 83 l 393 71 l 393 0 l 58 0 l 58 71 l 144 83 l 144 660 z "},"ņ":{"ha":926,"x_min":47,"x_max":889,"o":"m 144 660 l 47 685 l 47 764 l 251 789 l 256 789 l 286 764 l 286 707 l 285 672 q 416 753 335 718 q 572 789 497 789 q 708 756 660 789 q 775 655 756 724 q 794 471 794 586 l 794 82 l 889 72 l 889 0 l 553 0 l 553 71 l 639 82 l 639 471 q 628 596 639 550 q 588 664 617 642 q 501 686 558 686 q 397 662 451 686 q 301 606 343 638 l 301 83 l 393 71 l 393 0 l 58 0 l 58 71 l 144 83 l 144 660 m 572 -186 q 551 -278 572 -236 q 503 -347 531 -319 q 463 -378 476 -374 l 461 -378 l 411 -354 l 410 -344 q 441 -308 429 -336 q 453 -250 453 -281 q 445 -221 453 -232 q 425 -200 438 -210 q 396 -143 396 -179 q 422 -91 396 -107 q 474 -75 447 -75 l 479 -75 q 547 -104 522 -75 q 572 -186 572 -133 z "},"ŋ":{"ha":938,"x_min":58,"x_max":807,"o":"m 158 661 l 58 686 l 58 765 l 264 790 l 268 790 l 299 765 l 299 713 l 297 674 q 428 755 347 719 q 585 790 510 790 q 719 758 671 790 q 787 658 767 725 q 807 475 807 590 l 807 15 q 742 -249 807 -157 q 554 -349 678 -342 q 481 -343 489 -349 l 475 -271 q 509 -269 485 -272 q 549 -260 533 -265 q 630 -167 608 -240 q 651 31 651 -93 l 651 475 q 640 597 651 553 q 599 664 629 642 q 513 686 569 686 q 409 662 464 686 q 314 606 354 638 l 314 83 l 406 71 l 406 0 l 71 0 l 71 71 l 158 83 l 158 661 z "},"ǌ":{"ha":1369,"x_min":-15,"x_max":1332,"o":"m 217 918 q 153 944 178 918 q 129 1010 129 971 q 156 1085 129 1054 q 231 1117 183 1117 q 298 1090 274 1117 q 322 1025 322 1063 q 296 948 322 978 q 218 918 269 918 l 217 918 m 57 -337 q -8 -332 1 -337 l -15 -264 q 17 -261 -4 -265 q 60 -249 38 -257 q 139 -155 115 -229 q 163 43 163 -81 l 161 656 l 57 681 l 57 763 l 279 789 l 282 789 l 314 764 l 314 10 q 278 -184 314 -106 q 185 -300 243 -262 q 57 -337 126 -337 m 501 71 l 589 83 l 589 660 l 490 685 l 490 764 l 694 789 l 699 789 l 729 764 l 729 707 l 728 672 q 859 753 778 718 q 1015 789 940 789 q 1151 756 1103 789 q 1218 655 1199 724 q 1238 471 1238 586 l 1238 82 l 1332 72 l 1332 0 l 996 0 l 996 71 l 1082 82 l 1082 471 q 1071 596 1082 550 q 1031 664 1060 642 q 944 686 1001 686 q 840 662 894 686 q 744 606 786 638 l 744 83 l 836 71 l 836 0 l 501 0 l 501 71 z "},"ñ":{"ha":926,"x_min":47,"x_max":889,"o":"m 176 986 q 245 1085 194 1040 q 367 1131 296 1131 q 437 1114 408 1131 q 497 1065 465 1097 q 543 1028 524 1040 q 588 1015 563 1015 q 649 1038 628 1015 q 689 1094 671 1061 l 750 1054 q 683 951 726 993 q 571 910 639 910 q 503 926 531 910 q 442 972 475 942 q 392 1012 414 999 q 343 1025 371 1025 q 279 1001 303 1025 q 238 944 256 978 l 176 986 m 144 660 l 47 685 l 47 764 l 251 789 l 256 789 l 286 764 l 286 707 l 285 672 q 416 753 335 718 q 572 789 497 789 q 708 756 660 789 q 775 655 756 724 q 794 471 794 586 l 794 82 l 889 72 l 889 0 l 553 0 l 553 71 l 639 82 l 639 471 q 628 596 639 550 q 588 664 617 642 q 501 686 558 686 q 397 662 451 686 q 301 606 343 638 l 301 83 l 393 71 l 393 0 l 58 0 l 58 71 l 144 83 l 144 660 z "},"o":{"ha":836,"x_min":56,"x_max":779,"o":"m 56 388 q 107 604 56 513 q 243 744 158 696 q 425 792 328 792 q 690 681 600 792 q 779 389 779 571 q 728 171 779 263 q 592 32 676 79 q 410 -15 507 -15 q 145 95 235 -15 q 56 388 56 206 m 418 65 q 560 144 511 65 q 608 378 608 222 q 563 622 608 533 q 418 711 518 711 q 275 633 325 711 q 225 399 225 554 q 272 155 225 244 q 418 65 318 65 z "},"ó":{"ha":836,"x_min":56,"x_max":779,"o":"m 56 388 q 107 604 56 513 q 243 744 158 696 q 425 792 328 792 q 690 681 600 792 q 779 389 779 571 q 728 171 779 263 q 592 32 676 79 q 410 -15 507 -15 q 145 95 235 -15 q 56 388 56 206 m 418 65 q 560 144 511 65 q 608 378 608 222 q 563 622 608 533 q 418 711 518 711 q 275 633 325 711 q 225 399 225 554 q 272 155 225 244 q 418 65 318 65 m 339 953 l 567 1231 l 671 1139 q 542 1008 640 1090 q 394 904 444 925 l 339 953 z "},"ŏ":{"ha":836,"x_min":56,"x_max":779,"o":"m 422 917 q 297 948 350 917 q 215 1031 243 979 q 186 1146 186 1083 q 189 1190 186 1178 l 265 1190 q 267 1165 265 1175 q 310 1072 274 1113 q 422 1032 347 1032 q 531 1072 496 1032 q 572 1164 567 1113 q 574 1190 575 1185 l 650 1190 q 653 1147 653 1165 q 624 1032 653 1085 q 542 948 594 979 q 422 917 490 917 m 56 388 q 107 604 56 513 q 243 744 158 696 q 425 792 328 792 q 690 681 600 792 q 779 389 779 571 q 728 171 779 263 q 592 32 676 79 q 410 -15 507 -15 q 145 95 235 -15 q 56 388 56 206 m 418 65 q 560 144 511 65 q 608 378 608 222 q 563 622 608 533 q 418 711 518 711 q 275 633 325 711 q 225 399 225 554 q 272 155 225 244 q 418 65 318 65 z "},"ô":{"ha":836,"x_min":56,"x_max":779,"o":"m 364 1208 l 476 1208 l 674 938 l 615 896 l 419 1093 l 218 896 l 164 936 l 364 1208 m 56 388 q 107 604 56 513 q 243 744 158 696 q 425 792 328 792 q 690 681 600 792 q 779 389 779 571 q 728 171 779 263 q 592 32 676 79 q 410 -15 507 -15 q 145 95 235 -15 q 56 388 56 206 m 418 65 q 560 144 511 65 q 608 378 608 222 q 563 622 608 533 q 418 711 518 711 q 275 633 325 711 q 225 399 225 554 q 272 155 225 244 q 418 65 318 65 z "},"ố":{"ha":836,"x_min":56,"x_max":890,"o":"m 596 1079 l 799 1326 l 890 1244 q 777 1129 864 1203 q 646 1036 690 1056 l 596 1079 m 369 1160 l 468 1160 l 643 919 l 592 882 l 419 1057 l 240 882 l 192 918 l 369 1160 m 56 388 q 107 604 56 513 q 243 744 158 696 q 425 792 328 792 q 690 681 600 792 q 779 389 779 571 q 728 171 779 263 q 592 32 676 79 q 410 -15 507 -15 q 145 95 235 -15 q 56 388 56 206 m 418 65 q 560 144 511 65 q 608 378 608 222 q 563 622 608 533 q 418 711 518 711 q 275 633 325 711 q 225 399 225 554 q 272 155 225 244 q 418 65 318 65 z "},"ộ":{"ha":836,"x_min":56,"x_max":779,"o":"m 56 388 q 107 604 56 513 q 243 744 158 696 q 425 792 328 792 q 690 681 600 792 q 779 389 779 571 q 728 171 779 263 q 592 32 676 79 q 410 -15 507 -15 q 145 95 235 -15 q 56 388 56 206 m 418 65 q 560 144 511 65 q 608 378 608 222 q 563 622 608 533 q 418 711 518 711 q 275 633 325 711 q 225 399 225 554 q 272 155 225 244 q 418 65 318 65 m 410 -257 q 355 -234 376 -257 q 333 -178 333 -211 q 357 -112 333 -139 q 421 -85 381 -85 q 479 -108 458 -85 q 500 -164 500 -132 q 477 -231 500 -206 q 411 -257 454 -257 l 410 -257 m 363 1208 l 475 1208 l 672 938 l 614 896 l 419 1093 l 218 896 l 163 936 l 363 1208 z "},"ồ":{"ha":836,"x_min":56,"x_max":779,"o":"m 603 1150 q 474 1241 563 1165 q 360 1358 386 1317 l 453 1440 l 654 1193 l 604 1150 l 603 1150 m 369 1158 l 468 1158 l 643 918 l 592 881 l 419 1056 l 240 881 l 192 917 l 369 1158 m 56 388 q 107 604 56 513 q 243 744 158 696 q 425 792 328 792 q 690 681 600 792 q 779 389 779 571 q 728 171 779 263 q 592 32 676 79 q 410 -15 507 -15 q 145 95 235 -15 q 56 388 56 206 m 418 65 q 560 144 511 65 q 608 378 608 222 q 563 622 608 533 q 418 711 518 711 q 275 633 325 711 q 225 399 225 554 q 272 155 225 244 q 418 65 318 65 z "},"ổ":{"ha":836,"x_min":56,"x_max":783,"o":"m 633 1082 q 617 1109 625 1093 q 608 1133 608 1125 q 618 1159 608 1149 q 646 1182 628 1169 q 672 1202 664 1194 q 683 1222 681 1210 l 683 1228 q 668 1265 683 1250 q 619 1283 653 1281 q 579 1281 583 1283 l 574 1363 q 594 1369 576 1367 q 626 1371 613 1371 q 738 1338 693 1371 q 783 1243 783 1304 q 767 1195 783 1214 q 721 1157 750 1176 l 693 1136 q 679 1107 679 1125 q 682 1089 679 1103 l 633 1082 m 369 1158 l 468 1158 l 643 918 l 592 881 l 419 1056 l 240 881 l 192 917 l 369 1158 m 56 388 q 107 604 56 513 q 243 744 158 696 q 425 792 328 792 q 690 681 600 792 q 779 389 779 571 q 728 171 779 263 q 592 32 676 79 q 410 -15 507 -15 q 145 95 235 -15 q 56 388 56 206 m 418 65 q 560 144 511 65 q 608 378 608 222 q 563 622 608 533 q 418 711 518 711 q 275 633 325 711 q 225 399 225 554 q 272 155 225 244 q 418 65 318 65 z "},"ỗ":{"ha":836,"x_min":56,"x_max":779,"o":"m 192 1246 q 253 1333 208 1293 q 363 1374 299 1374 q 423 1359 399 1374 q 476 1317 447 1344 q 517 1283 499 1294 q 557 1271 535 1271 q 611 1291 592 1271 q 647 1342 631 1311 l 701 1306 q 642 1215 681 1251 q 542 1178 603 1178 q 483 1192 507 1178 q 426 1233 458 1206 q 382 1268 400 1257 q 340 1279 364 1279 q 285 1260 306 1279 q 246 1208 265 1240 l 192 1246 m 368 1160 l 467 1160 l 642 919 l 590 882 l 418 1057 l 239 882 l 190 918 l 368 1160 m 56 388 q 107 604 56 513 q 243 744 158 696 q 425 792 328 792 q 690 681 600 792 q 779 389 779 571 q 728 171 779 263 q 592 32 676 79 q 410 -15 507 -15 q 145 95 235 -15 q 56 388 56 206 m 418 65 q 560 144 511 65 q 608 378 608 222 q 563 622 608 533 q 418 711 518 711 q 275 633 325 711 q 225 399 225 554 q 272 155 225 244 q 418 65 318 65 z "},"ö":{"ha":836,"x_min":56,"x_max":779,"o":"m 56 388 q 107 604 56 513 q 243 744 158 696 q 425 792 328 792 q 690 681 600 792 q 779 389 779 571 q 728 171 779 263 q 592 32 676 79 q 410 -15 507 -15 q 145 95 235 -15 q 56 388 56 206 m 418 65 q 560 144 511 65 q 608 378 608 222 q 563 622 608 533 q 418 711 518 711 q 275 633 325 711 q 225 399 225 554 q 272 155 225 244 q 418 65 318 65 m 247 922 q 189 948 211 922 q 167 1013 167 974 q 192 1088 167 1057 q 263 1118 217 1118 q 326 1091 303 1118 q 349 1026 349 1064 q 323 951 349 981 q 247 922 297 922 m 565 922 q 507 949 529 922 q 485 1013 485 975 q 510 1088 485 1057 q 581 1118 535 1118 q 645 1091 622 1118 q 668 1026 668 1064 q 642 951 668 981 q 565 922 615 922 z "},"ọ":{"ha":836,"x_min":56,"x_max":779,"o":"m 56 388 q 107 604 56 513 q 243 744 158 696 q 425 792 328 792 q 690 681 600 792 q 779 389 779 571 q 728 171 779 263 q 592 32 676 79 q 410 -15 507 -15 q 145 95 235 -15 q 56 388 56 206 m 418 65 q 560 144 511 65 q 608 378 608 222 q 563 622 608 533 q 418 711 518 711 q 275 633 325 711 q 225 399 225 554 q 272 155 225 244 q 418 65 318 65 m 410 -257 q 355 -234 376 -257 q 333 -178 333 -211 q 357 -112 333 -139 q 421 -85 381 -85 q 479 -108 458 -85 q 500 -164 500 -132 q 477 -231 500 -206 q 411 -257 454 -257 l 410 -257 z "},"ò":{"ha":836,"x_min":56,"x_max":779,"o":"m 450 904 q 305 1006 404 922 q 176 1139 206 1090 l 281 1231 l 508 953 l 451 904 l 450 904 m 56 388 q 107 604 56 513 q 243 744 158 696 q 425 792 328 792 q 690 681 600 792 q 779 389 779 571 q 728 171 779 263 q 592 32 676 79 q 410 -15 507 -15 q 145 95 235 -15 q 56 388 56 206 m 418 65 q 560 144 511 65 q 608 378 608 222 q 563 622 608 533 q 418 711 518 711 q 275 633 325 711 q 225 399 225 554 q 272 155 225 244 q 418 65 318 65 z "},"ỏ":{"ha":836,"x_min":56,"x_max":779,"o":"m 56 388 q 107 604 56 513 q 243 744 158 696 q 425 792 328 792 q 690 681 600 792 q 779 389 779 571 q 728 171 779 263 q 592 32 676 79 q 410 -15 507 -15 q 145 95 235 -15 q 56 388 56 206 m 418 65 q 560 144 511 65 q 608 378 608 222 q 563 622 608 533 q 418 711 518 711 q 275 633 325 711 q 225 399 225 554 q 272 155 225 244 q 418 65 318 65 m 374 858 q 346 917 346 899 q 356 946 346 935 q 388 971 367 957 q 416 993 406 983 q 431 1017 426 1003 l 431 1022 q 413 1065 431 1047 q 358 1086 396 1082 q 313 1082 318 1086 l 307 1175 q 331 1182 310 1179 q 367 1185 351 1185 q 492 1147 442 1185 q 543 1040 543 1108 q 524 985 543 1007 q 471 942 506 964 q 455 930 463 935 q 442 919 447 925 q 426 888 426 904 q 429 867 426 875 l 374 858 z "},"ơ":{"ha":836,"x_min":56,"x_max":908,"o":"m 908 918 q 845 763 908 829 q 693 676 782 696 q 779 389 779 572 q 728 171 779 263 q 592 32 676 79 q 410 -15 507 -15 q 145 95 235 -15 q 56 388 56 206 q 107 604 56 513 q 243 744 158 696 q 425 792 328 792 q 636 731 551 792 l 636 771 q 747 818 711 771 q 790 925 782 865 q 792 949 793 943 l 906 949 q 908 918 908 926 m 418 65 q 560 144 511 65 q 608 378 608 222 q 563 622 608 533 q 418 711 518 711 q 275 633 325 711 q 225 399 225 554 q 272 155 225 244 q 418 65 318 65 z "},"ớ":{"ha":836,"x_min":56,"x_max":908,"o":"m 908 918 q 845 763 908 829 q 693 676 782 696 q 779 389 779 572 q 728 171 779 263 q 592 32 676 79 q 410 -15 507 -15 q 145 95 235 -15 q 56 388 56 206 q 107 604 56 513 q 243 744 158 696 q 425 792 328 792 q 636 731 551 792 l 636 771 q 747 818 711 771 q 790 925 782 865 q 792 949 793 943 l 906 949 q 908 918 908 926 m 418 65 q 560 144 511 65 q 608 378 608 222 q 563 622 608 533 q 418 711 518 711 q 275 633 325 711 q 225 399 225 554 q 272 155 225 244 q 418 65 318 65 m 339 953 l 567 1231 l 671 1139 q 542 1008 640 1090 q 394 904 444 925 l 339 953 z "},"ợ":{"ha":836,"x_min":56,"x_max":908,"o":"m 908 918 q 845 763 908 829 q 693 676 782 696 q 779 389 779 572 q 728 171 779 263 q 592 32 676 79 q 410 -15 507 -15 q 145 95 235 -15 q 56 388 56 206 q 107 604 56 513 q 243 744 158 696 q 425 792 328 792 q 636 731 551 792 l 636 771 q 747 818 711 771 q 790 925 782 865 q 792 949 793 943 l 906 949 q 908 918 908 926 m 418 65 q 560 144 511 65 q 608 378 608 222 q 563 622 608 533 q 418 711 518 711 q 275 633 325 711 q 225 399 225 554 q 272 155 225 244 q 418 65 318 65 m 410 -257 q 355 -234 376 -257 q 333 -178 333 -211 q 357 -112 333 -139 q 421 -85 381 -85 q 479 -108 458 -85 q 500 -164 500 -132 q 477 -231 500 -206 q 411 -257 454 -257 l 410 -257 z "},"ờ":{"ha":836,"x_min":56,"x_max":908,"o":"m 908 918 q 845 763 908 829 q 693 676 782 696 q 779 389 779 572 q 728 171 779 263 q 592 32 676 79 q 410 -15 507 -15 q 145 95 235 -15 q 56 388 56 206 q 107 604 56 513 q 243 744 158 696 q 425 792 328 792 q 636 731 551 792 l 636 771 q 747 818 711 771 q 790 925 782 865 q 792 949 793 943 l 906 949 q 908 918 908 926 m 418 65 q 560 144 511 65 q 608 378 608 222 q 563 622 608 533 q 418 711 518 711 q 275 633 325 711 q 225 399 225 554 q 272 155 225 244 q 418 65 318 65 m 453 904 q 308 1006 407 922 q 179 1139 208 1090 l 283 1231 l 511 953 l 454 904 l 453 904 z "},"ở":{"ha":836,"x_min":56,"x_max":908,"o":"m 908 918 q 845 763 908 829 q 693 676 782 696 q 779 389 779 572 q 728 171 779 263 q 592 32 676 79 q 410 -15 507 -15 q 145 95 235 -15 q 56 388 56 206 q 107 604 56 513 q 243 744 158 696 q 425 792 328 792 q 636 731 551 792 l 636 771 q 747 818 711 771 q 790 925 782 865 q 792 949 793 943 l 906 949 q 908 918 908 926 m 418 65 q 560 144 511 65 q 608 378 608 222 q 563 622 608 533 q 418 711 518 711 q 275 633 325 711 q 225 399 225 554 q 272 155 225 244 q 418 65 318 65 m 374 858 q 346 917 346 899 q 356 946 346 935 q 388 971 367 957 q 416 993 406 983 q 431 1017 426 1003 l 431 1022 q 413 1065 431 1047 q 358 1086 396 1082 q 313 1082 318 1086 l 307 1175 q 331 1182 310 1179 q 367 1185 351 1185 q 492 1147 442 1185 q 543 1040 543 1108 q 524 985 543 1007 q 471 942 506 964 q 455 930 463 935 q 442 919 447 925 q 426 888 426 904 q 429 867 426 875 l 374 858 z "},"ỡ":{"ha":836,"x_min":56,"x_max":908,"o":"m 908 918 q 845 763 908 829 q 693 676 782 696 q 779 389 779 572 q 728 171 779 263 q 592 32 676 79 q 410 -15 507 -15 q 145 95 235 -15 q 56 388 56 206 q 107 604 56 513 q 243 744 158 696 q 425 792 328 792 q 636 731 551 792 l 636 771 q 747 818 711 771 q 790 925 782 865 q 792 949 793 943 l 906 949 q 908 918 908 926 m 418 65 q 560 144 511 65 q 608 378 608 222 q 563 622 608 533 q 418 711 518 711 q 275 633 325 711 q 225 399 225 554 q 272 155 225 244 q 418 65 318 65 m 131 986 q 201 1085 150 1040 q 322 1131 251 1131 q 391 1114 363 1131 q 451 1065 419 1097 q 497 1028 478 1040 q 542 1015 517 1015 q 602 1037 581 1015 q 644 1094 624 1058 l 706 1054 q 638 951 682 993 q 525 910 593 910 q 458 926 485 910 q 396 974 431 942 q 346 1013 367 1000 q 299 1025 325 1025 q 236 1003 258 1025 q 192 944 214 981 l 131 986 z "},"ő":{"ha":836,"x_min":56,"x_max":826,"o":"m 490 1151 q 374 1026 460 1103 q 235 913 289 949 l 182 954 l 394 1231 l 490 1151 m 826 1149 q 711 1026 800 1104 q 567 913 622 947 l 514 957 l 736 1226 l 826 1149 m 56 388 q 107 604 56 513 q 243 744 158 696 q 425 792 328 792 q 690 681 600 792 q 779 389 779 571 q 728 171 779 263 q 592 32 676 79 q 410 -15 507 -15 q 145 95 235 -15 q 56 388 56 206 m 418 65 q 560 144 511 65 q 608 378 608 222 q 563 622 608 533 q 418 711 518 711 q 275 633 325 711 q 225 399 225 554 q 272 155 225 244 q 418 65 318 65 z "},"ō":{"ha":836,"x_min":56,"x_max":779,"o":"m 614 1069 l 614 968 l 226 968 l 226 1069 l 614 1069 m 56 388 q 107 604 56 513 q 243 744 158 696 q 425 792 328 792 q 690 681 600 792 q 779 389 779 571 q 728 171 779 263 q 592 32 676 79 q 410 -15 507 -15 q 145 95 235 -15 q 56 388 56 206 m 418 65 q 560 144 511 65 q 608 378 608 222 q 563 622 608 533 q 418 711 518 711 q 275 633 325 711 q 225 399 225 554 q 272 155 225 244 q 418 65 318 65 z "},"ø":{"ha":836,"x_min":56,"x_max":779,"o":"m 56 388 q 107 604 56 513 q 243 744 158 696 q 425 792 328 792 q 525 781 476 792 l 574 917 l 639 899 l 592 757 q 732 616 685 713 q 779 389 779 519 q 728 171 779 263 q 592 32 676 79 q 410 -15 507 -15 q 313 -4 361 -15 l 258 -150 l 190 -132 l 246 17 q 103 158 151 61 q 56 388 56 256 m 225 399 q 243 240 225 310 q 299 131 261 171 l 499 689 q 418 711 461 711 q 275 633 325 711 q 225 399 225 554 m 418 65 q 560 144 511 65 q 608 378 608 222 q 539 643 608 563 l 339 88 q 418 65 375 65 z "},"õ":{"ha":836,"x_min":56,"x_max":779,"o":"m 135 986 q 203 1085 153 1040 q 325 1131 254 1131 q 395 1114 367 1131 q 456 1065 424 1097 q 501 1028 482 1040 q 546 1015 521 1015 q 608 1038 586 1015 q 647 1094 629 1061 l 708 1054 q 641 951 685 993 q 529 910 597 910 q 461 926 489 910 q 400 972 433 942 q 351 1012 372 999 q 301 1025 329 1025 q 238 1001 261 1025 q 196 944 214 978 l 135 986 m 56 388 q 107 604 56 513 q 243 744 158 696 q 425 792 328 792 q 690 681 600 792 q 779 389 779 571 q 728 171 779 263 q 592 32 676 79 q 410 -15 507 -15 q 145 95 235 -15 q 56 388 56 206 m 418 65 q 560 144 511 65 q 608 378 608 222 q 563 622 608 533 q 418 711 518 711 q 275 633 325 711 q 225 399 225 554 q 272 155 225 244 q 418 65 318 65 z "},"œ":{"ha":1318,"x_min":57,"x_max":1263,"o":"m 411 -15 q 147 92 238 -15 q 57 388 57 200 q 109 604 57 513 q 246 744 161 696 q 429 792 331 792 q 592 756 524 792 q 703 653 661 721 q 822 756 750 719 q 982 792 894 792 q 1185 720 1113 792 q 1261 514 1257 649 q 1253 385 1263 432 l 779 385 q 842 167 782 249 q 1011 86 901 86 q 1127 106 1067 86 q 1221 151 1188 125 l 1249 89 q 1128 16 1208 47 q 967 -15 1049 -15 q 799 22 869 -15 q 686 129 729 60 q 567 23 639 61 q 411 -15 496 -15 m 419 67 q 610 379 610 67 q 563 624 610 538 q 418 711 517 711 q 276 633 325 711 q 226 399 226 554 q 275 151 226 236 q 419 67 324 67 m 1101 460 q 1104 519 1104 499 q 1069 660 1104 608 q 957 711 1033 711 q 833 653 879 711 q 779 460 786 596 l 1101 460 z "},"p":{"ha":875,"x_min":40,"x_max":817,"o":"m 817 413 q 769 197 817 294 q 630 42 721 100 q 417 -15 539 -15 q 347 -10 385 -15 q 288 4 310 -4 l 292 -112 l 292 -250 l 432 -265 l 432 -336 l 40 -336 l 40 -265 l 139 -250 l 139 660 l 40 685 l 40 764 l 243 789 l 246 789 l 275 764 l 275 683 q 378 760 317 728 q 514 792 439 792 q 666 751 597 792 q 776 626 735 711 q 817 413 817 542 m 454 692 q 360 670 404 692 q 292 622 315 649 l 292 100 q 339 72 301 85 q 422 60 376 60 q 590 142 526 60 q 653 396 653 225 q 597 618 653 544 q 454 692 542 692 z "},"ṗ":{"ha":875,"x_min":40,"x_max":817,"o":"m 468 918 q 405 944 429 918 q 381 1010 381 971 q 408 1085 381 1054 q 482 1117 435 1117 q 549 1090 525 1117 q 574 1025 574 1063 q 547 948 574 978 q 469 918 519 918 l 468 918 m 817 413 q 769 197 817 294 q 630 42 721 100 q 417 -15 539 -15 q 347 -10 385 -15 q 288 4 310 -4 l 292 -112 l 292 -250 l 432 -265 l 432 -336 l 40 -336 l 40 -265 l 139 -250 l 139 660 l 40 685 l 40 764 l 243 789 l 246 789 l 275 764 l 275 683 q 378 760 317 728 q 514 792 439 792 q 666 751 597 792 q 776 626 735 711 q 817 413 817 542 m 454 692 q 360 670 404 692 q 292 622 315 649 l 292 100 q 339 72 301 85 q 422 60 376 60 q 590 142 526 60 q 653 396 653 225 q 597 618 653 544 q 454 692 542 692 z "},"þ":{"ha":849,"x_min":0,"x_max":792,"o":"m 229 1138 l 232 1138 l 265 1115 l 265 700 q 363 765 306 739 q 489 792 419 792 q 641 751 572 792 q 751 626 710 711 q 792 413 792 542 q 742 195 792 293 q 601 41 693 97 q 388 -15 510 -15 q 261 -4 333 -15 l 264 -93 l 265 -254 l 414 -271 l 414 -336 l 13 -336 l 13 -271 l 113 -254 l 113 1035 l 0 1049 l 0 1111 l 229 1138 m 429 689 q 334 665 378 689 q 265 613 290 642 l 265 103 q 311 72 274 83 q 396 61 349 61 q 563 146 500 61 q 626 396 626 231 q 571 616 626 543 q 429 689 515 689 z "},"q":{"ha":847,"x_min":57,"x_max":833,"o":"m 431 -268 l 585 -253 l 585 -32 l 589 81 q 488 12 546 39 q 361 -15 431 -15 q 210 27 279 -15 q 99 156 140 69 q 57 371 57 243 q 105 583 57 488 q 244 735 153 679 q 461 792 336 792 q 629 767 532 792 l 710 786 l 738 764 l 738 -254 l 833 -268 l 833 -336 l 431 -336 l 431 -268 m 422 81 q 515 103 472 81 q 585 153 558 125 l 585 676 q 537 706 576 693 q 451 718 497 718 q 286 636 349 718 q 224 382 224 554 q 279 157 224 233 q 422 81 335 81 z "},"r":{"ha":640,"x_min":65,"x_max":610,"o":"m 65 71 l 167 81 l 167 660 l 68 685 l 68 764 l 265 789 l 268 789 l 299 764 l 299 738 l 296 628 l 299 628 q 347 690 311 651 q 440 760 383 729 q 564 792 497 792 q 610 785 586 792 l 610 619 q 577 634 599 628 q 528 640 556 640 q 321 572 414 640 l 321 81 l 494 69 l 494 0 l 65 0 l 65 71 z "},"ŕ":{"ha":640,"x_min":65,"x_max":611,"o":"m 65 71 l 167 81 l 167 660 l 68 685 l 68 764 l 265 789 l 268 789 l 299 764 l 299 738 l 296 628 l 299 628 q 347 690 311 651 q 440 760 383 729 q 564 792 497 792 q 610 785 586 792 l 610 619 q 577 634 599 628 q 528 640 556 640 q 321 572 414 640 l 321 81 l 494 69 l 494 0 l 65 0 l 65 71 m 279 953 l 507 1231 l 611 1139 q 483 1008 581 1090 q 335 904 385 925 l 279 953 z "},"ř":{"ha":640,"x_min":65,"x_max":611,"o":"m 65 71 l 167 81 l 167 660 l 68 685 l 68 764 l 265 789 l 268 789 l 299 764 l 299 738 l 296 628 l 299 628 q 347 690 311 651 q 440 760 383 729 q 564 792 497 792 q 610 785 586 792 l 610 619 q 577 634 599 628 q 528 640 556 640 q 321 572 414 640 l 321 81 l 494 69 l 494 0 l 65 0 l 65 71 m 163 1219 l 358 1021 l 557 1219 l 611 1179 l 414 908 l 301 908 l 104 1178 l 163 1219 z "},"ŗ":{"ha":640,"x_min":65,"x_max":610,"o":"m 65 71 l 167 81 l 167 660 l 68 685 l 68 764 l 265 789 l 268 789 l 299 764 l 299 738 l 296 628 l 299 628 q 347 690 311 651 q 440 760 383 729 q 564 792 497 792 q 610 785 586 792 l 610 619 q 577 634 599 628 q 528 640 556 640 q 321 572 414 640 l 321 81 l 494 69 l 494 0 l 65 0 l 65 71 m 358 -186 q 337 -278 358 -236 q 289 -347 315 -319 q 249 -378 263 -374 l 247 -378 l 197 -354 l 196 -344 q 226 -308 214 -336 q 239 -250 239 -281 q 231 -221 239 -232 q 210 -200 224 -210 q 182 -143 182 -181 q 207 -91 182 -107 q 260 -75 232 -75 l 264 -75 q 333 -104 307 -75 q 358 -186 358 -133 z "},"s":{"ha":706,"x_min":75,"x_max":644,"o":"m 197 113 q 253 76 210 92 q 346 60 297 60 q 459 90 422 60 q 496 171 496 119 q 472 235 496 208 q 406 283 447 263 q 283 338 364 304 q 130 434 179 378 q 81 582 81 490 q 117 690 81 643 q 219 763 154 738 q 367 789 285 789 q 476 779 429 789 q 568 754 522 769 q 584 750 576 753 q 599 746 592 747 l 599 572 l 510 572 l 482 675 q 438 703 472 692 q 360 715 403 715 q 261 688 299 715 q 224 615 224 660 q 244 548 224 575 q 294 503 264 521 q 378 465 325 486 l 404 454 q 530 395 481 424 q 612 322 579 367 q 644 211 644 276 q 565 47 644 108 q 343 -15 485 -15 q 198 3 271 -15 q 75 42 125 21 l 75 221 l 171 221 l 197 113 z "},"ś":{"ha":706,"x_min":75,"x_max":644,"o":"m 197 113 q 253 76 210 92 q 346 60 297 60 q 459 90 422 60 q 496 171 496 119 q 472 235 496 208 q 406 283 447 263 q 283 338 364 304 q 130 434 179 378 q 81 582 81 490 q 117 690 81 643 q 219 763 154 738 q 367 789 285 789 q 476 779 429 789 q 568 754 522 769 q 584 750 576 753 q 599 746 592 747 l 599 572 l 510 572 l 482 675 q 438 703 472 692 q 360 715 403 715 q 261 688 299 715 q 224 615 224 660 q 244 548 224 575 q 294 503 264 521 q 378 465 325 486 l 404 454 q 530 395 481 424 q 612 322 579 367 q 644 211 644 276 q 565 47 644 108 q 343 -15 485 -15 q 198 3 271 -15 q 75 42 125 21 l 75 221 l 171 221 l 197 113 m 274 953 l 501 1231 l 606 1139 q 477 1008 575 1090 q 329 904 379 925 l 274 953 z "},"š":{"ha":713,"x_min":75,"x_max":644,"o":"m 176 1219 l 372 1021 l 572 1219 l 626 1179 l 429 908 l 315 908 l 118 1178 l 176 1219 m 197 113 q 253 76 210 92 q 346 60 297 60 q 459 90 422 60 q 496 171 496 119 q 472 235 496 208 q 406 283 447 263 q 283 338 364 304 q 130 434 179 378 q 81 582 81 490 q 117 690 81 643 q 219 763 154 738 q 367 789 285 789 q 476 779 429 789 q 568 754 522 769 q 584 750 576 753 q 599 746 592 747 l 599 572 l 510 572 l 482 675 q 438 703 472 692 q 360 715 403 715 q 261 688 299 715 q 224 615 224 660 q 244 548 224 575 q 294 503 264 521 q 378 465 325 486 l 404 454 q 530 395 481 424 q 612 322 579 367 q 644 211 644 276 q 565 47 644 108 q 343 -15 485 -15 q 198 3 271 -15 q 75 42 125 21 l 75 221 l 171 221 l 197 113 z "},"ŝ":{"ha":713,"x_min":75,"x_max":644,"o":"m 315 1208 l 428 1208 l 625 938 l 565 896 l 371 1093 l 169 896 l 114 936 l 315 1208 m 197 113 q 253 76 210 92 q 346 60 297 60 q 459 90 422 60 q 496 171 496 119 q 472 235 496 208 q 406 283 447 263 q 283 338 364 304 q 130 434 179 378 q 81 582 81 490 q 117 690 81 643 q 219 763 154 738 q 367 789 285 789 q 476 779 429 789 q 568 754 522 769 q 584 750 576 753 q 599 746 592 747 l 599 572 l 510 572 l 482 675 q 438 703 472 692 q 360 715 403 715 q 261 688 299 715 q 224 615 224 660 q 244 548 224 575 q 294 503 264 521 q 378 465 325 486 l 404 454 q 530 395 481 424 q 612 322 579 367 q 644 211 644 276 q 565 47 644 108 q 343 -15 485 -15 q 198 3 271 -15 q 75 42 125 21 l 75 221 l 171 221 l 197 113 z "},"ș":{"ha":713,"x_min":75,"x_max":644,"o":"m 197 113 q 253 76 210 92 q 346 60 297 60 q 459 90 422 60 q 496 171 496 119 q 472 235 496 208 q 406 283 447 263 q 283 338 364 304 q 130 434 179 378 q 81 582 81 490 q 117 690 81 643 q 219 763 154 738 q 367 789 285 789 q 476 779 429 789 q 568 754 522 769 q 584 750 576 753 q 599 746 592 747 l 599 572 l 510 572 l 482 675 q 438 703 472 692 q 360 715 403 715 q 261 688 299 715 q 224 615 224 660 q 244 548 224 575 q 294 503 264 521 q 378 465 325 486 l 404 454 q 530 395 481 424 q 612 322 579 367 q 644 211 644 276 q 565 47 644 108 q 343 -15 485 -15 q 198 3 271 -15 q 75 42 125 21 l 75 221 l 171 221 l 197 113 m 451 -186 q 431 -278 451 -236 q 383 -347 410 -319 q 343 -378 357 -374 l 342 -378 l 292 -354 l 290 -344 q 320 -308 308 -336 q 332 -250 332 -281 q 324 -221 332 -232 q 304 -200 317 -210 q 276 -143 276 -181 q 301 -91 276 -107 q 353 -75 326 -75 l 358 -75 q 426 -104 401 -75 q 451 -186 451 -133 z "},"ṡ":{"ha":706,"x_min":75,"x_max":644,"o":"m 357 918 q 293 944 317 918 q 269 1010 269 971 q 296 1085 269 1054 q 369 1117 322 1117 q 437 1090 413 1117 q 461 1025 461 1063 q 435 948 461 978 q 358 918 408 918 l 357 918 m 197 113 q 253 76 210 92 q 346 60 297 60 q 459 90 422 60 q 496 171 496 119 q 472 235 496 208 q 406 283 447 263 q 283 338 364 304 q 130 434 179 378 q 81 582 81 490 q 117 690 81 643 q 219 763 154 738 q 367 789 285 789 q 476 779 429 789 q 568 754 522 769 q 584 750 576 753 q 599 746 592 747 l 599 572 l 510 572 l 482 675 q 438 703 472 692 q 360 715 403 715 q 261 688 299 715 q 224 615 224 660 q 244 548 224 575 q 294 503 264 521 q 378 465 325 486 l 404 454 q 530 395 481 424 q 612 322 579 367 q 644 211 644 276 q 565 47 644 108 q 343 -15 485 -15 q 198 3 271 -15 q 75 42 125 21 l 75 221 l 171 221 l 197 113 z "},"ß":{"ha":886,"x_min":33,"x_max":858,"o":"m 125 649 q 178 883 125 783 q 321 1037 231 983 q 522 1090 411 1090 q 702 1043 635 1090 q 769 906 769 996 q 746 808 769 846 q 678 726 722 769 q 628 669 643 692 q 613 618 613 647 q 635 556 613 585 q 708 485 658 528 q 785 410 756 443 q 837 333 815 378 q 858 231 858 288 q 772 49 858 113 q 539 -15 686 -15 q 479 -10 515 -15 q 422 0 443 -6 l 422 101 q 546 78 481 78 q 656 112 619 78 q 692 203 692 146 q 664 300 692 260 q 582 390 636 340 q 501 481 528 443 q 475 574 475 519 q 491 634 475 607 q 539 699 507 661 q 598 783 578 746 q 618 874 618 821 q 490 1007 618 1007 q 336 921 392 1007 q 281 671 281 835 l 281 0 l 33 0 l 33 71 l 125 83 l 125 649 z "},"ə":{"ha":757,"x_min":56,"x_max":700,"o":"m 351 786 q 611 676 522 786 q 700 383 700 567 q 653 171 700 263 q 524 29 607 79 q 335 -21 442 -21 q 132 51 204 -21 q 56 257 60 122 q 65 386 56 342 l 538 386 q 475 603 535 522 q 306 685 415 685 q 190 665 250 685 q 97 619 131 646 l 68 682 q 188 755 107 724 q 351 786 268 786 m 215 311 q 213 251 213 272 q 248 110 213 161 q 360 60 283 60 q 485 117 439 60 q 538 311 531 174 l 215 311 z "},"t":{"ha":565,"x_min":42,"x_max":546,"o":"m 300 -14 q 179 24 219 -14 q 139 147 139 61 l 139 676 l 42 676 l 42 740 q 83 752 53 743 q 124 768 113 761 q 160 819 146 781 q 204 972 172 849 l 292 972 l 294 771 l 524 771 l 524 676 l 296 676 l 296 257 q 301 146 296 178 q 321 104 306 114 q 374 94 336 94 q 455 104 411 94 q 524 125 499 114 l 546 60 q 437 10 511 33 q 300 -14 363 -14 z "},"ŧ":{"ha":567,"x_min":42,"x_max":546,"o":"m 140 676 l 42 676 l 42 740 q 90 755 61 746 q 125 768 119 764 q 160 819 146 781 q 204 972 172 849 l 292 972 l 294 771 l 524 771 l 524 676 l 296 676 l 296 500 l 521 500 l 521 413 l 296 413 l 296 257 q 301 146 296 178 q 321 104 306 114 q 374 94 336 94 q 455 104 411 94 q 524 125 499 114 l 525 125 l 546 60 q 437 10 511 33 q 300 -14 363 -14 l 299 -14 q 179 23 218 -14 q 140 147 140 60 l 140 413 l 42 413 l 42 500 l 140 500 l 140 676 z "},"ť":{"ha":565,"x_min":42,"x_max":576,"o":"m 300 -14 q 179 24 219 -14 q 139 147 139 61 l 139 676 l 42 676 l 42 740 q 83 752 53 743 q 124 768 113 761 q 160 819 146 781 q 204 972 172 849 l 292 972 l 294 771 l 524 771 l 524 676 l 296 676 l 296 257 q 301 146 296 178 q 321 104 306 114 q 374 94 336 94 q 455 104 411 94 q 524 125 499 114 l 546 60 q 437 10 511 33 q 300 -14 363 -14 m 431 874 l 428 890 q 453 1075 453 969 q 442 1184 453 1133 q 418 1253 431 1235 l 424 1278 l 536 1303 q 565 1236 554 1283 q 576 1133 576 1189 q 551 964 576 1044 q 496 853 526 883 l 431 874 z "},"ţ":{"ha":565,"x_min":42,"x_max":546,"o":"m 546 60 q 473 22 521 42 q 375 -6 425 3 q 432 -87 406 -37 q 458 -192 458 -137 q 413 -304 458 -271 q 275 -337 367 -337 q 224 -332 251 -337 q 176 -318 196 -326 l 178 -219 q 209 -227 192 -224 q 239 -231 226 -231 q 318 -212 294 -231 q 342 -132 342 -193 q 331 -70 342 -103 q 304 -14 319 -37 l 300 -14 q 179 24 219 -14 q 139 147 139 61 l 139 676 l 42 676 l 42 740 q 83 752 53 743 q 124 768 113 761 q 160 819 146 781 q 204 972 172 849 l 292 972 l 294 771 l 524 771 l 524 676 l 296 676 l 296 257 q 301 146 296 178 q 321 104 306 114 q 374 94 336 94 q 455 104 411 94 q 524 125 499 114 l 546 60 z "},"ț":{"ha":565,"x_min":42,"x_max":546,"o":"m 300 -14 q 179 24 219 -14 q 139 147 139 61 l 139 676 l 42 676 l 42 740 q 83 752 53 743 q 124 768 113 761 q 160 819 146 781 q 204 972 172 849 l 292 972 l 294 771 l 524 771 l 524 676 l 296 676 l 296 257 q 301 146 296 178 q 321 104 306 114 q 374 94 336 94 q 455 104 411 94 q 524 125 499 114 l 546 60 q 437 10 511 33 q 300 -14 363 -14 m 408 -186 q 387 -278 408 -236 q 339 -347 365 -319 q 299 -378 313 -374 l 297 -378 l 247 -354 l 246 -344 q 276 -308 264 -336 q 289 -250 289 -281 q 281 -221 289 -232 q 260 -200 274 -210 q 232 -143 232 -181 q 257 -91 232 -107 q 310 -75 282 -75 l 314 -75 q 383 -104 357 -75 q 408 -186 408 -133 z "},"ṫ":{"ha":565,"x_min":42,"x_max":546,"o":"m 300 -14 q 179 24 219 -14 q 139 147 139 61 l 139 676 l 42 676 l 42 740 q 83 752 53 743 q 124 768 113 761 q 160 819 146 781 q 204 972 172 849 l 292 972 l 294 771 l 524 771 l 524 676 l 296 676 l 296 257 q 301 146 296 178 q 321 104 306 114 q 374 94 336 94 q 455 104 411 94 q 524 125 499 114 l 546 60 q 437 10 511 33 q 300 -14 363 -14 m 247 1068 q 184 1094 208 1068 q 160 1160 160 1121 q 186 1235 160 1204 q 260 1267 213 1267 q 327 1240 303 1267 q 351 1175 351 1213 q 325 1098 351 1128 q 249 1068 299 1068 l 247 1068 z "},"u":{"ha":881,"x_min":49,"x_max":833,"o":"m 693 -14 q 634 2 653 -14 q 615 54 615 18 l 615 100 q 503 19 572 54 q 364 -15 435 -15 q 180 54 235 -15 q 125 283 125 124 l 125 683 l 49 706 l 49 769 l 250 788 l 251 788 l 279 771 l 279 292 q 290 170 279 214 q 331 106 301 126 q 415 85 361 85 q 517 108 469 85 q 597 160 564 131 l 597 683 l 499 706 l 499 769 l 717 788 l 719 788 l 751 771 l 751 74 l 833 74 l 832 8 q 760 -8 789 -3 q 693 -14 732 -14 z "},"ú":{"ha":881,"x_min":49,"x_max":833,"o":"m 693 -14 q 634 2 653 -14 q 615 54 615 18 l 615 100 q 503 19 572 54 q 364 -15 435 -15 q 180 54 235 -15 q 125 283 125 124 l 125 683 l 49 706 l 49 769 l 250 788 l 251 788 l 279 771 l 279 292 q 290 170 279 214 q 331 106 301 126 q 415 85 361 85 q 517 108 469 85 q 597 160 564 131 l 597 683 l 499 706 l 499 769 l 717 788 l 719 788 l 751 771 l 751 74 l 833 74 l 832 8 q 760 -8 789 -3 q 693 -14 732 -14 m 333 953 l 561 1231 l 665 1139 q 537 1008 635 1090 q 389 904 439 925 l 333 953 z "},"ŭ":{"ha":881,"x_min":49,"x_max":833,"o":"m 433 917 q 308 948 363 917 q 226 1032 254 979 q 197 1146 197 1085 q 200 1190 197 1178 l 278 1190 q 279 1165 278 1175 q 323 1072 286 1113 q 433 1032 360 1032 q 543 1072 507 1032 q 585 1164 579 1113 q 586 1190 588 1185 l 663 1190 l 664 1147 q 635 1032 664 1085 q 554 948 607 979 q 433 917 501 917 m 693 -14 q 634 2 653 -14 q 615 54 615 18 l 615 100 q 503 19 572 54 q 364 -15 435 -15 q 180 54 235 -15 q 125 283 125 124 l 125 683 l 49 706 l 49 769 l 250 788 l 251 788 l 279 771 l 279 292 q 290 170 279 214 q 331 106 301 126 q 415 85 361 85 q 517 108 469 85 q 597 160 564 131 l 597 683 l 499 706 l 499 769 l 717 788 l 719 788 l 751 771 l 751 74 l 833 74 l 832 8 q 760 -8 789 -3 q 693 -14 732 -14 z "},"û":{"ha":881,"x_min":49,"x_max":833,"o":"m 375 1208 l 488 1208 l 685 938 l 626 896 l 432 1093 l 231 896 l 175 936 l 375 1208 m 693 -14 q 634 2 653 -14 q 615 54 615 18 l 615 100 q 503 19 572 54 q 364 -15 435 -15 q 180 54 235 -15 q 125 283 125 124 l 125 683 l 49 706 l 49 769 l 250 788 l 251 788 l 279 771 l 279 292 q 290 170 279 214 q 331 106 301 126 q 415 85 361 85 q 517 108 469 85 q 597 160 564 131 l 597 683 l 499 706 l 499 769 l 717 788 l 719 788 l 751 771 l 751 74 l 833 74 l 832 8 q 760 -8 789 -3 q 693 -14 732 -14 z "},"ü":{"ha":881,"x_min":49,"x_max":833,"o":"m 693 -14 q 634 2 653 -14 q 615 54 615 18 l 615 100 q 503 19 572 54 q 364 -15 435 -15 q 180 54 235 -15 q 125 283 125 124 l 125 683 l 49 706 l 49 769 l 250 788 l 251 788 l 279 771 l 279 292 q 290 170 279 214 q 331 106 301 126 q 415 85 361 85 q 517 108 469 85 q 597 160 564 131 l 597 683 l 499 706 l 499 769 l 717 788 l 719 788 l 751 771 l 751 74 l 833 74 l 832 8 q 760 -8 789 -3 q 693 -14 732 -14 m 242 922 q 183 948 206 922 q 161 1013 161 974 q 186 1088 161 1057 q 257 1118 211 1118 q 320 1091 297 1118 q 343 1026 343 1064 q 317 951 343 981 q 242 922 292 922 m 560 922 q 501 949 524 922 q 479 1013 479 975 q 504 1088 479 1057 q 575 1118 529 1118 q 640 1091 617 1118 q 663 1026 663 1064 q 636 951 663 981 q 560 922 610 922 z "},"ụ":{"ha":881,"x_min":49,"x_max":833,"o":"m 693 -14 q 634 2 653 -14 q 615 54 615 18 l 615 100 q 503 19 572 54 q 364 -15 435 -15 q 180 54 235 -15 q 125 283 125 124 l 125 683 l 49 706 l 49 769 l 250 788 l 251 788 l 279 771 l 279 292 q 290 170 279 214 q 331 106 301 126 q 415 85 361 85 q 517 108 469 85 q 597 160 564 131 l 597 683 l 499 706 l 499 769 l 717 788 l 719 788 l 751 771 l 751 74 l 833 74 l 832 8 q 760 -8 789 -3 q 693 -14 732 -14 m 432 -257 q 377 -234 399 -257 q 356 -178 356 -211 q 379 -112 356 -139 q 443 -85 403 -85 q 501 -108 481 -85 q 522 -164 522 -132 q 499 -231 522 -206 q 433 -257 476 -257 l 432 -257 z "},"ù":{"ha":881,"x_min":49,"x_max":833,"o":"m 463 904 q 317 1006 417 922 q 189 1139 218 1090 l 293 1231 l 521 953 l 464 904 l 463 904 m 693 -14 q 634 2 653 -14 q 615 54 615 18 l 615 100 q 503 19 572 54 q 364 -15 435 -15 q 180 54 235 -15 q 125 283 125 124 l 125 683 l 49 706 l 49 769 l 250 788 l 251 788 l 279 771 l 279 292 q 290 170 279 214 q 331 106 301 126 q 415 85 361 85 q 517 108 469 85 q 597 160 564 131 l 597 683 l 499 706 l 499 769 l 717 788 l 719 788 l 751 771 l 751 74 l 833 74 l 832 8 q 760 -8 789 -3 q 693 -14 732 -14 z "},"ủ":{"ha":881,"x_min":49,"x_max":833,"o":"m 693 -14 q 634 2 653 -14 q 615 54 615 18 l 615 100 q 503 19 572 54 q 364 -15 435 -15 q 180 54 235 -15 q 125 283 125 124 l 125 683 l 49 706 l 49 769 l 250 788 l 251 788 l 279 771 l 279 292 q 290 170 279 214 q 331 106 301 126 q 415 85 361 85 q 517 108 469 85 q 597 160 564 131 l 597 683 l 499 706 l 499 769 l 717 788 l 719 788 l 751 771 l 751 74 l 833 74 l 832 8 q 760 -8 789 -3 q 693 -14 732 -14 m 368 858 q 340 917 340 899 q 351 946 340 935 q 382 971 361 957 q 410 993 400 983 q 425 1017 421 1003 l 425 1022 q 408 1065 425 1047 q 353 1086 390 1082 q 307 1082 313 1086 l 301 1175 q 325 1182 304 1179 q 361 1185 346 1185 q 487 1147 436 1185 q 538 1040 538 1108 q 519 985 538 1007 q 465 942 500 964 q 449 930 457 935 q 436 919 442 925 q 421 888 421 904 q 424 867 421 875 l 368 858 z "},"ư":{"ha":881,"x_min":49,"x_max":933,"o":"m 933 918 q 881 776 933 839 q 751 686 829 714 l 751 74 l 833 74 l 832 8 q 760 -8 789 -3 q 693 -14 732 -14 q 634 2 653 -14 q 615 54 615 18 l 615 100 q 503 19 572 54 q 364 -15 435 -15 q 180 54 235 -15 q 125 283 125 124 l 125 683 l 49 706 l 49 769 l 250 788 l 251 788 l 279 771 l 279 292 q 290 170 279 214 q 331 106 301 126 q 415 85 361 85 q 517 108 469 85 q 597 160 564 131 l 597 683 l 499 706 l 499 769 l 717 788 l 719 788 l 726 783 q 788 842 767 803 q 815 925 808 882 q 817 949 818 943 l 931 949 q 933 918 933 926 z "},"ứ":{"ha":881,"x_min":49,"x_max":933,"o":"m 933 918 q 881 776 933 839 q 751 686 829 714 l 751 74 l 833 74 l 832 8 q 760 -8 789 -3 q 693 -14 732 -14 q 634 2 653 -14 q 615 54 615 18 l 615 100 q 503 19 572 54 q 364 -15 435 -15 q 180 54 235 -15 q 125 283 125 124 l 125 683 l 49 706 l 49 769 l 250 788 l 251 788 l 279 771 l 279 292 q 290 170 279 214 q 331 106 301 126 q 415 85 361 85 q 517 108 469 85 q 597 160 564 131 l 597 683 l 499 706 l 499 769 l 717 788 l 719 788 l 726 783 q 788 842 767 803 q 815 925 808 882 q 817 949 818 943 l 931 949 q 933 918 933 926 m 333 953 l 561 1231 l 665 1139 q 537 1008 635 1090 q 389 904 439 925 l 333 953 z "}}}
